<svg width="189" height="45" viewBox="0 0 189 45" fill="none" xmlns="http://www.w3.org/2000/svg">
<g clip-path="url(#clip0_2542_1167)">
<g clip-path="url(#clip1_2542_1167)">
<g clip-path="url(#clip2_2542_1167)">
<path d="M6.34702 0.292725H183.011C184.6 0.292725 186.123 0.923667 187.246 2.04675C188.369 3.16984 189 4.69307 189 6.28135V38.2207C189 39.809 188.369 41.3322 187.246 42.4553C186.123 43.5784 184.6 44.2093 183.011 44.2093H6.34702C4.75874 44.2093 3.23551 43.5784 2.11243 42.4553C0.989341 41.3322 0.358398 39.809 0.358398 38.2207L0.358398 6.28135C0.358398 4.69307 0.989341 3.16984 2.11243 2.04675C3.23551 0.923667 4.75874 0.292725 6.34702 0.292725Z" fill="white"/>
<path d="M188.591 37.546C188.642 37.6748 188.667 37.8126 188.664 37.9513C188.662 38.09 188.631 38.2267 188.575 38.3534C188.141 40.1847 187.097 41.8142 185.615 42.9747C184.133 44.1353 182.302 44.7582 180.419 44.7413C122.476 44.7413 64.5312 44.7466 6.58663 44.7573C5.72127 44.7631 4.86335 44.5972 4.06254 44.2692C3.26173 43.9412 2.53392 43.4576 1.92127 42.8465C1.30861 42.2353 0.823267 41.5087 0.493333 40.7086C0.163398 39.9086 -0.00457466 39.0511 -0.000859177 38.1857C0.076993 27.7309 0.076993 17.2761 -0.000859177 6.82131C-0.00605055 5.95518 0.160999 5.09667 0.490574 4.29568C0.82015 3.49469 1.30568 2.76721 1.91892 2.15554C2.53217 1.54388 3.26089 1.06023 4.06273 0.732718C4.86457 0.405209 5.72351 0.240375 6.58962 0.247799C17.0907 0.29471 27.6077 0.263768 38.1098 0.263768C38.9616 0.242559 39.8089 0.394193 40.6006 0.709516C41.3922 1.02484 42.1118 1.49731 42.7158 2.09841C43.3197 2.69951 43.7957 3.41677 44.1148 4.20688C44.4339 4.997 44.5896 5.84359 44.5725 6.69555C44.5725 12.0707 44.5778 17.4405 44.5884 22.805C44.6234 22.9965 44.5809 23.194 44.4703 23.3542C44.3597 23.5144 44.19 23.6241 43.9986 23.6593C42.3046 24.1824 40.8271 25.2432 39.79 26.6811C38.7528 28.119 38.2123 29.8557 38.2505 31.6282C38.1443 33.3374 38.1861 35.0525 38.3753 36.7545C38.7347 38.6015 39.7111 40.2717 41.1443 41.4911C42.5775 42.7104 44.3825 43.4067 46.2633 43.4657C46.5896 43.4817 46.931 43.4817 47.2614 43.4817C91.3643 43.4817 135.467 43.487 179.57 43.4977C183.873 43.4977 186.871 41.758 188.425 37.7037C188.445 37.6587 188.472 37.6168 188.503 37.5789C188.513 37.5619 188.544 37.5619 188.591 37.546ZM26.7982 7.37825C26.7982 7.00496 26.7823 6.6167 26.7982 6.24441C26.8292 5.84517 26.6425 5.74536 26.2852 5.79426C25.6634 5.85614 25.0575 5.85614 24.4367 5.94997C20.6325 6.45855 17.1144 8.24617 14.4607 11.019C11.807 13.7919 10.1755 17.3851 9.83446 21.208C9.32143 28.0739 12.0562 33.4497 17.8502 37.2246C20.3511 38.8217 23.2418 39.703 26.2084 39.7727C26.6745 39.7887 26.8302 39.648 26.7982 39.1828C26.7516 38.5209 26.7516 37.8565 26.7982 37.1946C26.8292 36.7285 26.6585 36.5888 26.2084 36.5728C25.5671 36.5472 24.9286 36.4745 24.298 36.3552C21.0233 35.7697 18.0708 34.0196 15.9853 31.4279C13.8998 28.8362 12.822 25.5776 12.9506 22.2535C13.0793 18.9294 14.4058 15.7639 16.6854 13.3411C18.9649 10.9183 22.0438 9.40171 25.354 9.07104C26.7982 8.86942 26.7982 8.86942 26.7982 7.37825ZM16.0636 22.7421C16.0453 23.3621 16.0975 23.9823 16.2193 24.5906C16.5496 26.4773 17.3792 28.2412 18.6219 29.6988C19.8645 31.1564 21.4749 32.2547 23.2856 32.8794C25.0963 33.5041 27.0413 33.6324 28.9184 33.2511C30.7955 32.8697 32.5362 31.9926 33.9596 30.7109C34.2701 30.4464 34.3479 30.2448 33.9906 29.9344C33.5005 29.5142 33.0433 29.0571 32.6232 28.567C32.2499 28.1318 32.0173 28.1009 31.5672 28.5051C30.0495 29.7829 28.0873 30.4072 26.1103 30.2413C24.1333 30.0753 22.3027 29.1327 21.0192 27.6198C19.8602 26.2598 19.2314 24.527 19.2484 22.7402C19.2655 20.9534 19.9273 19.2329 21.112 17.8953C21.4225 17.538 21.4225 17.3513 21.0811 17.0409C20.591 16.6207 20.1339 16.1636 19.7137 15.6735C19.3404 15.2234 19.0919 15.2743 18.7346 15.6895C17.0272 17.6439 16.0793 20.147 16.0636 22.7421ZM26.5956 14.7732C26.2731 14.765 25.9522 14.8218 25.652 14.94C25.3518 15.0583 25.0784 15.2356 24.8481 15.4616C24.6178 15.6875 24.4352 15.9575 24.3112 16.2553C24.1872 16.5532 24.1243 16.873 24.1263 17.1956C24.1394 17.8315 24.3968 18.4379 24.845 18.8891C25.2932 19.3403 25.898 19.6017 26.5337 19.619C26.855 19.6225 27.1738 19.5618 27.4713 19.4404C27.7689 19.319 28.0392 19.1395 28.2664 18.9123C28.4936 18.6851 28.6731 18.4148 28.7945 18.1172C28.9159 17.8197 28.9766 17.5009 28.9731 17.1796C28.9788 16.8644 28.9215 16.5513 28.8044 16.2586C28.6873 15.9659 28.5129 15.6995 28.2914 15.4752C28.0699 15.2509 27.8057 15.0732 27.5145 14.9524C27.2233 14.8317 26.9109 14.7714 26.5956 14.7732ZM34.798 22.9756C34.7996 22.654 34.7368 22.3354 34.6134 22.0384C34.4901 21.7414 34.3086 21.4721 34.0796 21.2462C33.8507 21.0204 33.579 20.8425 33.2803 20.7232C32.9817 20.6038 32.6623 20.5454 32.3407 20.5512C31.7029 20.5752 31.0987 20.8433 30.6529 21.3001C30.2071 21.7568 29.9538 22.3674 29.9453 23.0056C29.9464 23.3274 30.0122 23.6458 30.1386 23.9418C30.2651 24.2378 30.4496 24.5054 30.6814 24.7288C30.9131 24.9522 31.1873 25.1268 31.4878 25.2423C31.7883 25.3577 32.1088 25.4117 32.4305 25.401C32.7477 25.4055 33.0624 25.3453 33.3555 25.2242C33.6487 25.103 33.9141 24.9235 34.1356 24.6965C34.3571 24.4695 34.5301 24.1997 34.644 23.9037C34.7578 23.6077 34.8103 23.2926 34.798 22.9756Z" fill="#79B62C"/>
<path d="M64.3302 31.767C64.6565 31.767 64.7035 31.4676 64.8292 31.3009C65.3228 30.5988 65.8918 29.9528 66.526 29.3746C67.3494 28.613 68.1419 28.4114 68.8566 28.8306C69.1768 29.0634 69.4153 29.3914 69.538 29.7678C69.6608 30.1442 69.6616 30.5497 69.5403 30.9266C69.3406 32.3559 69.0272 33.7692 68.7787 35.1985C68.6914 35.6133 68.6343 36.034 68.608 36.4571C68.608 36.9561 68.8566 37.1099 69.2917 36.8144C69.7576 36.4503 70.1844 36.0389 70.5653 35.5868C70.6393 35.7408 70.7479 35.8756 70.8826 35.9807C71.0173 36.0858 71.1744 36.1583 71.3418 36.1926C72.0096 36.3483 72.2741 37.016 72.7092 37.4971C73.2841 38.1499 73.89 38.1499 74.387 37.5281C74.5399 37.3415 74.6182 37.1048 74.6068 36.8639C74.5953 36.623 74.495 36.3948 74.3252 36.2235C73.8554 35.6552 73.3356 35.1301 72.7721 34.6545C71.9537 34.0661 71.4009 33.1783 71.234 32.1842C71.1327 31.4691 71.2919 30.7415 71.6825 30.134C72.0732 29.5266 72.6693 29.0799 73.362 28.8755C74.4456 28.4798 75.6341 28.4798 76.7176 28.8755C77.2766 29.0621 77.7736 29.3416 77.7427 30.0872C78.1 29.9944 78.2557 29.7299 78.4573 29.5742C78.8328 29.2453 79.2507 28.9683 79.7 28.7507C79.9574 28.6023 80.2531 28.5337 80.5496 28.5539C80.8461 28.5741 81.1299 28.682 81.3648 28.8639C81.5997 29.0459 81.7752 29.2936 81.8689 29.5756C81.9625 29.8577 81.9702 30.1612 81.8908 30.4475C81.6912 31.7371 81.4097 33.0106 81.1921 34.3002C81.0993 34.8442 81.0364 35.3722 80.9745 35.9161C80.946 36.0088 80.9542 36.109 80.9975 36.1958C81.0408 36.2826 81.1159 36.3493 81.2071 36.3822C81.2882 36.4084 81.3758 36.4056 81.4551 36.3745C81.5344 36.3434 81.6006 36.2859 81.6423 36.2116C81.9126 35.9117 82.157 35.5895 82.3729 35.2484C83.4691 33.5186 84.1988 31.5823 84.5168 29.5592C84.6096 28.9224 84.8432 28.5611 85.5269 28.627C85.5888 28.627 85.6666 28.611 85.7445 28.611C87.2516 28.5182 87.2975 28.5801 87.034 30.0243C86.6608 32.0125 86.2885 33.9858 85.9311 35.974C85.8692 36.3004 85.7445 36.6887 86.1178 36.8723C86.4442 37.028 86.6767 36.7016 86.9103 36.515C87.2366 36.2505 87.563 35.9561 87.9084 35.6446C87.9714 35.6921 88.0232 35.753 88.0597 35.823C88.0963 35.8929 88.1168 35.9701 88.1197 36.049C88.1227 36.1279 88.108 36.2064 88.0768 36.2789C88.0456 36.3514 87.9986 36.416 87.9393 36.4681C87.2495 37.3837 86.3626 38.1325 85.3442 38.6589C85.1071 38.8173 84.8284 38.902 84.5432 38.9024C84.2581 38.9028 83.9792 38.8187 83.7416 38.6609C83.5041 38.5031 83.3186 38.2785 83.2084 38.0155C83.0982 37.7525 83.0683 37.4627 83.1225 37.1827C83.2235 36.7186 83.2703 36.2443 83.2622 35.7694C82.9977 35.7385 82.9628 35.969 82.8889 36.1108C82.3594 36.8724 81.7326 37.5616 81.0245 38.1609C80.3877 38.7198 79.673 39.159 78.8336 38.7048C78.0411 38.2856 78.1968 37.4313 78.2437 36.7316C78.4248 35.0811 78.6997 33.4422 79.0672 31.8229C79.1291 31.4237 79.4245 30.8757 79.0053 30.6252C78.5392 30.3457 78.2128 30.9047 77.8864 31.1841C77.6539 31.3837 77.4672 31.6343 77.2027 31.9147C77.1322 31.7319 77.0118 31.5725 76.8554 31.4545C76.6989 31.3365 76.5126 31.2646 76.3174 31.247C75.8363 31.1542 75.5718 30.703 75.2923 30.3148C74.6865 29.4913 74.1735 29.2897 73.6764 29.6929C73.1175 30.1281 73.1634 30.8268 73.8631 31.5414C74.4689 32.1782 75.1676 32.7222 75.7894 33.343C76.1504 33.6654 76.4275 34.0708 76.5969 34.5242C76.7663 34.9776 76.8228 35.4654 76.7616 35.9455C76.7004 36.4256 76.5233 36.8836 76.2456 37.28C75.9679 37.6764 75.5979 37.9993 75.1676 38.2208C74.5553 38.5701 73.8759 38.7854 73.1742 38.8523C72.4725 38.9192 71.7645 38.8363 71.0973 38.609C70.4915 38.4224 70.0253 38.11 69.9784 37.3973C69.668 37.4442 69.5283 37.6967 69.3257 37.8475C68.9305 38.1887 68.4919 38.476 68.0211 38.7018C67.7947 38.8428 67.533 38.9168 67.2662 38.9154C66.9995 38.9141 66.7385 38.8373 66.5135 38.6941C66.2884 38.5509 66.1085 38.3469 65.9943 38.1058C65.8801 37.8647 65.8364 37.5963 65.8682 37.3314C65.9808 36.0787 66.1937 34.8371 66.505 33.6185C66.5829 33.1194 66.7047 32.6394 66.7845 32.1583C66.8314 31.8009 67.033 31.3199 66.5849 31.1482C66.1657 30.9925 65.9172 31.4127 65.6996 31.7071C64.8303 32.8657 64.1632 34.1629 63.7263 35.5438C63.4585 36.4067 63.2612 37.29 63.1364 38.1848C63.1361 38.2724 63.1178 38.3589 63.0827 38.4391C63.0476 38.5193 62.9965 38.5915 62.9324 38.6512C62.8683 38.7108 62.7927 38.7567 62.7102 38.7861C62.6277 38.8154 62.5401 38.8275 62.4527 38.8216C61.8309 38.8525 61.1013 39.0392 60.6352 38.6968C60.1072 38.3086 60.6192 37.6249 60.697 37.0999C61.0234 35.2035 61.3957 33.325 61.7531 31.4456C61.8149 31.1462 61.9237 30.7929 61.5973 30.6072C61.2979 30.4365 61.0694 30.716 60.8518 30.8867C60.6129 31.0554 60.4178 31.2788 60.2827 31.5381C60.1477 31.7975 60.0765 32.0854 60.0752 32.3779C59.9355 35.1895 57.4033 38.2347 54.8711 38.7657C54.4285 38.8903 53.9637 38.9152 53.5102 38.8387C53.0567 38.7622 52.6258 38.5862 52.2486 38.3232C51.8713 38.0603 51.557 37.717 51.3282 37.318C51.0995 36.9191 50.962 36.4744 50.9256 36.0159C50.5523 33.344 53.0696 29.4604 55.6487 28.7298C56.4709 28.4251 57.3784 28.4451 58.1864 28.7857C58.9944 29.1263 59.6424 29.7619 59.9984 30.5633C60.5114 30.1131 61.0234 29.665 61.5514 29.2268C61.8796 28.9465 62.2674 28.7447 62.6853 28.637C62.9002 28.5631 63.1296 28.5412 63.3547 28.5729C63.5798 28.6046 63.7942 28.689 63.9804 28.8193C64.1667 28.9496 64.3195 29.122 64.4264 29.3226C64.5333 29.5232 64.5913 29.7462 64.5956 29.9734C64.5494 30.5768 64.4607 31.1761 64.3302 31.767ZM57.2157 32.0465C57.2542 31.4415 57.2017 30.8343 57.06 30.2449C56.8733 29.5143 56.4072 29.3596 55.7704 29.7788C55.5209 29.9579 55.3095 30.1849 55.1486 30.4465C54.6064 31.283 54.2318 32.2169 54.0457 33.1963C53.7021 34.4824 53.628 35.8257 53.8281 37.1418C53.9988 38.0271 54.5587 38.2138 55.2574 37.6548C55.5802 37.3725 55.8441 37.0293 56.0339 36.6447C56.7581 35.2148 57.1605 33.6436 57.2127 32.0415L57.2157 32.0465Z" fill="#24386E"/>
<path d="M118.064 36.8932C117.522 37.4603 116.923 37.9703 116.277 38.4153C114.616 39.5022 113.497 38.9593 113.372 36.986C112.973 37.3593 112.61 37.7625 112.191 38.0889C110.466 39.4863 109.131 39.1449 108.308 37.0639C107.841 37.4631 107.375 37.8873 106.894 38.2446C106.591 38.4789 106.254 38.6673 105.896 38.8036C105.681 38.9134 105.441 38.9636 105.201 38.9491C104.96 38.9346 104.728 38.8558 104.528 38.721C104.328 38.5861 104.168 38.4001 104.064 38.1824C103.961 37.9647 103.917 37.7232 103.939 37.4831C104.006 36.3705 104.183 35.2672 104.467 34.1893C104.623 33.2571 104.824 32.3249 104.995 31.3946C105.042 31.1301 105.151 30.7888 104.824 30.6331C104.514 30.4933 104.28 30.7578 104.079 30.9435C103.83 31.1611 103.612 31.4246 103.38 31.6581C103.271 31.7509 103.209 31.9995 103.007 31.8578C102.941 31.8044 102.891 31.7347 102.861 31.6556C102.831 31.5766 102.822 31.491 102.836 31.4076C102.839 31.3597 102.849 31.3125 102.867 31.2679C103.656 29.9904 104.89 29.0498 106.331 28.6269C107.341 28.6109 107.962 29.3725 107.808 30.5233C107.652 31.6102 107.419 32.6672 107.218 33.7392C107.062 34.5776 106.876 35.417 106.737 36.2554C106.706 36.473 106.628 36.7684 106.876 36.9082C107.156 37.0788 107.375 36.8463 107.56 36.6906C107.789 36.5266 107.982 36.3185 108.129 36.0785C108.275 35.8384 108.373 35.5714 108.414 35.2932C108.692 33.7046 109.429 32.2318 110.533 31.0561C111.637 29.8804 113.06 29.0531 114.629 28.6758C114.986 28.5979 115.142 28.5051 115.203 28.1318C115.343 27.2465 115.53 26.3612 115.731 25.4759C115.871 24.854 115.623 24.6055 115.033 24.5436C114.833 24.5127 114.458 24.6994 114.427 24.2642C114.396 23.7831 114.8 23.845 115.08 23.814C116.12 23.6976 117.149 23.495 118.156 23.2082C118.762 23.0375 118.87 23.2551 118.762 23.7671C118.497 25.1345 118.249 26.5169 117.969 27.8833C117.425 30.5552 116.866 33.2272 116.338 35.8991C116.276 36.2404 116.059 36.7375 116.463 36.9551C116.882 37.1876 117.162 36.7065 117.461 36.456C117.609 36.34 117.729 36.1912 117.809 36.0213C117.89 35.8514 117.931 35.665 117.927 35.4769C118 34.2515 118.359 33.0603 118.977 31.9996C119.595 30.939 120.454 30.0387 121.485 29.3715C122.003 29.0041 122.6 28.7623 123.228 28.6653C123.856 28.5683 124.498 28.6187 125.104 28.8125C125.585 28.9512 126.021 29.2181 126.362 29.5849C126.704 29.9516 126.94 30.4042 127.045 30.8946C127.289 30.5528 127.554 30.2258 127.837 29.9154C128.129 29.6328 128.446 29.3779 128.785 29.1539C129.075 28.8844 129.444 28.7138 129.837 28.6663C130.231 28.6187 130.629 28.6969 130.975 28.8894C131.752 29.3885 131.674 30.1789 131.565 30.9395C131.518 31.2659 131.457 31.5763 131.395 31.9027C131.674 31.9186 131.674 31.6701 131.768 31.5294C132.229 30.6943 132.827 29.9431 133.539 29.3076C133.747 29.0755 134.008 28.8966 134.3 28.7858C134.592 28.6751 134.906 28.6356 135.216 28.6708C135.729 28.7487 136.288 28.8265 136.428 29.4783C136.536 29.7949 136.548 30.1364 136.462 30.4598C136.377 30.7832 136.197 31.074 135.947 31.2958C135.732 31.4654 135.468 31.5614 135.194 31.5699C134.92 31.5783 134.65 31.4987 134.425 31.3427C133.478 30.8616 133.275 30.9076 132.669 31.7779C131.386 33.6439 130.551 35.7812 130.23 38.0231C130.137 38.6598 129.873 38.9084 129.251 38.9393C127.449 39.0321 127.402 39.0012 127.729 37.2775C128.102 35.3351 128.474 33.4098 128.847 31.4835C128.894 31.204 128.987 30.8776 128.692 30.7069C128.381 30.5363 128.164 30.7998 127.946 30.9714C127.711 31.1427 127.517 31.3639 127.377 31.6191C127.238 31.8743 127.156 32.1572 127.139 32.4476C127.029 33.7336 126.585 34.9686 125.853 36.031C125.12 37.0935 124.123 37.9465 122.96 38.5061C122.537 38.7455 122.07 38.8938 121.587 38.9416C121.103 38.9894 120.616 38.9357 120.155 38.7838C119.694 38.6319 119.269 38.3852 118.909 38.0596C118.549 37.734 118.261 37.3367 118.064 36.8932ZM124.278 31.7819C124.286 31.6423 124.286 31.5023 124.278 31.3627C124.169 30.7099 124.371 29.7777 123.548 29.607C122.771 29.4513 122.336 30.2129 121.995 30.8497C121.099 32.5609 120.685 34.4831 120.797 36.4111C120.813 36.97 120.735 37.7476 121.434 37.9332C122.195 38.1328 122.614 37.4521 122.956 36.8922C123.815 35.3252 124.269 33.5688 124.278 31.7819ZM111.151 35.2463C111.126 35.6248 111.174 36.0044 111.291 36.3652C111.523 37.0489 112.083 37.2036 112.519 36.6297C113.847 34.8795 114.557 32.7382 114.538 30.5413C114.554 29.9664 114.119 29.7647 113.513 29.9823C113.001 30.1891 112.577 30.5683 112.315 31.0543C111.569 32.3267 111.168 33.7716 111.151 35.2463Z" fill="#24386E"/>
<path d="M97.4031 31.5803C97.9738 30.8665 98.586 30.187 99.2366 29.5452C99.4775 29.3165 99.7373 29.1085 100.013 28.9233C100.239 28.7424 100.513 28.6315 100.801 28.6043C101.089 28.577 101.379 28.6346 101.635 28.7699C101.891 28.9053 102.101 29.1125 102.241 29.366C102.381 29.6195 102.443 29.9084 102.421 30.1969C102.386 31.3617 102.219 32.5187 101.921 33.6454C101.766 34.5157 101.58 35.3701 101.422 36.2245C101.376 36.473 101.298 36.7834 101.593 36.9391C101.873 37.0788 102.092 36.8613 102.277 36.6906C102.65 36.3642 102.991 36.0069 103.365 35.6496C103.44 35.7064 103.502 35.7797 103.544 35.8638C103.587 35.948 103.61 36.0408 103.612 36.1352C103.613 36.2296 103.593 36.3232 103.553 36.4087C103.513 36.4942 103.454 36.5694 103.381 36.6287C102.722 37.4433 101.922 38.1327 101.019 38.6638C99.6827 39.3785 98.5799 38.7107 98.6577 37.2196C98.8263 35.809 99.0961 34.4124 99.4651 33.0405C99.562 32.5796 99.6287 32.1128 99.6648 31.6432C99.6807 31.1441 99.3653 31.0213 98.9811 31.3168C98.6733 31.5771 98.4108 31.8867 98.2045 32.233C97.0577 33.986 96.3099 35.9693 96.0138 38.043C95.905 38.7107 95.5785 38.8814 94.9887 38.9133C93.233 39.0062 93.2021 38.9752 93.5444 37.2825C93.8858 35.6046 94.2591 33.9428 94.6004 32.2799C94.6783 31.9067 94.8998 31.3946 94.4008 31.208C94.0015 31.0523 93.733 31.4725 93.5154 31.7669C92.148 33.6046 91.2856 35.7685 91.0142 38.043C90.9214 38.7267 90.595 38.8974 90.0041 38.9283C88.2175 39.0211 88.1866 38.9902 88.513 37.2974L89.6318 31.4256C89.6787 31.1461 89.7566 30.8197 89.4452 30.664C89.1807 30.5243 88.9462 30.7419 88.7466 30.9126C88.498 31.1301 88.2804 31.3936 88.0319 31.6112C87.9071 31.72 87.8143 32.0304 87.6127 31.8907C87.5571 31.8543 87.5095 31.8069 87.4729 31.7514C87.4363 31.696 87.4114 31.6337 87.3997 31.5682C87.388 31.5028 87.3898 31.4357 87.405 31.371C87.4202 31.3063 87.4484 31.2454 87.4879 31.192C87.6193 30.9955 87.7648 30.8087 87.9231 30.6331C88.4959 29.9579 89.1785 29.3842 89.9423 28.9363C90.2113 28.7536 90.5271 28.6521 90.8521 28.6438C91.1772 28.6354 91.4978 28.7207 91.7758 28.8894C92.0297 29.0698 92.2263 29.3196 92.3421 29.6088C92.4578 29.898 92.4878 30.2145 92.4285 30.5203C92.323 31.0101 92.2761 31.5106 92.2888 32.0115C92.7641 31.2837 93.294 30.593 93.8738 29.9454C93.9398 29.8762 94.0021 29.8036 94.0604 29.7278C94.7751 29.0441 95.5047 28.2985 96.6086 28.8115C97.6187 29.2777 97.4011 30.2558 97.4161 31.1262C97.4191 31.2539 97.4031 31.4096 97.4031 31.5803Z" fill="#24386E"/>
<path d="M93.1773 19.8516C93.1773 21.3118 93.1613 22.6463 93.1932 23.9678C93.2092 24.4179 93.0685 24.5267 92.6343 24.5118C91.3757 24.4649 91.6242 24.6515 91.6093 23.5017C91.5783 19.9444 91.5783 16.3712 91.5474 12.814C91.5474 12.4407 91.5474 12.1303 92.0464 12.2391C92.4197 12.3169 93.0875 11.9127 93.0096 12.798C92.9938 13.1086 92.9938 13.4197 93.0096 13.7302C93.4483 13.1722 93.9986 12.7119 94.6255 12.3788C95.0661 12.1786 95.5425 12.0689 96.0263 12.0562C96.5102 12.0435 96.9916 12.1281 97.4422 12.3049C97.8927 12.4818 98.3031 12.7473 98.6491 13.0858C98.9951 13.4242 99.2696 13.8287 99.4564 14.2752C99.7611 14.9727 99.921 15.7247 99.9263 16.4858C99.9316 17.2469 99.7823 18.0012 99.4873 18.7028C99.2434 19.2925 98.8554 19.8116 98.3589 20.2125C97.8625 20.6134 97.2734 20.8834 96.6455 20.9977C96.0177 21.112 95.3712 21.067 94.7653 20.8667C94.1594 20.6665 93.6134 20.3175 93.1773 19.8516ZM93.1773 16.512V17.2575C93.1646 17.8589 93.3696 18.4445 93.7544 18.9068C94.1393 19.369 94.6781 19.6766 95.2718 19.7731C95.8655 19.8695 96.4741 19.7483 96.9855 19.4317C97.4969 19.1151 97.8767 18.6245 98.055 18.05C98.3777 17.1498 98.3994 16.169 98.1169 15.2554C98.003 14.7736 97.7463 14.3376 97.3804 14.0042C97.0145 13.6707 96.5565 13.4556 96.0663 13.3868C95.5761 13.3179 95.0766 13.3987 94.6331 13.6185C94.1895 13.8383 93.8226 14.1868 93.5805 14.6186C93.2447 15.1894 93.1032 15.8538 93.1773 16.512Z" fill="#24386E"/>
<path d="M120.285 13.327C120.285 11.7111 120.301 10.2199 120.269 8.72872C120.253 8.22967 120.378 8.07596 120.891 8.09193C121.87 8.12287 121.87 8.09193 121.87 9.0551C121.886 12.9078 121.901 16.7405 121.932 20.5972C121.932 20.8617 121.87 20.9076 121.632 20.9385C120.622 21.0783 120.576 21.0313 120.389 19.4943C120.104 19.9415 119.718 20.3162 119.262 20.5885C118.807 20.8608 118.294 21.0234 117.764 21.0633C116.878 21.1402 115.995 20.8927 115.277 20.3669C114.56 19.8412 114.058 19.0728 113.865 18.2047C113.551 17.0758 113.589 15.878 113.974 14.7712C114.161 14.1394 114.512 13.5688 114.993 13.1177C115.473 12.6667 116.065 12.3515 116.707 12.2045C117.349 12.0575 118.019 12.084 118.648 12.2813C119.277 12.4785 119.841 12.8394 120.285 13.327ZM120.316 16.5888H120.285C120.285 16.2784 120.301 15.967 120.285 15.6566C120.278 15.1224 120.09 14.6063 119.753 14.192C119.416 13.7777 118.949 13.4894 118.427 13.3738C117.906 13.2583 117.36 13.3223 116.88 13.5555C116.399 13.7886 116.011 14.1773 115.779 14.6585C115.476 15.2279 115.311 15.8607 115.298 16.5056C115.284 17.1506 115.422 17.7897 115.701 18.3714C115.901 18.8344 116.244 19.2206 116.681 19.4724C117.118 19.7242 117.624 19.8281 118.125 19.7687C118.627 19.7221 119.101 19.5184 119.48 19.1865C119.86 18.8546 120.125 18.4115 120.238 17.9203C120.288 17.4785 120.314 17.0344 120.317 16.5898L120.316 16.5888Z" fill="#24386E"/>
<path d="M47.9091 14.912C47.9091 13.1104 47.925 11.3079 47.8931 9.50629C47.8931 9.0252 48.0328 8.83856 48.5299 8.80762C49.8036 8.64453 51.0929 8.64453 52.3666 8.80762C53.1297 8.87348 53.8471 9.19953 54.3986 9.73119C54.9501 10.2628 55.3021 10.9678 55.3958 11.7281C55.5624 12.5773 55.4168 13.4582 54.9859 14.2087C54.555 14.9592 53.8677 15.529 53.0503 15.8133C52.0942 16.1928 51.0568 16.3213 50.037 16.1866C49.5869 16.1247 49.4621 16.2485 49.4781 16.6857C49.509 17.9133 49.4471 19.156 49.509 20.3786C49.54 21.1402 49.0429 20.9066 48.6706 20.9226C48.2983 20.9386 47.8781 21.0783 47.8941 20.3786C47.94 18.5621 47.9091 16.7296 47.9091 14.912ZM49.4781 12.4267C49.4781 13.0635 49.494 13.7003 49.4781 14.3531C49.4621 14.6944 49.5559 14.897 49.9282 14.928C50.7556 15.0433 51.5987 14.9524 52.3826 14.6635C52.8757 14.4475 53.2834 14.0742 53.542 13.602C53.8006 13.1298 53.8955 12.5853 53.8118 12.0535C53.7867 11.588 53.6086 11.1439 53.3052 10.79C53.0018 10.4361 52.5902 10.1922 52.134 10.0962C51.4616 9.94609 50.7696 9.90398 50.0839 9.97141C49.6338 9.97141 49.4312 10.1111 49.4621 10.5932C49.509 11.1831 49.4781 11.8059 49.4781 12.4267Z" fill="#24386E"/>
<path d="M46.7751 34.7802C46.822 35.417 46.6823 36.3961 47.6295 36.8303C48.5457 37.2495 49.1825 36.5508 49.8513 36.0687C50.0688 35.913 50.2246 35.401 50.5499 35.6804C50.9382 36.0218 50.5968 36.3641 50.3323 36.6436C49.6393 37.433 48.8138 38.0954 47.893 38.6009C47.4925 38.8154 47.044 38.9242 46.5898 38.917C46.1356 38.9098 45.6907 38.7869 45.2972 38.5599C44.9037 38.3329 44.5746 38.0093 44.3411 37.6196C44.1075 37.23 43.9772 36.7872 43.9624 36.3332C43.8616 34.962 44.133 33.589 44.7479 32.3592C45.3628 31.1295 46.2984 30.0886 47.4558 29.3465C47.9457 29 48.5086 28.7707 49.1012 28.6764C49.6938 28.582 50.3001 28.6252 50.8733 28.8025C51.1047 28.8708 51.3161 28.994 51.4896 29.1616C51.6631 29.3292 51.7935 29.5363 51.8698 29.7651C51.946 29.994 51.9659 30.2379 51.9276 30.4761C51.8893 30.7143 51.794 30.9397 51.6498 31.1331C51.5498 31.2966 51.4094 31.4317 51.2421 31.5254C51.0749 31.6192 50.8864 31.6684 50.6947 31.6684C50.5029 31.6684 50.3144 31.6192 50.1472 31.5254C49.9799 31.4317 49.8395 31.2966 49.7395 31.1331C49.5398 30.8536 49.3981 30.5113 49.2115 30.2168C48.7763 29.5491 48.3132 29.5331 47.9069 30.2168C47.2926 31.3475 46.9322 32.5986 46.851 33.8829C46.7917 34.1781 46.7663 34.4792 46.7751 34.7802Z" fill="#24386E"/>
<path d="M100.836 16.6046C100.789 15.9177 100.909 15.2296 101.186 14.5991C101.462 13.9686 101.887 13.4144 102.425 12.9839C102.962 12.5534 103.596 12.2595 104.272 12.1271C104.947 11.9948 105.645 12.028 106.305 12.224C107.269 12.4771 108.11 13.0681 108.674 13.8892C109.239 14.7103 109.49 15.7069 109.381 16.6975C109.4 17.3728 109.259 18.0429 108.969 18.6534C108.68 19.2639 108.251 19.7975 107.717 20.2108C107.182 20.6241 106.558 20.9054 105.894 21.0318C105.231 21.1583 104.546 21.1262 103.898 20.9384C102.958 20.6933 102.135 20.1238 101.575 19.3307C101.015 18.5377 100.753 17.5721 100.836 16.6046ZM107.749 16.5428C107.75 15.8537 107.578 15.1754 107.25 14.5695C107.05 14.1953 106.755 13.88 106.395 13.6551C106.036 13.4303 105.623 13.3037 105.199 13.2879C104.775 13.2722 104.354 13.3678 103.978 13.5654C103.603 13.7629 103.285 14.0554 103.058 14.4138C102.662 15.0671 102.452 15.8166 102.452 16.5807C102.452 17.3448 102.662 18.0942 103.058 18.7476C103.263 19.0838 103.548 19.3642 103.888 19.5637C104.227 19.7632 104.611 19.8756 105.005 19.891C105.398 19.9064 105.789 19.8243 106.144 19.652C106.498 19.4797 106.804 19.2225 107.035 18.9033C107.527 18.2172 107.779 17.387 107.749 16.5428Z" fill="#24386E"/>
<path d="M127.773 12.0843C128.352 12.0687 128.928 12.176 129.463 12.3992C129.997 12.6224 130.478 12.9563 130.875 13.379C131.271 13.8017 131.573 14.3036 131.761 14.8515C131.949 15.3994 132.018 15.9809 131.965 16.5578C132.005 17.1479 131.92 17.7398 131.716 18.2951C131.513 18.8505 131.195 19.357 130.784 19.7819C130.372 20.2069 129.877 20.5408 129.328 20.7622C128.78 20.9836 128.191 21.0875 127.6 21.0672C125.083 21.0672 123.408 19.2656 123.408 16.5757C123.369 15.9865 123.454 15.3958 123.658 14.8417C123.862 14.2876 124.18 13.7825 124.592 13.3591C125.003 12.9357 125.499 12.6034 126.047 12.3838C126.595 12.1642 127.183 12.0622 127.773 12.0843ZM130.336 16.5428C130.337 15.8537 130.166 15.1754 129.837 14.5695C129.637 14.1953 129.343 13.88 128.983 13.6552C128.623 13.4303 128.21 13.3037 127.786 13.2879C127.362 13.2722 126.941 13.3678 126.566 13.5654C126.19 13.7629 125.873 14.0555 125.645 14.4138C125.249 15.0672 125.04 15.8166 125.04 16.5807C125.04 17.3448 125.249 18.0942 125.645 18.7476C125.85 19.0838 126.135 19.3642 126.475 19.5637C126.815 19.7632 127.198 19.8756 127.592 19.8911C127.985 19.9065 128.377 19.8243 128.731 19.652C129.085 19.4797 129.391 19.2225 129.622 18.9033C130.115 18.2172 130.366 17.387 130.336 16.5428Z" fill="#24386E"/>
<path d="M61.1917 19.9294C60.7825 20.3786 60.2645 20.7146 59.6875 20.905C59.1105 21.0954 58.4941 21.1337 57.898 21.0163C57.4325 20.9604 56.9957 20.7615 56.6479 20.4471C56.3 20.1327 56.0582 19.7182 55.9557 19.2607C55.8092 18.7655 55.8138 18.238 55.9689 17.7455C56.1239 17.253 56.4224 16.8179 56.826 16.4959C57.8913 15.7198 59.1921 15.3358 60.508 15.409C61.1298 15.409 61.1608 15.1764 61.067 14.7103C60.986 14.2595 60.7338 13.8575 60.3633 13.5884C59.9927 13.3192 59.5325 13.2037 59.0787 13.2661C58.4324 13.2825 57.7969 13.4359 57.2143 13.7162C57.0276 13.809 56.815 13.9807 56.7482 13.6074C56.7013 13.3279 56.2671 13.0634 56.7013 12.753C57.4279 12.3473 58.2438 12.1278 59.0759 12.1142C59.9081 12.1006 60.7307 12.2933 61.4702 12.6752C61.8219 12.9241 62.1103 13.252 62.3126 13.6324C62.5148 14.0128 62.6253 14.4353 62.635 14.866C62.7907 16.7764 62.5571 18.7187 62.7907 20.6291C62.8216 20.8776 62.7288 20.9704 62.4803 20.9555C62.1316 21.0024 61.777 20.9759 61.4393 20.8776C61.2067 20.7219 61.4552 20.2248 61.1917 19.9294ZM61.2077 17.2734C61.0081 17.1028 61.5181 16.5279 60.9083 16.4969C59.9324 16.3649 58.9414 16.5854 58.1136 17.1187C57.8197 17.3429 57.6104 17.66 57.5198 18.0183C57.4292 18.3766 57.4626 18.7551 57.6145 19.092C57.7777 19.399 58.0402 19.6415 58.3592 19.7798C58.6781 19.9182 59.0346 19.9442 59.3702 19.8535C60.6009 19.616 61.2067 18.7806 61.2067 17.2734H61.2077Z" fill="#24386E"/>
<path d="M138.12 37.7326C137.001 36.8343 136.97 36.1167 138.027 35.1076C138.198 34.9369 138.426 34.8431 138.089 34.5946C137.584 34.1749 137.23 33.6015 137.081 32.9619C136.933 32.3223 136.997 31.6517 137.266 31.0523C137.557 30.461 138.024 29.9739 138.602 29.6571C139.18 29.3403 139.841 29.2092 140.496 29.2816C140.852 29.2648 141.206 29.323 141.537 29.4523C142.415 29.8223 143.371 29.9664 144.318 29.8715C144.518 29.8715 144.862 29.7158 144.877 30.1041C144.893 30.5033 144.551 30.4305 144.302 30.4614C143.992 30.4923 143.68 30.5083 143.339 30.5233C143.417 31.0044 143.696 31.3936 143.738 31.8747C143.971 34.1274 142.153 35.6495 139.684 35.2453C139.234 35.1675 138.786 34.9658 138.394 35.4629C137.881 36.1157 138.021 36.7674 138.814 37.0319C139.646 37.2414 140.503 37.3354 141.361 37.3114C142.027 37.3259 142.69 37.4197 143.334 37.5909C143.616 37.6512 143.88 37.7774 144.104 37.9593C144.327 38.1411 144.505 38.3733 144.622 38.637C144.739 38.9006 144.791 39.1882 144.776 39.4762C144.76 39.7641 144.677 40.0443 144.532 40.2937C144.228 40.978 143.672 41.5182 142.979 41.8009C142.19 42.1693 141.331 42.3642 140.46 42.3723C139.589 42.3804 138.726 42.2015 137.93 41.8478C137.509 41.705 137.141 41.4363 136.877 41.0779C136.613 40.7194 136.465 40.2886 136.454 39.8436C136.458 39.4235 136.59 39.0146 136.831 38.6707C137.072 38.3268 137.412 38.0641 137.806 37.9172C137.902 37.8574 138.011 37.7975 138.12 37.7326ZM140.388 41.6472C141.401 41.7269 142.409 41.4282 143.215 40.8088C143.471 40.6301 143.667 40.38 143.781 40.0897C143.894 39.7995 143.919 39.4822 143.852 39.1778C143.76 38.8906 143.576 38.6412 143.33 38.4674C143.083 38.2937 142.786 38.2049 142.485 38.2147C141.351 38.0899 140.217 37.9821 139.082 37.9352C138.693 37.9891 138.326 38.1474 138.019 38.3935C137.713 38.6396 137.479 38.9641 137.342 39.3326C137.252 39.6955 137.291 40.0788 137.452 40.4163C137.614 40.7537 137.888 41.0242 138.228 41.181C138.895 41.5211 139.639 41.6818 140.388 41.6472ZM140.404 34.6604C140.731 34.697 141.062 34.6618 141.375 34.5573C141.687 34.4529 141.973 34.2816 142.213 34.0554C142.452 33.8292 142.639 33.5536 142.762 33.2476C142.884 32.9417 142.938 32.6129 142.92 32.2839C142.882 31.6425 142.6 31.0398 142.132 30.5992C141.664 30.1585 141.046 29.9132 140.403 29.9132C139.761 29.9132 139.142 30.1585 138.674 30.5992C138.207 31.0398 137.925 31.6425 137.886 32.2839C137.869 32.6126 137.924 32.9411 138.046 33.2467C138.169 33.5522 138.356 33.8274 138.596 34.0531C138.835 34.2789 139.121 34.4498 139.433 34.554C139.745 34.6581 140.077 34.6931 140.404 34.6564V34.6604Z" fill="#79B62C"/>
<path d="M164.063 37.7345C163.939 37.9225 163.884 38.1475 163.907 38.3713C163.907 38.6817 163.814 38.8704 163.457 38.8704C163.022 38.8704 163.114 38.56 163.099 38.3264V25.7244C163.099 25.4139 162.991 25.0716 163.549 25.0566C164.108 25.0417 164.016 25.383 164.016 25.6934V30.9285C164.315 30.664 164.529 30.4623 164.745 30.2607C165.212 29.8055 165.793 29.4853 166.427 29.3343C167.061 29.1833 167.724 29.207 168.346 29.403C168.968 29.5991 169.525 29.96 169.957 30.4475C170.39 30.9349 170.683 31.5306 170.804 32.1711C171.19 33.6799 171.07 35.2738 170.461 36.7075C170.212 37.2742 169.829 37.772 169.346 38.1584C168.862 38.5447 168.292 38.8081 167.684 38.9258C167.076 39.0436 166.449 39.0122 165.856 38.8345C165.263 38.6567 164.722 38.3379 164.279 37.9052C164.214 37.84 164.141 37.7827 164.063 37.7345ZM164.047 34.3011C164.047 34.9379 164.078 35.5906 164.031 36.2274C164.018 36.4393 164.053 36.6514 164.134 36.8478C164.214 37.0442 164.339 37.2197 164.497 37.3613C164.831 37.6933 165.235 37.9461 165.679 38.1013C166.124 38.2564 166.598 38.3099 167.066 38.2577C167.534 38.2055 167.984 38.049 168.384 37.7997C168.783 37.5504 169.122 37.2147 169.374 36.8173C169.846 35.9868 170.103 35.0517 170.122 34.0968C170.141 33.1418 169.922 32.1973 169.483 31.3487C169.172 30.8034 168.682 30.3821 168.096 30.1557C167.51 29.9294 166.864 29.9118 166.267 30.106C165.654 30.2357 165.102 30.5655 164.697 31.0437C164.292 31.5218 164.058 32.121 164.031 32.747C164.044 33.2581 164.044 33.786 164.044 34.2991L164.047 34.3011Z" fill="#79B62C"/>
<path d="M71.1022 16.3253C71.1022 15.5637 71.0553 14.8032 71.1182 14.0416C71.1651 13.4358 70.8697 13.3579 70.4036 13.4198C69.8905 13.4976 69.6889 13.327 69.7199 12.767C69.7358 12.3169 69.8596 12.1452 70.2948 12.2231C71.0094 12.3628 71.242 12.0364 71.1182 11.3847C71.1104 11.2917 71.1104 11.1982 71.1182 11.1052C71.1182 10.1071 71.3507 9.87753 72.3459 9.7847C72.6253 9.75376 72.6722 9.86255 72.6563 10.0951C72.6403 10.5942 72.7032 11.1052 72.6403 11.5863C72.5784 12.1452 72.811 12.285 73.324 12.2231C73.7232 12.1762 74.1315 12.239 74.5357 12.2071C75.0018 12.1762 74.9549 12.4716 74.9349 12.766C74.919 13.0455 75.0907 13.4338 74.5467 13.4028C74.2363 13.3869 73.9249 13.4028 73.6144 13.4028C72.4956 13.4188 72.6513 13.2471 72.6513 14.4009C72.6353 15.6595 72.6203 16.9172 72.6513 18.1758C72.6822 19.4653 73.1014 19.8226 74.376 19.7138C74.6086 19.6979 74.8421 19.636 74.7752 19.9783C74.7283 20.3047 75.1326 20.7858 74.5427 20.9255C72.9457 21.3138 71.1561 21.0343 71.1092 18.58C71.0873 17.8484 71.1022 17.0868 71.1022 16.3253Z" fill="#24386E"/>
<path d="M83.7478 21.0793C83.1817 21.1147 82.6143 21.0324 82.0816 20.8376C81.5489 20.6427 81.0623 20.3396 80.6525 19.9473C80.2428 19.555 79.9188 19.0821 79.701 18.5583C79.4832 18.0346 79.3764 17.4713 79.3871 16.9042C79.3306 16.2969 79.4008 15.6844 79.5932 15.1056C79.7856 14.5267 80.096 13.9941 80.5048 13.5415C80.9137 13.0888 81.412 12.7259 81.9683 12.4758C82.5247 12.2257 83.1269 12.0937 83.7368 12.0884C84.4494 12.0702 85.1609 12.1539 85.8498 12.3369C86.5645 12.5076 86.1493 12.9268 86.0984 13.2691C86.0515 13.6574 85.8807 13.7043 85.4765 13.5795C84.8908 13.3266 84.2443 13.2492 83.6155 13.3568C82.9867 13.4643 82.4026 13.7522 81.9343 14.1854C81.5039 14.6194 81.1998 15.1625 81.0547 15.7564C80.9097 16.3502 80.9291 16.9723 81.1108 17.556C81.2089 17.9572 81.388 18.3342 81.6372 18.6636C81.8863 18.9931 82.2002 19.2682 82.5596 19.4719C82.9189 19.6756 83.3161 19.8036 83.7268 19.8481C84.1374 19.8927 84.5529 19.8528 84.9475 19.7308C85.1117 19.6987 85.2727 19.6519 85.4286 19.5911C85.7081 19.4823 86.0345 19.2807 86.0964 19.8087C86.1433 20.182 86.4956 20.6471 85.7859 20.8068C85.1208 20.9834 84.436 21.075 83.7478 21.0793Z" fill="#24386E"/>
<path d="M153.234 34.1125C153.229 34.7524 153.145 35.3893 152.985 36.0089C152.699 36.9002 152.126 37.6724 151.357 38.2058C150.587 38.7393 149.663 39.0044 148.728 38.9603C147.793 38.9161 146.898 38.565 146.182 37.9613C145.466 37.3577 144.969 36.5351 144.768 35.6206C144.527 34.5268 144.559 33.3904 144.861 32.3119C145.128 31.4225 145.679 30.6452 146.43 30.0987C147.18 29.5523 148.09 29.267 149.018 29.2863C149.946 29.3057 150.843 29.6287 151.57 30.2059C152.297 30.7832 152.816 31.5828 153.045 32.4826C153.146 33.0208 153.209 33.5654 153.234 34.1125ZM145.549 34.2213C145.58 34.5317 145.595 34.9359 145.657 35.3242C145.722 35.6513 145.81 35.9732 145.922 36.2873C146.139 36.8847 146.544 37.3956 147.076 37.7429C147.608 38.0903 148.239 38.2555 148.873 38.2137C149.508 38.2715 150.144 38.1187 150.683 37.779C151.222 37.4393 151.634 36.9316 151.856 36.3342C152.343 35.1117 152.409 33.7616 152.042 32.4975C151.914 31.7476 151.506 31.0742 150.9 30.613C150.295 30.1519 149.538 29.9372 148.78 30.0123C148.033 29.996 147.305 30.254 146.735 30.7377C146.165 31.2214 145.792 31.8971 145.686 32.6373C145.606 33.1333 145.591 33.6304 145.545 34.2213H145.549Z" fill="#79B62C"/>
<path d="M66.2721 13.9647C66.4428 13.4544 66.7584 13.0049 67.1805 12.6711C67.6025 12.3373 68.1127 12.1338 68.6486 12.0853C69.0678 12.0544 69.3323 12.1781 69.1926 12.6133C69.0838 12.9706 69.6277 13.6234 68.6935 13.6234C67.2962 13.6394 66.4568 14.6644 66.4258 16.3422C66.4099 17.6787 66.4099 18.9982 66.4258 20.3346C66.4258 20.7538 66.3789 20.9714 65.8669 20.9565C64.8418 20.9255 64.8568 20.9565 64.8418 19.9464C64.8259 17.5699 64.8259 15.2084 64.7949 12.8319C64.7949 12.4436 64.7949 12.1482 65.294 12.257C65.6513 12.3348 66.2921 11.9575 66.2102 12.8009C66.1933 13.1074 66.2562 13.4517 66.2721 13.9647Z" fill="#24386E"/>
<path d="M157.367 37.6228C158.47 34.9978 159.558 32.4656 160.598 29.9174C160.831 29.3585 161.204 29.4184 161.732 29.4513C161.375 30.3057 161.048 31.1132 160.707 31.9056C159.808 34.0186 158.92 36.1466 158.019 38.2596C157.894 38.559 157.832 38.8814 157.366 38.8814C156.9 38.8814 156.838 38.571 156.713 38.2755C155.564 35.5417 154.399 32.8229 153.249 30.0731C153.171 29.8865 152.814 29.607 153.218 29.4513C153.294 29.4111 153.377 29.3872 153.462 29.3811C153.548 29.3751 153.634 29.3872 153.714 29.4164C153.795 29.4457 153.868 29.4916 153.93 29.551C153.992 29.6105 154.04 29.6823 154.072 29.7617C154.383 30.5073 154.709 31.2379 155.02 31.9835C155.798 33.8479 156.559 35.7124 157.367 37.6228Z" fill="#79B62C"/>
<path d="M89.3096 16.6515C89.3096 17.8792 89.2936 19.1218 89.3256 20.3445C89.3416 20.8106 89.2008 20.9973 88.7357 20.9344C88.5241 20.9111 88.3106 20.9111 88.099 20.9344C87.7726 20.9653 87.6997 20.8256 87.6997 20.5352C87.7157 17.9101 87.7157 15.2692 87.6997 12.6432C87.6997 12.3327 87.7926 12.2549 88.099 12.2439C89.3266 12.182 89.3266 12.1661 89.3266 13.4087C89.3097 14.4767 89.3096 15.5646 89.3096 16.6515Z" fill="#24386E"/>
<path d="M77.875 16.6196C77.875 17.8782 77.8591 19.1358 77.891 20.3944C77.907 20.8296 77.7662 21.0472 77.3321 20.9224C76.9748 20.8136 76.291 21.2957 76.2761 20.5651C76.2292 17.9092 76.2601 15.2522 76.2451 12.5963C76.2451 12.3168 76.323 12.208 76.6024 12.223C76.8401 12.2463 77.0794 12.2463 77.3171 12.223C77.7672 12.1611 77.876 12.3318 77.876 12.7669C77.8601 14.0565 77.875 15.346 77.875 16.6196Z" fill="#24386E"/>
<path d="M173.041 31.3477C173.787 30.2288 174.564 29.3126 175.993 29.2816C176.397 29.2578 176.803 29.3051 177.191 29.4214C177.517 29.5302 177.69 29.6699 177.564 30.0432C177.455 30.3845 177.237 30.3845 176.958 30.3227C176.49 30.1733 175.991 30.1435 175.508 30.236C175.026 30.3285 174.574 30.5404 174.194 30.8524C173.814 31.1644 173.518 31.5665 173.333 32.0221C173.149 32.4777 173.081 32.9722 173.136 33.4607V38.2297C173.136 38.571 173.198 38.8824 172.655 38.8824C172.156 38.8824 172.205 38.6029 172.205 38.2766V30.0123C172.205 29.7797 172.065 29.4533 172.516 29.4373C172.935 29.4214 173.043 29.6549 173.028 30.0272C173.041 30.4624 173.041 30.9125 173.041 31.3477Z" fill="#79B62C"/>
<path d="M108.617 24.6985C108.637 25.1754 108.47 25.6414 108.15 25.9961C107.831 26.3507 107.385 26.5658 106.908 26.5949C106.73 26.5933 106.554 26.5552 106.391 26.483C106.228 26.4108 106.082 26.306 105.961 26.1751C105.84 26.0442 105.748 25.8899 105.689 25.7218C105.63 25.5537 105.606 25.3752 105.619 25.1975C105.609 24.9599 105.647 24.7227 105.729 24.4997C105.812 24.2766 105.937 24.0719 106.099 23.8974C106.261 23.7229 106.455 23.5819 106.671 23.4825C106.887 23.3831 107.121 23.3272 107.358 23.3181C107.536 23.311 107.713 23.3429 107.877 23.4115C108.042 23.4802 108.189 23.5839 108.309 23.7154C108.429 23.8469 108.518 24.003 108.572 24.1728C108.625 24.3427 108.64 24.5221 108.617 24.6985Z" fill="#24386E"/>
<path d="M89.5111 9.86248C89.4979 10.1259 89.3809 10.3733 89.1859 10.5508C88.9908 10.7283 88.7335 10.8213 88.47 10.8097C88.2726 10.8009 88.0821 10.7338 87.9229 10.6167C87.7637 10.4996 87.6428 10.3379 87.5756 10.152C87.5084 9.96611 87.4979 9.76447 87.5454 9.57261C87.5929 9.38076 87.6963 9.20732 87.8425 9.07431C87.9887 8.94129 88.171 8.85467 88.3665 8.82543C88.562 8.7962 88.7618 8.82566 88.9405 8.91007C89.1192 8.99449 89.2688 9.13007 89.3704 9.29962C89.472 9.46918 89.521 9.66508 89.5111 9.86248Z" fill="#24386E"/>
<path d="M78.078 9.86248C78.0648 10.1259 77.9479 10.3733 77.7528 10.5508C77.5578 10.7283 77.3004 10.8213 77.0369 10.8097C76.8395 10.8009 76.6491 10.7338 76.4899 10.6167C76.3306 10.4996 76.2097 10.3379 76.1425 10.152C76.0753 9.96611 76.0648 9.76447 76.1123 9.57261C76.1598 9.38076 76.2632 9.20732 76.4094 9.07431C76.5556 8.94129 76.738 8.85467 76.9335 8.82543C77.129 8.7962 77.3287 8.82566 77.5074 8.91007C77.6861 8.99449 77.8358 9.13007 77.9373 9.29962C78.0389 9.46918 78.0879 9.66508 78.078 9.86248Z" fill="#24386E"/>
<path d="M134.593 38.09C134.599 38.2077 134.579 38.3252 134.537 38.4349C134.494 38.5447 134.429 38.6444 134.346 38.7277C134.262 38.811 134.163 38.876 134.053 38.9187C133.943 38.9613 133.826 38.9806 133.708 38.9754C133.596 38.9835 133.483 38.9675 133.378 38.9282C133.272 38.889 133.177 38.8275 133.097 38.7479C133.018 38.6684 132.956 38.5726 132.917 38.4672C132.878 38.3618 132.861 38.2491 132.87 38.1369C132.861 38.0244 132.875 37.9112 132.912 37.8042C132.948 37.6973 133.006 37.5989 133.081 37.5149C133.157 37.4309 133.248 37.3631 133.351 37.3156C133.453 37.2681 133.564 37.242 133.677 37.2386C133.794 37.2291 133.912 37.244 134.024 37.2826C134.135 37.3211 134.237 37.3824 134.323 37.4625C134.409 37.5426 134.478 37.6397 134.524 37.7478C134.571 37.8558 134.594 37.9724 134.593 38.09Z" fill="#79B62C"/>
<path d="M158.967 38.1049C158.968 37.988 158.992 37.8725 159.038 37.765C159.084 37.6575 159.151 37.5603 159.235 37.4791C159.319 37.3978 159.418 37.3341 159.527 37.2917C159.636 37.2494 159.752 37.2291 159.869 37.2322C159.986 37.2354 160.101 37.2618 160.207 37.3099C160.314 37.3581 160.41 37.427 160.489 37.5126C160.569 37.5982 160.63 37.6989 160.671 37.8086C160.711 37.9184 160.729 38.035 160.723 38.1518C160.722 38.2659 160.697 38.3786 160.65 38.4828C160.603 38.587 160.536 38.6805 160.452 38.7577C160.368 38.8348 160.269 38.8939 160.161 38.9313C160.053 38.9687 159.939 38.9837 159.825 38.9752C159.278 38.9912 158.998 38.6488 158.967 38.1049Z" fill="#79B62C"/>
<path d="M26.7982 7.37728C26.7982 8.86845 26.7982 8.86845 25.369 9.0551C22.0623 9.38976 18.988 10.9079 16.7121 13.3299C14.4362 15.7519 13.112 18.9146 12.9834 22.2357C12.8549 25.5567 13.9306 28.8124 16.0124 31.4031C18.0943 33.9937 21.0421 35.745 24.313 36.3343C24.9448 36.4451 25.5828 36.5177 26.2233 36.5519C26.6735 36.5678 26.8452 36.7076 26.8132 37.1737C26.7666 37.8356 26.7666 38.5 26.8132 39.1619C26.8442 39.628 26.6885 39.7678 26.2233 39.7518C23.2564 39.6844 20.3651 38.8029 17.8652 37.2036C12.0712 33.4288 9.33642 28.054 9.84945 21.1871C10.1912 17.3645 11.8231 13.772 14.4769 10.9997C17.1308 8.22737 20.6487 6.44028 24.4527 5.93203C25.0745 5.8392 25.6804 5.85418 26.3012 5.77632C26.6585 5.72941 26.8452 5.83821 26.8142 6.22647C26.7857 6.6094 26.7803 6.99371 26.7982 7.37728Z" fill="#FDFDFD"/>
<path d="M16.0637 22.7409C16.0724 20.1488 17.0218 17.648 18.7356 15.7033C19.0929 15.2841 19.3415 15.2372 19.7148 15.6873C20.143 16.1699 20.5996 16.6266 21.0822 17.0547C21.4235 17.3652 21.4235 17.5538 21.1131 17.9091C19.9284 19.2467 19.2666 20.9673 19.2495 22.754C19.2325 24.5408 19.8613 26.2737 21.0203 27.6337C22.3039 29.1463 24.1345 30.0888 26.1114 30.2547C28.0884 30.4206 30.0505 29.7965 31.5682 28.519C32.0344 28.1197 32.2669 28.1457 32.6242 28.5809C33.0524 29.0634 33.509 29.5201 33.9916 29.9483C34.349 30.2587 34.2711 30.4613 33.9607 30.7248C32.5563 32.0324 30.8184 32.9274 28.9382 33.3111C27.058 33.6948 25.1084 33.5524 23.3039 32.8997C21.4612 32.325 19.8183 31.2415 18.5646 29.7739C17.3108 28.3062 16.4972 26.5143 16.2174 24.6044C16.1053 23.9898 16.0538 23.3656 16.0637 22.7409Z" fill="#FDFDFD"/>
<path d="M26.5968 14.7733C26.912 14.7716 27.2243 14.833 27.5154 14.9538C27.8065 15.0746 28.0705 15.2523 28.2919 15.4766C28.5133 15.7009 28.6877 15.9672 28.8047 16.2599C28.9217 16.5525 28.979 16.8656 28.9733 17.1807C28.9754 17.5016 28.9138 17.8198 28.7919 18.1167C28.6701 18.4136 28.4905 18.6834 28.2636 18.9103C28.0366 19.1373 27.7669 19.3169 27.4699 19.4387C27.173 19.5605 26.8549 19.6222 26.5339 19.6201C25.8982 19.6028 25.2935 19.3414 24.8452 18.8902C24.397 18.439 24.1396 17.8325 24.1265 17.1967C24.1244 16.8738 24.1872 16.5539 24.3112 16.2558C24.4352 15.9578 24.6178 15.6877 24.8483 15.4616C25.0787 15.2356 25.3523 15.0581 25.6526 14.9399C25.953 14.8216 26.2741 14.765 26.5968 14.7733Z" fill="#FDFDFD"/>
<path d="M34.798 22.9746C34.8094 23.2899 34.7565 23.6043 34.6424 23.8985C34.5284 24.1927 34.3556 24.4606 34.1347 24.6859C33.9137 24.9112 33.6492 25.0891 33.3572 25.2087C33.0652 25.3284 32.752 25.3874 32.4365 25.382C32.1148 25.3927 31.7942 25.3387 31.4937 25.2233C31.1933 25.1078 30.919 24.9332 30.6873 24.7098C30.4555 24.4865 30.271 24.2188 30.1445 23.9228C30.0181 23.6268 29.9523 23.3084 29.9512 22.9866C29.9597 22.3484 30.213 21.7378 30.6588 21.2811C31.1046 20.8243 31.7088 20.5562 32.3466 20.5322C32.668 20.5316 32.9863 20.5942 33.2834 20.7166C33.5805 20.839 33.8506 21.0188 34.0783 21.2456C34.3059 21.4724 34.4866 21.7418 34.6101 22.0385C34.7336 22.3352 34.7974 22.6533 34.798 22.9746Z" fill="#FDFDFD"/>
</g>
</g>
</g>
<defs>
<clipPath id="clip0_2542_1167">
<rect width="189" height="45" fill="white"/>
</clipPath>
<clipPath id="clip1_2542_1167">
<rect width="189" height="45" fill="white"/>
</clipPath>
<clipPath id="clip2_2542_1167">
<rect width="189" height="44.5065" fill="white" transform="translate(0 0.246826)"/>
</clipPath>
</defs>
</svg>
