<svg width="91" height="84" viewBox="0 0 91 84" fill="none" xmlns="http://www.w3.org/2000/svg">
<path d="M82.0474 56.0691C80.0514 60.2728 77.3599 64.0833 74.0332 67.3797C70.7066 70.6761 65.9283 74.0632 61.0593 76.1197C56.0391 78.2366 50.6862 79.3254 45.1822 79.3254C39.6781 79.3254 34.3252 78.2366 29.305 76.1197C24.436 74.0632 20.0811 71.1297 16.3311 67.3797C13.0045 64.053 10.3129 60.2425 8.31692 56.0691H4.08301C10.8875 72.037 26.7344 83.2266 45.1822 83.2266C63.6299 83.2266 79.4768 72.037 86.2813 56.0691H82.0474Z" fill="#312A74"/>
<path d="M78.6303 56.0691C76.8762 59.426 74.6081 62.5107 71.8863 65.2325C68.4084 68.7103 64.3862 71.4321 59.8801 73.3374C55.2228 75.3031 50.2933 76.3011 45.1824 76.3011C40.0715 76.3011 35.142 75.3031 30.4847 73.3374C25.9786 71.4321 21.9564 68.7103 18.4785 65.2325C15.7567 62.5107 13.4886 59.426 11.7345 56.0691H9.98047C16.4221 68.9825 29.7589 77.8435 45.1824 77.8435C60.6059 77.8435 73.9427 68.9825 80.3843 56.0691H78.6303Z" fill="#312A74"/>
<path d="M18.4474 2.78244C8.31628 10.3732 1.51179 22.1677 0.634766 35.565H4.50576C4.83843 31.1194 5.86667 26.7948 7.59047 22.6818C9.64694 17.8128 12.5804 13.4579 16.3305 9.70791C17.6006 8.43773 18.9313 7.25829 20.3527 6.16957L18.4474 2.7522V2.78244Z" fill="#312A74"/>
<path d="M71.916 2.78235L70.0107 6.19971C71.4321 7.28843 72.7628 8.46788 74.033 9.73806C77.783 13.4881 80.7165 17.843 82.7729 22.712C84.4968 26.8249 85.5552 31.1495 85.8577 35.5951H89.7287C88.8516 22.1978 82.0471 10.4034 71.916 2.81259V2.78235Z" fill="#312A74"/>
<path d="M21.0791 7.50012C12.5508 14.1232 6.83506 24.1636 5.98828 35.5649H7.56088C7.8633 31.5427 8.83105 27.6112 10.4036 23.8914C12.3089 19.3853 15.0307 15.3631 18.5086 11.8852C19.567 10.8268 20.7162 9.82877 21.8654 8.89127L21.1094 7.53037L21.0791 7.50012Z" fill="#312A74"/>
<path d="M69.2854 7.49997L68.5293 8.86087C69.7087 9.79837 70.8277 10.7964 71.8862 11.8548C75.364 15.3327 78.0858 19.3549 79.9911 23.861C81.5637 27.5808 82.5314 31.5123 82.8339 35.5345H84.4065C83.5294 24.1332 77.8136 14.0928 69.3156 7.46973L69.2854 7.49997Z" fill="#312A74"/>
<path d="M45.0616 24.345L58.5799 0H53.1363L51.0496 4.20367H33.7812L36.2611 8.58879H48.9024L46.9971 12.4296H38.741L45.0616 24.345Z" fill="#312A74"/>
<path d="M12.5811 28.0952H15.0307V29.0024H13.5186V29.9097H15.0307V30.817H13.5186V33.0247H12.5811V28.0952ZM15.7565 29.3654H16.694V31.1194C16.694 31.4521 16.694 31.694 16.7545 31.8452C16.815 31.9662 16.8754 32.0872 16.9964 32.1476C17.0871 32.2081 17.2384 32.2686 17.3896 32.2686C17.5408 32.2686 17.6617 32.2384 17.7827 32.1476C17.9037 32.0872 17.9642 31.9662 18.0247 31.815C18.0549 31.7242 18.0851 31.4823 18.0851 31.1496V29.3654H18.9924V30.9077C18.9924 31.5428 18.9319 31.9662 18.8412 32.2081C18.7202 32.4803 18.5388 32.7222 18.2968 32.8735C18.0549 33.0247 17.7525 33.1154 17.3896 33.1154C17.0267 33.1154 16.6637 33.0247 16.4218 32.8432C16.1799 32.6618 15.9984 32.4198 15.9077 32.0872C15.8472 31.8755 15.7867 31.4521 15.7867 30.8775V29.3654H15.7565ZM19.8694 29.3654H20.7767V29.7283C20.9884 29.5468 21.1698 29.4258 21.3513 29.3654C21.5327 29.3049 21.684 29.2746 21.8654 29.2746C22.2283 29.2746 22.5307 29.3956 22.8029 29.6678C23.0146 29.8795 23.1356 30.2121 23.1356 30.6053V33.0247H22.2283V31.4218C22.2283 30.9984 22.2283 30.696 22.1678 30.5448C22.1376 30.3936 22.0469 30.3029 21.9561 30.2121C21.8654 30.1516 21.7444 30.0912 21.5932 30.0912C21.442 30.0912 21.2606 30.1517 21.1094 30.2726C20.9884 30.3936 20.8977 30.575 20.8372 30.7867C20.8372 30.9077 20.8069 31.1496 20.8069 31.5428V32.9944H19.8997V29.3351L19.8694 29.3654ZM26.7042 27.944H27.6114V32.9944H26.7042V32.6013C26.5227 32.7827 26.3413 32.9037 26.1598 32.9642C25.9784 33.0247 25.7969 33.0851 25.5852 33.0851C25.1013 33.0851 24.7082 32.9037 24.3453 32.5408C24.0126 32.1779 23.8312 31.7242 23.8312 31.1799C23.8312 30.6355 23.9824 30.1516 24.3453 29.7887C24.6779 29.4258 25.0711 29.2444 25.555 29.2444C26.0388 29.2444 25.9784 29.2746 26.1598 29.3654C26.3413 29.4561 26.5227 29.5771 26.7042 29.7283V27.9137V27.944ZM25.7364 30.1214C25.4642 30.1214 25.2223 30.2121 25.0408 30.4238C24.8594 30.6355 24.7687 30.8775 24.7687 31.1799C24.7687 31.4823 24.8594 31.7545 25.0408 31.9662C25.2223 32.1779 25.4642 32.2686 25.7364 32.2686C26.0086 32.2686 26.2505 32.1779 26.4622 31.9662C26.6437 31.7545 26.7344 31.5125 26.7344 31.1799C26.7344 30.8472 26.6437 30.6053 26.4622 30.4238C26.2808 30.2121 26.0388 30.1214 25.7364 30.1214ZM31.2405 29.3654H32.1478V33.0247H31.2405V32.6315C31.059 32.813 30.8776 32.9339 30.6961 32.9944C30.5147 33.0549 30.3332 33.1154 30.1215 33.1154C29.6377 33.1154 29.2445 32.9339 28.8816 32.571C28.5489 32.2081 28.3675 31.7545 28.3675 31.2101C28.3675 30.6658 28.5187 30.1819 28.8816 29.819C29.2143 29.4561 29.6074 29.2746 30.0913 29.2746C30.5752 29.2746 30.5147 29.3049 30.6961 29.3956C30.8776 29.4863 31.059 29.6073 31.2405 29.7585V29.3654ZM30.303 30.1214C30.0308 30.1214 29.7889 30.2121 29.6074 30.4238C29.426 30.6355 29.3352 30.8775 29.3352 31.1799C29.3352 31.4823 29.426 31.7545 29.6074 31.9662C29.7889 32.1779 30.0308 32.2686 30.303 32.2686C30.5752 32.2686 30.8171 32.1779 31.0288 31.9662C31.2103 31.7545 31.301 31.5125 31.301 31.1799C31.301 30.8472 31.2103 30.6053 31.0288 30.4238C30.8473 30.2121 30.6054 30.1214 30.303 30.1214ZM36.6841 30.0912L35.928 30.5146C35.7768 30.3633 35.6559 30.2726 35.5046 30.2121C35.3534 30.1516 35.2022 30.1214 35.0208 30.1214C34.6881 30.1214 34.3857 30.2121 34.174 30.4238C33.9623 30.6355 33.8716 30.8775 33.8716 31.2101C33.8716 31.5428 33.9623 31.7847 34.174 31.9662C34.3857 32.1476 34.6579 32.2686 34.9905 32.2686C35.3232 32.2686 35.7163 32.1174 35.9583 31.8452L36.6841 32.3291C36.2909 32.8432 35.7466 33.0851 35.0208 33.0851C34.295 33.0851 33.8716 32.9037 33.5087 32.5105C33.1458 32.1174 32.9643 31.694 32.9643 31.1799C32.9643 30.6658 33.055 30.5146 33.2365 30.2121C33.4179 29.9097 33.6599 29.6678 33.9623 29.5166C34.295 29.3351 34.6276 29.2746 35.0208 29.2746C35.4139 29.2746 35.7163 29.3351 35.9885 29.4863C36.2909 29.6375 36.5026 29.8492 36.6841 30.0912ZM34.5369 32.9642H35.1115V33.1154C35.2325 33.1456 35.3534 33.2061 35.4139 33.2968C35.5047 33.3876 35.5349 33.5085 35.5349 33.6295C35.5349 33.811 35.4744 33.9622 35.2929 34.0831C35.1417 34.2041 34.93 34.2646 34.6579 34.2646C34.3857 34.2646 34.2042 34.2041 33.9018 34.1134L34.0228 33.69C34.174 33.7505 34.3554 33.7807 34.5067 33.7807C34.6579 33.7807 34.7183 33.7807 34.7486 33.7202C34.8091 33.69 34.8393 33.6295 34.8393 33.5388C34.8393 33.448 34.8393 33.448 34.7788 33.3876C34.7486 33.3573 34.6579 33.3271 34.5671 33.3271H34.3857L34.5067 32.9339L34.5369 32.9642ZM40.1922 29.3654H41.0995V33.0247H40.1922V32.6315C40.0107 32.813 39.8293 32.9339 39.6478 32.9944C39.4664 33.0549 39.2849 33.1154 39.0732 33.1154C38.5893 33.1154 38.1962 32.9339 37.8333 32.571C37.5006 32.2081 37.3192 31.7545 37.3192 31.2101C37.3192 30.6658 37.5006 30.1819 37.8333 29.819C38.166 29.4561 38.5591 29.2746 39.043 29.2746C39.5269 29.2746 39.4664 29.3049 39.6478 29.3956C39.8293 29.4863 40.0107 29.6073 40.1922 29.7585V29.3654ZM39.2244 30.1214C38.9523 30.1214 38.7103 30.2121 38.5289 30.4238C38.3474 30.6355 38.2567 30.8775 38.2567 31.1799C38.2567 31.4823 38.3474 31.7545 38.5289 31.9662C38.7103 32.1779 38.9523 32.2686 39.2244 32.2686C39.4966 32.2686 39.7386 32.1779 39.9503 31.9662C40.1317 31.7545 40.2224 31.5125 40.2224 31.1799C40.2224 30.8472 40.1317 30.6053 39.9503 30.4238C39.7688 30.2121 39.5269 30.1214 39.2244 30.1214ZM38.2869 28.7L37.924 28.1557C38.1962 27.944 38.4986 27.823 38.801 27.823C39.1035 27.823 39.1035 27.8532 39.3756 27.944C39.5571 28.0045 39.7083 28.0045 39.799 28.0045C39.9805 28.0045 40.1922 27.944 40.3736 27.823L40.7365 28.3371C40.4644 28.5791 40.1922 28.7 39.92 28.7C39.6478 28.7 39.6176 28.7 39.4059 28.6093C39.2547 28.5488 39.1337 28.5488 39.1035 28.5186C39.043 28.5186 38.9825 28.5186 38.8918 28.5186C38.6801 28.5186 38.4986 28.5791 38.2869 28.7ZM43.7608 29.2746C44.0934 29.2746 44.4261 29.3654 44.7285 29.5468C45.0309 29.7283 45.2729 29.94 45.4241 30.2424C45.6055 30.5448 45.666 30.8472 45.666 31.2101C45.666 31.573 45.5753 31.8755 45.4241 32.1779C45.2426 32.4803 45.0309 32.7222 44.7285 32.8735C44.4261 33.0549 44.0934 33.1154 43.7608 33.1154C43.2466 33.1154 42.793 32.9339 42.4301 32.571C42.0672 32.2081 41.8858 31.7545 41.8858 31.2101C41.8858 30.6658 42.0975 30.1516 42.5208 29.7887C42.8837 29.4561 43.3071 29.3049 43.791 29.3049M43.7608 30.1214C43.4886 30.1214 43.2467 30.2121 43.0652 30.4238C42.8837 30.6355 42.793 30.8775 42.793 31.1799C42.793 31.4823 42.8837 31.7545 43.0652 31.9359C43.2467 32.1476 43.4886 32.2384 43.7608 32.2384C44.0329 32.2384 44.2749 32.1476 44.4866 31.9359C44.668 31.7242 44.7588 31.4823 44.7588 31.1799C44.7588 30.8775 44.668 30.6053 44.4866 30.4238C44.3051 30.2424 44.0632 30.1214 43.7608 30.1214ZM48.0854 28.0952H49.0532L50.2931 31.6033L51.5633 28.0952H52.531L50.7467 33.0247H49.8395L48.0854 28.0952ZM55.8879 29.3654H56.7952V33.0247H55.8879V32.6315C55.7064 32.813 55.525 32.9339 55.3435 32.9944C55.1621 33.0549 54.9806 33.1154 54.7689 33.1154C54.2851 33.1154 53.8919 32.9339 53.529 32.571C53.1963 32.2081 53.0149 31.7545 53.0149 31.2101C53.0149 30.6658 53.1661 30.1819 53.529 29.819C53.8617 29.4561 54.2548 29.2746 54.7387 29.2746C55.2226 29.2746 55.1621 29.3049 55.3435 29.3956C55.525 29.4863 55.7064 29.6073 55.8879 29.7585V29.3654ZM54.9202 30.1214C54.648 30.1214 54.406 30.2121 54.2246 30.4238C54.0431 30.6355 53.9524 30.8775 53.9524 31.1799C53.9524 31.4823 54.0431 31.7545 54.2246 31.9662C54.406 32.1779 54.648 32.2686 54.9202 32.2686C55.1923 32.2686 55.4343 32.1779 55.646 31.9662C55.8274 31.7545 55.9181 31.5125 55.9181 31.1799C55.9181 30.8472 55.8274 30.6053 55.646 30.4238C55.4645 30.2121 55.2226 30.1214 54.9202 30.1214ZM57.7327 29.3654H58.6399V29.7283C58.8516 29.5468 59.0331 29.4258 59.2145 29.3654C59.396 29.3049 59.5472 29.2746 59.7287 29.2746C60.0916 29.2746 60.394 29.3956 60.6662 29.6678C60.8779 29.8795 60.9988 30.2121 60.9988 30.6053V33.0247H60.0916V31.4218C60.0916 30.9984 60.0916 30.696 60.0311 30.5448C60.0008 30.3936 59.9101 30.3029 59.8194 30.2121C59.7287 30.1516 59.6077 30.0912 59.4565 30.0912C59.3053 30.0912 59.1238 30.1517 58.9726 30.2726C58.8516 30.3936 58.7609 30.575 58.7004 30.7867C58.7004 30.9077 58.6702 31.1496 58.6702 31.5428V32.9944H57.7629V29.3351L57.7327 29.3654ZM61.6944 29.3654H64.5069L62.8738 32.2384H64.4162V33.0247H61.4525L63.1158 30.1517H61.7246V29.3654H61.6944ZM66.7448 29.2746C67.0775 29.2746 67.4102 29.3654 67.7126 29.5468C68.015 29.7283 68.257 29.94 68.4082 30.2424C68.5896 30.5448 68.6501 30.8472 68.6501 31.2101C68.6501 31.573 68.5594 31.8755 68.4082 32.1779C68.2267 32.4803 68.015 32.7222 67.7126 32.8735C67.4102 33.0549 67.0775 33.1154 66.7448 33.1154C66.2307 33.1154 65.7771 32.9339 65.4142 32.571C65.0513 32.2081 64.8698 31.7545 64.8698 31.2101C64.8698 30.6658 65.0815 30.1516 65.5049 29.7887C65.8678 29.4561 66.2912 29.3049 66.7751 29.3049M66.7448 30.1214C66.4727 30.1214 66.2307 30.2121 66.0493 30.4238C65.8678 30.6355 65.7771 30.8775 65.7771 31.1799C65.7771 31.4823 65.8678 31.7545 66.0493 31.9359C66.2307 32.1476 66.4727 32.2384 66.7448 32.2384C67.017 32.2384 67.259 32.1476 67.4707 31.9359C67.6521 31.7242 67.7428 31.4823 67.7428 31.1799C67.7428 30.8775 67.6521 30.6053 67.4707 30.4238C67.2892 30.2424 67.0473 30.1214 66.7448 30.1214ZM69.3154 27.944H70.2227V32.9944H69.3154V27.944ZM71.4324 27.8532C71.5836 27.8532 71.7348 27.9137 71.8558 28.0347C71.9768 28.1557 72.0372 28.3069 72.0372 28.4581C72.0372 28.6093 71.9768 28.7605 71.8558 28.8815C71.7348 29.0024 71.6138 29.0629 71.4324 29.0629C71.2509 29.0629 71.13 29.0024 71.009 28.8815C70.888 28.7605 70.8275 28.6093 70.8275 28.4581C70.8275 28.3069 70.888 28.1557 71.009 28.0347C71.13 27.9137 71.2509 27.8532 71.4324 27.8532ZM70.9788 29.3654H71.886V33.0247H70.9788V29.3654ZM72.7328 29.3654H73.6401V29.7283C73.8518 29.5468 74.0332 29.4258 74.2147 29.3654C74.3961 29.3049 74.5473 29.2746 74.7288 29.2746C75.0917 29.2746 75.3941 29.3956 75.6663 29.6678C75.878 29.8795 75.999 30.2121 75.999 30.6053V33.0247H75.0917V31.4218C75.0917 30.9984 75.0917 30.696 75.0312 30.5448C75.001 30.3936 74.9102 30.3029 74.8195 30.2121C74.7288 30.1516 74.6078 30.0912 74.4566 30.0912C74.3054 30.0912 74.124 30.1517 73.9727 30.2726C73.8518 30.3936 73.761 30.575 73.7006 30.7867C73.7006 30.9077 73.6703 31.1496 73.6703 31.5428V32.9944H72.7631V29.3351L72.7328 29.3654ZM77.2087 27.8532C77.3599 27.8532 77.5111 27.9137 77.632 28.0347C77.753 28.1557 77.8135 28.3069 77.8135 28.4581C77.8135 28.6093 77.753 28.7605 77.632 28.8815C77.5111 29.0024 77.3901 29.0629 77.2087 29.0629C77.0272 29.0629 76.9062 29.0024 76.7853 28.8815C76.6643 28.7605 76.6038 28.6093 76.6038 28.4581C76.6038 28.3069 76.6643 28.1557 76.7853 28.0347C76.9062 27.9137 77.0272 27.8532 77.2087 27.8532ZM76.755 29.3654H77.6623V33.0247H76.755V29.3654Z" fill="#312A74"/>
<path d="M90.3637 38.4379H0V53.1658H90.3637V38.4379Z" fill="#312A74"/>
<path d="M27.8638 56.2362V56.7334C27.7585 56.6608 27.5589 56.5555 27.3521 56.5555C27.0255 56.5555 27.0001 56.7769 27.0001 56.8313C27.0001 56.9475 27.069 57.0418 27.2251 57.1289C27.5662 57.3213 27.6352 57.3576 27.744 57.4664C27.8311 57.5499 27.94 57.7205 27.94 57.9455C27.94 58.3773 27.5698 58.6749 27.0581 58.6749C26.8767 58.6749 26.7097 58.6422 26.423 58.5443V57.9854C26.5864 58.116 26.8005 58.2176 27.0073 58.2176C27.2831 58.2176 27.3666 58.0434 27.3666 57.9382C27.3666 57.8656 27.3485 57.7749 27.1634 57.6733C26.7896 57.4664 26.7388 57.4374 26.619 57.314C26.4775 57.1688 26.423 57.0164 26.423 56.8531C26.423 56.4176 26.8041 56.1019 27.2541 56.1019C27.4646 56.1019 27.6751 56.1418 27.8638 56.2362ZM28.4136 56.1309H28.9943V58.6459H28.4136V56.1309ZM30.9152 56.2362V56.7334C30.8099 56.6608 30.6103 56.5555 30.4035 56.5555C30.0769 56.5555 30.0515 56.7769 30.0515 56.8313C30.0515 56.9475 30.1204 57.0418 30.2765 57.1289C30.6176 57.3213 30.6865 57.3576 30.7954 57.4664C30.8825 57.5499 30.9914 57.7205 30.9914 57.9455C30.9914 58.3773 30.6212 58.6749 30.1095 58.6749C29.9281 58.6749 29.7611 58.6422 29.4744 58.5443V57.9854C29.6377 58.116 29.8519 58.2176 30.0587 58.2176C30.3345 58.2176 30.418 58.0434 30.418 57.9382C30.418 57.8656 30.3999 57.7749 30.2148 57.6733C29.841 57.4664 29.7902 57.4374 29.6704 57.314C29.5289 57.1688 29.4744 57.0164 29.4744 56.8531C29.4744 56.4176 29.8555 56.1019 30.3055 56.1019C30.516 56.1019 30.7265 56.1418 30.9152 56.2362ZM31.1239 56.1309H33.4538V56.5628H32.5792V58.6459H31.9985V56.5628H31.1239V56.1309ZM33.8067 56.1309H35.3962V56.5628H34.3873V57.1289H35.3563V57.5608H34.3873V58.214H35.4144V58.6459H33.8067V56.1309ZM35.9296 56.1309H36.4449L37.2142 57.1035L37.9872 56.1309H38.5062V58.6459H37.9255V57.0745L37.2614 57.9128H37.1743L36.5102 57.0745V58.6459H35.9296V56.1309ZM39.8404 56.1309H40.4791L41.5533 58.6459H40.94L40.7332 58.1414H39.659L39.4739 58.6459H38.8678L39.8404 56.1309ZM39.8078 57.7422H40.5662L40.167 56.7696L39.8078 57.7422ZM42.9183 56.1309H43.7276C44.3954 56.1309 44.6385 56.2797 44.8345 56.483C44.9651 56.6172 45.1865 56.9003 45.1865 57.3975C45.1865 58.018 44.8309 58.3628 44.497 58.508C44.3155 58.5878 44.0506 58.6459 43.7276 58.6459H42.9183V56.1309ZM43.499 56.5773V58.2068C43.8038 58.2068 44.0071 58.1959 44.1667 58.1197C44.5079 57.9564 44.5877 57.608 44.5877 57.3902C44.5877 57.0854 44.4425 56.8096 44.1994 56.6753C44.0397 56.5882 43.8474 56.5773 43.499 56.5773ZM45.6579 56.1309H47.2474V56.5628H46.2385V57.1289H47.2075V57.5608H46.2385V58.214H47.2655V58.6459H45.6579V56.1309ZM50.8232 56.2434V56.7442C50.5946 56.6354 50.3442 56.5773 50.0901 56.5773C49.5784 56.5773 49.2083 56.893 49.2083 57.383C49.2083 57.7822 49.4623 58.185 50.1228 58.185C50.199 58.185 50.2571 58.1814 50.3115 58.1741V57.7676H50.0539V57.3358H50.8922V58.5878C50.6853 58.6277 50.3914 58.6749 50.0539 58.6749C48.9688 58.6749 48.6022 57.9963 48.6022 57.4011C48.6022 56.7225 49.0813 56.1019 50.0539 56.1019C50.3297 56.1019 50.5655 56.1418 50.8232 56.2434ZM51.4807 56.1309H53.0702V56.5628H52.0613V57.1289H53.0303V57.5608H52.0613V58.214H53.0883V58.6459H51.4807V56.1309ZM54.8302 56.2362V56.7334C54.7249 56.6608 54.5253 56.5555 54.3185 56.5555C53.9918 56.5555 53.9664 56.7769 53.9664 56.8313C53.9664 56.9475 54.0354 57.0418 54.1914 57.1289C54.5326 57.3213 54.6015 57.3576 54.7104 57.4664C54.7975 57.5499 54.9064 57.7205 54.9064 57.9455C54.9064 58.3773 54.5362 58.6749 54.0245 58.6749C53.843 58.6749 53.6761 58.6422 53.3894 58.5443V57.9854C53.5527 58.116 53.7668 58.2176 53.9737 58.2176C54.2495 58.2176 54.333 58.0434 54.333 57.9382C54.333 57.8656 54.3148 57.7749 54.1297 57.6733C53.7559 57.4664 53.7051 57.4374 53.5854 57.314C53.4438 57.1688 53.3894 57.0164 53.3894 56.8531C53.3894 56.4176 53.7705 56.1019 54.2205 56.1019C54.431 56.1019 54.6414 56.1418 54.8302 56.2362ZM55.0389 56.1309H57.3687V56.5628H56.4941V58.6459H55.9135V56.5628H55.0389V56.1309ZM58.2232 56.1309H58.8619L59.9361 58.6459H59.3228L59.1159 58.1414H58.0417L57.8567 58.6459H57.2506L58.2232 56.1309ZM58.1905 57.7422H58.949L58.5498 56.7696L58.1905 57.7422ZM58.1288 55.9132H57.8893C57.8966 55.8261 57.9183 55.6918 57.98 55.5793C58.0417 55.4632 58.147 55.3725 58.3212 55.3725C58.4337 55.3725 58.5063 55.4087 58.6514 55.4813C58.793 55.5539 58.8401 55.5684 58.8946 55.5684C59.018 55.5684 59.0361 55.4523 59.0506 55.3725H59.301C59.2829 55.6555 59.1704 55.9204 58.8764 55.9204C58.7639 55.9204 58.6115 55.8442 58.5607 55.8188C58.4192 55.7426 58.3684 55.7172 58.2921 55.7172C58.1615 55.7172 58.1397 55.8515 58.1288 55.9132ZM61.3311 56.1019C62.2674 56.1019 62.6811 56.8023 62.6811 57.383C62.6811 57.9745 62.2638 58.6749 61.3601 58.6749C60.4747 58.6749 60.021 58.0108 60.021 57.3866C60.021 56.7987 60.4529 56.1019 61.3311 56.1019ZM61.3638 56.5773C60.8303 56.5773 60.6198 57.0201 60.6198 57.3975C60.6198 57.8039 60.8739 58.1922 61.3493 58.1922C61.7775 58.1922 62.0823 57.8656 62.0823 57.3793C62.0823 56.8967 61.7775 56.5773 61.3638 56.5773Z" fill="#312A74"/>
<path d="M34.7803 60.7372V61.2489C34.5952 61.1509 34.392 61.0529 34.1017 61.0529C33.5065 61.0529 33.2307 61.4593 33.2307 61.8658C33.2307 62.3267 33.5864 62.6606 34.0944 62.6606C34.3739 62.6606 34.5771 62.5771 34.871 62.4138V62.9364C34.5807 63.0743 34.392 63.1505 34.0255 63.1505C32.9694 63.1505 32.6247 62.4319 32.6247 61.8658C32.6247 61.1255 33.2053 60.5775 34.0364 60.5775C34.3739 60.5775 34.5952 60.6573 34.7803 60.7372ZM35.2373 60.6065H36.8268V61.0384H35.8179V61.6045H36.7869V62.0364H35.8179V62.6896H36.845V63.1215H35.2373V60.6065ZM37.3638 60.6065H38.2965C38.409 60.6065 38.6194 60.6065 38.8045 60.7154C39.0549 60.8642 39.1457 61.1327 39.1457 61.3251C39.1457 61.4956 39.0803 61.6589 38.9715 61.7751C38.8844 61.8658 38.7936 61.9057 38.7356 61.9348C38.9315 62.0872 38.9969 62.1997 39.1239 62.4682C39.3344 62.9146 39.3561 62.9618 39.4396 63.1215H38.7936L38.5396 62.588C38.3364 62.1598 38.2711 62.0727 37.9444 62.0763V63.1215H37.3638V60.6065ZM37.9444 61.0275V61.6553H38.0787C38.2638 61.6553 38.5469 61.6553 38.5469 61.3432C38.5469 61.0239 38.2348 61.0275 38.1477 61.0275H37.9444ZM39.2562 60.6065H41.5861V61.0384H40.7115V63.1215H40.1308V61.0384H39.2562V60.6065ZM41.9789 60.6065H42.5596V63.1215H41.9789V60.6065ZM43.2538 60.6065H44.7527V61.0384H43.8345V61.6335H44.7527V62.0654H43.8345V63.1215H43.2538V60.6065ZM45.1969 60.6065H45.7776V63.1215H45.1969V60.6065ZM48.446 60.7372V61.2489C48.2609 61.1509 48.0577 61.0529 47.7674 61.0529C47.1722 61.0529 46.8964 61.4593 46.8964 61.8658C46.8964 62.3267 47.2521 62.6606 47.7601 62.6606C48.0396 62.6606 48.2428 62.5771 48.5367 62.4138V62.9364C48.2464 63.0743 48.0577 63.1505 47.6912 63.1505C46.6351 63.1505 46.2904 62.4319 46.2904 61.8658C46.2904 61.1255 46.871 60.5775 47.7021 60.5775C48.0396 60.5775 48.2609 60.6573 48.446 60.7372ZM49.5853 60.6065H50.224L51.2982 63.1215H50.6849L50.478 62.617H49.4038L49.2187 63.1215H48.6127L49.5853 60.6065ZM49.5526 62.2178H50.3111L49.9119 61.2452L49.5526 62.2178ZM51.6602 60.6065H52.4695C53.1373 60.6065 53.3804 60.7553 53.5764 60.9585C53.707 61.0928 53.9284 61.3759 53.9284 61.8731C53.9284 62.4936 53.5728 62.8384 53.2389 62.9836C53.0574 63.0634 52.7925 63.1215 52.4695 63.1215H51.6602V60.6065ZM52.2409 61.0529V62.6823C52.5457 62.6823 52.749 62.6715 52.9086 62.5952C53.2498 62.4319 53.3296 62.0835 53.3296 61.8658C53.3296 61.561 53.1844 61.2852 52.9413 61.1509C52.7816 61.0638 52.5893 61.0529 52.2409 61.0529ZM55.5284 60.5775C56.4647 60.5775 56.8784 61.2779 56.8784 61.8585C56.8784 62.4501 56.4611 63.1505 55.5574 63.1505C54.6719 63.1505 54.2183 62.4864 54.2183 61.8622C54.2183 61.2743 54.6502 60.5775 55.5284 60.5775ZM55.5611 61.0529C55.0276 61.0529 54.8171 61.4956 54.8171 61.8731C54.8171 62.2795 55.0711 62.6678 55.5465 62.6678C55.9748 62.6678 56.2796 62.3412 56.2796 61.8549C56.2796 61.3723 55.9748 61.0529 55.5611 61.0529Z" fill="#312A74"/>
<path d="M28.8594 42.543V48H27.5V42.543H28.8594ZM33.8203 42.8945V43.9609C33.0964 43.6354 32.5195 43.4727 32.0898 43.4727C31.8451 43.4727 31.6497 43.5143 31.5039 43.5977C31.3607 43.6784 31.2891 43.7865 31.2891 43.9219C31.2891 44.026 31.3411 44.125 31.4453 44.2188C31.5495 44.3125 31.8034 44.4336 32.207 44.582C32.6107 44.7305 32.9336 44.8685 33.1758 44.9961C33.418 45.1237 33.6263 45.3034 33.8008 45.5352C33.9779 45.7669 34.0664 46.0599 34.0664 46.4141C34.0664 46.9193 33.8737 47.3216 33.4883 47.6211C33.1055 47.9206 32.6003 48.0703 31.9727 48.0703C31.2956 48.0703 30.6393 47.8945 30.0039 47.543V46.3672C30.3685 46.612 30.6914 46.7904 30.9727 46.9023C31.2539 47.0143 31.5521 47.0703 31.8672 47.0703C32.401 47.0703 32.668 46.9023 32.668 46.5664C32.668 46.4518 32.6146 46.3438 32.5078 46.2422C32.401 46.1406 32.1432 46.0169 31.7344 45.8711C31.3281 45.7253 31.0052 45.5898 30.7656 45.4648C30.5286 45.3398 30.3229 45.1615 30.1484 44.9297C29.9766 44.6979 29.8906 44.401 29.8906 44.0391C29.8906 43.5703 30.0794 43.1927 30.457 42.9062C30.8346 42.6172 31.3398 42.4727 31.9727 42.4727C32.556 42.4727 33.1719 42.6133 33.8203 42.8945ZM37.8477 42.4727C38.7773 42.4727 39.5299 42.7539 40.1055 43.3164C40.681 43.8763 40.9688 44.5286 40.9688 45.2734C40.9688 46.0286 40.6771 46.6836 40.0938 47.2383C39.5104 47.793 38.7617 48.0703 37.8477 48.0703C36.9232 48.0703 36.1706 47.7943 35.5898 47.2422C35.0091 46.6901 34.7188 46.0339 34.7188 45.2734C34.7188 44.526 35.0065 43.8724 35.582 43.3125C36.1602 42.7526 36.9154 42.4727 37.8477 42.4727ZM37.8477 46.9375C38.3633 46.9375 38.7786 46.7852 39.0938 46.4805C39.4089 46.1732 39.5664 45.7708 39.5664 45.2734C39.5664 44.7734 39.4089 44.3711 39.0938 44.0664C38.7786 43.7617 38.3633 43.6094 37.8477 43.6094C37.3294 43.6094 36.9115 43.7617 36.5938 44.0664C36.2786 44.3711 36.1211 44.7734 36.1211 45.2734C36.1211 45.7708 36.2786 46.1732 36.5938 46.4805C36.9115 46.7852 37.3294 46.9375 37.8477 46.9375ZM44.5703 48.0703L45.8281 46.0234C45.7031 46.0573 45.5794 46.0742 45.457 46.0742C45.0508 46.0742 44.7005 45.9076 44.4062 45.5742C44.1146 45.2383 43.9688 44.8333 43.9688 44.3594C43.9688 43.8255 44.1432 43.3776 44.4922 43.0156C44.8411 42.6536 45.2721 42.4727 45.7852 42.4727C46.3008 42.4727 46.7292 42.6536 47.0703 43.0156C47.4141 43.3776 47.5859 43.8307 47.5859 44.375C47.5859 45.0208 47.3464 45.7331 46.8672 46.5117L45.9062 48.0703H44.5703ZM45.7617 45.1445C45.9362 45.1445 46.0807 45.0677 46.1953 44.9141C46.3125 44.7604 46.3711 44.5651 46.3711 44.3281C46.3711 44.0703 46.3164 43.8672 46.207 43.7188C46.0977 43.5703 45.9492 43.4961 45.7617 43.4961C45.582 43.4961 45.4323 43.5742 45.3125 43.7305C45.1953 43.8841 45.1367 44.0807 45.1367 44.3203C45.1367 44.5651 45.194 44.7643 45.3086 44.918C45.4258 45.069 45.5768 45.1445 45.7617 45.1445ZM50.1992 42.4727C50.7773 42.4727 51.2279 42.7214 51.5508 43.2188C51.8763 43.7161 52.0391 44.3919 52.0391 45.2461C52.0391 46.1341 51.8815 46.8268 51.5664 47.3242C51.2513 47.8216 50.8008 48.0703 50.2148 48.0703C49.6211 48.0703 49.1589 47.8229 48.8281 47.3281C48.5 46.8333 48.3359 46.1484 48.3359 45.2734C48.3359 44.388 48.5026 43.7005 48.8359 43.2109C49.1719 42.7188 49.6263 42.4727 50.1992 42.4727ZM50.1992 47.0469C50.418 47.0469 50.5768 46.9154 50.6758 46.6523C50.7747 46.3867 50.8242 45.8893 50.8242 45.1602C50.8242 44.5534 50.7747 44.125 50.6758 43.875C50.5794 43.6224 50.418 43.4961 50.1914 43.4961C49.9701 43.4961 49.8073 43.6198 49.7031 43.8672C49.6016 44.112 49.5508 44.599 49.5508 45.3281C49.5508 45.9401 49.6016 46.3802 49.7031 46.6484C49.8073 46.9141 49.9727 47.0469 50.1992 47.0469ZM54.6133 42.4727C55.1914 42.4727 55.6419 42.7214 55.9648 43.2188C56.2904 43.7161 56.4531 44.3919 56.4531 45.2461C56.4531 46.1341 56.2956 46.8268 55.9805 47.3242C55.6654 47.8216 55.2148 48.0703 54.6289 48.0703C54.0352 48.0703 53.5729 47.8229 53.2422 47.3281C52.9141 46.8333 52.75 46.1484 52.75 45.2734C52.75 44.388 52.9167 43.7005 53.25 43.2109C53.5859 42.7188 54.0404 42.4727 54.6133 42.4727ZM54.6133 47.0469C54.832 47.0469 54.9909 46.9154 55.0898 46.6523C55.1888 46.3867 55.2383 45.8893 55.2383 45.1602C55.2383 44.5534 55.1888 44.125 55.0898 43.875C54.9935 43.6224 54.832 43.4961 54.6055 43.4961C54.3841 43.4961 54.2214 43.6198 54.1172 43.8672C54.0156 44.112 53.9648 44.599 53.9648 45.3281C53.9648 45.9401 54.0156 46.3802 54.1172 46.6484C54.2214 46.9141 54.3867 47.0469 54.6133 47.0469ZM59.6055 42.543V48H58.3984V42.543H59.6055Z" fill="white"/>
</svg>
