<svg width="91" height="84" viewBox="0 0 91 84" fill="none" xmlns="http://www.w3.org/2000/svg">
<path d="M82.0474 56.0691C80.0514 60.2728 77.3599 64.0833 74.0332 67.3797C70.7066 70.6761 65.9283 74.0632 61.0593 76.1197C56.0391 78.2366 50.6862 79.3254 45.1822 79.3254C39.6781 79.3254 34.3252 78.2366 29.305 76.1197C24.436 74.0632 20.0811 71.1297 16.3311 67.3797C13.0045 64.053 10.3129 60.2425 8.31692 56.0691H4.08301C10.8875 72.037 26.7344 83.2266 45.1822 83.2266C63.6299 83.2266 79.4768 72.037 86.2813 56.0691H82.0474Z" fill="#FDFDFF"/>
<path d="M78.6298 56.0691C76.8757 59.426 74.6076 62.5107 71.8858 65.2325C68.4079 68.7103 64.3857 71.4321 59.8796 73.3374C55.2223 75.3031 50.2928 76.3011 45.1819 76.3011C40.071 76.3011 35.1415 75.3031 30.4842 73.3374C25.9781 71.4321 21.9559 68.7103 18.478 65.2325C15.7562 62.5107 13.4881 59.426 11.734 56.0691H9.97998C16.4216 68.9825 29.7584 77.8435 45.1819 77.8435C60.6054 77.8435 73.9423 68.9825 80.3839 56.0691H78.6298Z" fill="#FDFDFF"/>
<path d="M18.4474 2.78244C8.31628 10.3732 1.51179 22.1677 0.634766 35.565H4.50576C4.83843 31.1194 5.86667 26.7948 7.59047 22.6818C9.64694 17.8128 12.5804 13.4579 16.3305 9.70791C17.6006 8.43773 18.9313 7.25829 20.3527 6.16957L18.4474 2.7522V2.78244Z" fill="white"/>
<path d="M71.916 2.78235L70.0107 6.19971C71.4321 7.28843 72.7628 8.46788 74.033 9.73806C77.783 13.4881 80.7165 17.843 82.7729 22.712C84.4968 26.8249 85.5552 31.1495 85.8577 35.5951H89.7287C88.8516 22.1978 82.0471 10.4034 71.916 2.81259V2.78235Z" fill="#FDFDFF"/>
<path d="M21.0787 7.50012C12.5504 14.1232 6.83457 24.1636 5.98779 35.5649H7.56039C7.86281 31.5427 8.83056 27.6112 10.4032 23.8914C12.3084 19.3853 15.0302 15.3631 18.5081 11.8852C19.5665 10.8268 20.7157 9.82877 21.865 8.89127L21.1089 7.53037L21.0787 7.50012Z" fill="white"/>
<path d="M69.2844 7.49997L68.5283 8.86087C69.7078 9.79837 70.8267 10.7964 71.8852 11.8548C75.3631 15.3327 78.0848 19.3549 79.9901 23.861C81.5627 27.5808 82.5305 31.5123 82.8329 35.5345H84.4055C83.5285 24.1332 77.8127 14.0928 69.3146 7.46973L69.2844 7.49997Z" fill="white"/>
<path d="M45.0616 24.345L58.5799 0H53.1363L51.0496 4.20367H33.7812L36.2611 8.58879H48.9024L46.9971 12.4296H38.741L45.0616 24.345Z" fill="white"/>
<path d="M12.5811 28.0952H15.0307V29.0024H13.5186V29.9097H15.0307V30.817H13.5186V33.0247H12.5811V28.0952ZM15.7565 29.3654H16.694V31.1194C16.694 31.4521 16.694 31.694 16.7545 31.8452C16.815 31.9662 16.8754 32.0872 16.9964 32.1476C17.0871 32.2081 17.2384 32.2686 17.3896 32.2686C17.5408 32.2686 17.6617 32.2384 17.7827 32.1476C17.9037 32.0872 17.9642 31.9662 18.0247 31.815C18.0549 31.7242 18.0851 31.4823 18.0851 31.1496V29.3654H18.9924V30.9077C18.9924 31.5428 18.9319 31.9662 18.8412 32.2081C18.7202 32.4803 18.5388 32.7222 18.2968 32.8735C18.0549 33.0247 17.7525 33.1154 17.3896 33.1154C17.0267 33.1154 16.6637 33.0247 16.4218 32.8432C16.1799 32.6618 15.9984 32.4198 15.9077 32.0872C15.8472 31.8755 15.7867 31.4521 15.7867 30.8775V29.3654H15.7565ZM19.8694 29.3654H20.7767V29.7283C20.9884 29.5468 21.1698 29.4258 21.3513 29.3654C21.5327 29.3049 21.684 29.2746 21.8654 29.2746C22.2283 29.2746 22.5307 29.3956 22.8029 29.6678C23.0146 29.8795 23.1356 30.2121 23.1356 30.6053V33.0247H22.2283V31.4218C22.2283 30.9984 22.2283 30.696 22.1678 30.5448C22.1376 30.3936 22.0469 30.3029 21.9561 30.2121C21.8654 30.1516 21.7444 30.0912 21.5932 30.0912C21.442 30.0912 21.2606 30.1517 21.1094 30.2726C20.9884 30.3936 20.8977 30.575 20.8372 30.7867C20.8372 30.9077 20.8069 31.1496 20.8069 31.5428V32.9944H19.8997V29.3351L19.8694 29.3654ZM26.7042 27.944H27.6114V32.9944H26.7042V32.6013C26.5227 32.7827 26.3413 32.9037 26.1598 32.9642C25.9784 33.0247 25.7969 33.0851 25.5852 33.0851C25.1013 33.0851 24.7082 32.9037 24.3453 32.5408C24.0126 32.1779 23.8312 31.7242 23.8312 31.1799C23.8312 30.6355 23.9824 30.1516 24.3453 29.7887C24.6779 29.4258 25.0711 29.2444 25.555 29.2444C26.0388 29.2444 25.9784 29.2746 26.1598 29.3654C26.3413 29.4561 26.5227 29.5771 26.7042 29.7283V27.9137V27.944ZM25.7364 30.1214C25.4642 30.1214 25.2223 30.2121 25.0408 30.4238C24.8594 30.6355 24.7687 30.8775 24.7687 31.1799C24.7687 31.4823 24.8594 31.7545 25.0408 31.9662C25.2223 32.1779 25.4642 32.2686 25.7364 32.2686C26.0086 32.2686 26.2505 32.1779 26.4622 31.9662C26.6437 31.7545 26.7344 31.5125 26.7344 31.1799C26.7344 30.8472 26.6437 30.6053 26.4622 30.4238C26.2808 30.2121 26.0388 30.1214 25.7364 30.1214ZM31.2405 29.3654H32.1478V33.0247H31.2405V32.6315C31.059 32.813 30.8776 32.9339 30.6961 32.9944C30.5147 33.0549 30.3332 33.1154 30.1215 33.1154C29.6377 33.1154 29.2445 32.9339 28.8816 32.571C28.5489 32.2081 28.3675 31.7545 28.3675 31.2101C28.3675 30.6658 28.5187 30.1819 28.8816 29.819C29.2143 29.4561 29.6074 29.2746 30.0913 29.2746C30.5752 29.2746 30.5147 29.3049 30.6961 29.3956C30.8776 29.4863 31.059 29.6073 31.2405 29.7585V29.3654ZM30.303 30.1214C30.0308 30.1214 29.7889 30.2121 29.6074 30.4238C29.426 30.6355 29.3352 30.8775 29.3352 31.1799C29.3352 31.4823 29.426 31.7545 29.6074 31.9662C29.7889 32.1779 30.0308 32.2686 30.303 32.2686C30.5752 32.2686 30.8171 32.1779 31.0288 31.9662C31.2103 31.7545 31.301 31.5125 31.301 31.1799C31.301 30.8472 31.2103 30.6053 31.0288 30.4238C30.8473 30.2121 30.6054 30.1214 30.303 30.1214ZM36.6841 30.0912L35.928 30.5146C35.7768 30.3633 35.6559 30.2726 35.5046 30.2121C35.3534 30.1516 35.2022 30.1214 35.0208 30.1214C34.6881 30.1214 34.3857 30.2121 34.174 30.4238C33.9623 30.6355 33.8716 30.8775 33.8716 31.2101C33.8716 31.5428 33.9623 31.7847 34.174 31.9662C34.3857 32.1476 34.6579 32.2686 34.9905 32.2686C35.3232 32.2686 35.7163 32.1174 35.9583 31.8452L36.6841 32.3291C36.2909 32.8432 35.7466 33.0851 35.0208 33.0851C34.295 33.0851 33.8716 32.9037 33.5087 32.5105C33.1458 32.1174 32.9643 31.694 32.9643 31.1799C32.9643 30.6658 33.055 30.5146 33.2365 30.2121C33.4179 29.9097 33.6599 29.6678 33.9623 29.5166C34.295 29.3351 34.6276 29.2746 35.0208 29.2746C35.4139 29.2746 35.7163 29.3351 35.9885 29.4863C36.2909 29.6375 36.5026 29.8492 36.6841 30.0912ZM34.5369 32.9642H35.1115V33.1154C35.2325 33.1456 35.3534 33.2061 35.4139 33.2968C35.5047 33.3876 35.5349 33.5085 35.5349 33.6295C35.5349 33.811 35.4744 33.9622 35.2929 34.0831C35.1417 34.2041 34.93 34.2646 34.6579 34.2646C34.3857 34.2646 34.2042 34.2041 33.9018 34.1134L34.0228 33.69C34.174 33.7505 34.3554 33.7807 34.5067 33.7807C34.6579 33.7807 34.7183 33.7807 34.7486 33.7202C34.8091 33.69 34.8393 33.6295 34.8393 33.5388C34.8393 33.448 34.8393 33.448 34.7788 33.3876C34.7486 33.3573 34.6579 33.3271 34.5671 33.3271H34.3857L34.5067 32.9339L34.5369 32.9642ZM40.1922 29.3654H41.0995V33.0247H40.1922V32.6315C40.0107 32.813 39.8293 32.9339 39.6478 32.9944C39.4664 33.0549 39.2849 33.1154 39.0732 33.1154C38.5893 33.1154 38.1962 32.9339 37.8333 32.571C37.5006 32.2081 37.3192 31.7545 37.3192 31.2101C37.3192 30.6658 37.5006 30.1819 37.8333 29.819C38.166 29.4561 38.5591 29.2746 39.043 29.2746C39.5269 29.2746 39.4664 29.3049 39.6478 29.3956C39.8293 29.4863 40.0107 29.6073 40.1922 29.7585V29.3654ZM39.2244 30.1214C38.9523 30.1214 38.7103 30.2121 38.5289 30.4238C38.3474 30.6355 38.2567 30.8775 38.2567 31.1799C38.2567 31.4823 38.3474 31.7545 38.5289 31.9662C38.7103 32.1779 38.9523 32.2686 39.2244 32.2686C39.4966 32.2686 39.7386 32.1779 39.9503 31.9662C40.1317 31.7545 40.2224 31.5125 40.2224 31.1799C40.2224 30.8472 40.1317 30.6053 39.9503 30.4238C39.7688 30.2121 39.5269 30.1214 39.2244 30.1214ZM38.2869 28.7L37.924 28.1557C38.1962 27.944 38.4986 27.823 38.801 27.823C39.1035 27.823 39.1035 27.8532 39.3756 27.944C39.5571 28.0045 39.7083 28.0045 39.799 28.0045C39.9805 28.0045 40.1922 27.944 40.3736 27.823L40.7365 28.3371C40.4644 28.5791 40.1922 28.7 39.92 28.7C39.6478 28.7 39.6176 28.7 39.4059 28.6093C39.2547 28.5488 39.1337 28.5488 39.1035 28.5186C39.043 28.5186 38.9825 28.5186 38.8918 28.5186C38.6801 28.5186 38.4986 28.5791 38.2869 28.7ZM43.7608 29.2746C44.0934 29.2746 44.4261 29.3654 44.7285 29.5468C45.0309 29.7283 45.2729 29.94 45.4241 30.2424C45.6055 30.5448 45.666 30.8472 45.666 31.2101C45.666 31.573 45.5753 31.8755 45.4241 32.1779C45.2426 32.4803 45.0309 32.7222 44.7285 32.8735C44.4261 33.0549 44.0934 33.1154 43.7608 33.1154C43.2466 33.1154 42.793 32.9339 42.4301 32.571C42.0672 32.2081 41.8858 31.7545 41.8858 31.2101C41.8858 30.6658 42.0975 30.1516 42.5208 29.7887C42.8837 29.4561 43.3071 29.3049 43.791 29.3049M43.7608 30.1214C43.4886 30.1214 43.2467 30.2121 43.0652 30.4238C42.8837 30.6355 42.793 30.8775 42.793 31.1799C42.793 31.4823 42.8837 31.7545 43.0652 31.9359C43.2467 32.1476 43.4886 32.2384 43.7608 32.2384C44.0329 32.2384 44.2749 32.1476 44.4866 31.9359C44.668 31.7242 44.7588 31.4823 44.7588 31.1799C44.7588 30.8775 44.668 30.6053 44.4866 30.4238C44.3051 30.2424 44.0632 30.1214 43.7608 30.1214ZM48.0854 28.0952H49.0532L50.2931 31.6033L51.5633 28.0952H52.531L50.7467 33.0247H49.8395L48.0854 28.0952ZM55.8879 29.3654H56.7952V33.0247H55.8879V32.6315C55.7064 32.813 55.525 32.9339 55.3435 32.9944C55.1621 33.0549 54.9806 33.1154 54.7689 33.1154C54.2851 33.1154 53.8919 32.9339 53.529 32.571C53.1963 32.2081 53.0149 31.7545 53.0149 31.2101C53.0149 30.6658 53.1661 30.1819 53.529 29.819C53.8617 29.4561 54.2548 29.2746 54.7387 29.2746C55.2226 29.2746 55.1621 29.3049 55.3435 29.3956C55.525 29.4863 55.7064 29.6073 55.8879 29.7585V29.3654ZM54.9202 30.1214C54.648 30.1214 54.406 30.2121 54.2246 30.4238C54.0431 30.6355 53.9524 30.8775 53.9524 31.1799C53.9524 31.4823 54.0431 31.7545 54.2246 31.9662C54.406 32.1779 54.648 32.2686 54.9202 32.2686C55.1923 32.2686 55.4343 32.1779 55.646 31.9662C55.8274 31.7545 55.9181 31.5125 55.9181 31.1799C55.9181 30.8472 55.8274 30.6053 55.646 30.4238C55.4645 30.2121 55.2226 30.1214 54.9202 30.1214ZM57.7327 29.3654H58.6399V29.7283C58.8516 29.5468 59.0331 29.4258 59.2145 29.3654C59.396 29.3049 59.5472 29.2746 59.7287 29.2746C60.0916 29.2746 60.394 29.3956 60.6662 29.6678C60.8779 29.8795 60.9988 30.2121 60.9988 30.6053V33.0247H60.0916V31.4218C60.0916 30.9984 60.0916 30.696 60.0311 30.5448C60.0008 30.3936 59.9101 30.3029 59.8194 30.2121C59.7287 30.1516 59.6077 30.0912 59.4565 30.0912C59.3053 30.0912 59.1238 30.1517 58.9726 30.2726C58.8516 30.3936 58.7609 30.575 58.7004 30.7867C58.7004 30.9077 58.6702 31.1496 58.6702 31.5428V32.9944H57.7629V29.3351L57.7327 29.3654ZM61.6944 29.3654H64.5069L62.8738 32.2384H64.4162V33.0247H61.4525L63.1158 30.1517H61.7246V29.3654H61.6944ZM66.7448 29.2746C67.0775 29.2746 67.4102 29.3654 67.7126 29.5468C68.015 29.7283 68.257 29.94 68.4082 30.2424C68.5896 30.5448 68.6501 30.8472 68.6501 31.2101C68.6501 31.573 68.5594 31.8755 68.4082 32.1779C68.2267 32.4803 68.015 32.7222 67.7126 32.8735C67.4102 33.0549 67.0775 33.1154 66.7448 33.1154C66.2307 33.1154 65.7771 32.9339 65.4142 32.571C65.0513 32.2081 64.8698 31.7545 64.8698 31.2101C64.8698 30.6658 65.0815 30.1516 65.5049 29.7887C65.8678 29.4561 66.2912 29.3049 66.7751 29.3049M66.7448 30.1214C66.4727 30.1214 66.2307 30.2121 66.0493 30.4238C65.8678 30.6355 65.7771 30.8775 65.7771 31.1799C65.7771 31.4823 65.8678 31.7545 66.0493 31.9359C66.2307 32.1476 66.4727 32.2384 66.7448 32.2384C67.017 32.2384 67.259 32.1476 67.4707 31.9359C67.6521 31.7242 67.7428 31.4823 67.7428 31.1799C67.7428 30.8775 67.6521 30.6053 67.4707 30.4238C67.2892 30.2424 67.0473 30.1214 66.7448 30.1214ZM69.3154 27.944H70.2227V32.9944H69.3154V27.944ZM71.4324 27.8532C71.5836 27.8532 71.7348 27.9137 71.8558 28.0347C71.9768 28.1557 72.0372 28.3069 72.0372 28.4581C72.0372 28.6093 71.9768 28.7605 71.8558 28.8815C71.7348 29.0024 71.6138 29.0629 71.4324 29.0629C71.2509 29.0629 71.13 29.0024 71.009 28.8815C70.888 28.7605 70.8275 28.6093 70.8275 28.4581C70.8275 28.3069 70.888 28.1557 71.009 28.0347C71.13 27.9137 71.2509 27.8532 71.4324 27.8532ZM70.9788 29.3654H71.886V33.0247H70.9788V29.3654ZM72.7328 29.3654H73.6401V29.7283C73.8518 29.5468 74.0332 29.4258 74.2147 29.3654C74.3961 29.3049 74.5473 29.2746 74.7288 29.2746C75.0917 29.2746 75.3941 29.3956 75.6663 29.6678C75.878 29.8795 75.999 30.2121 75.999 30.6053V33.0247H75.0917V31.4218C75.0917 30.9984 75.0917 30.696 75.0312 30.5448C75.001 30.3936 74.9102 30.3029 74.8195 30.2121C74.7288 30.1516 74.6078 30.0912 74.4566 30.0912C74.3054 30.0912 74.124 30.1517 73.9727 30.2726C73.8518 30.3936 73.761 30.575 73.7006 30.7867C73.7006 30.9077 73.6703 31.1496 73.6703 31.5428V32.9944H72.7631V29.3351L72.7328 29.3654ZM77.2087 27.8532C77.3599 27.8532 77.5111 27.9137 77.632 28.0347C77.753 28.1557 77.8135 28.3069 77.8135 28.4581C77.8135 28.6093 77.753 28.7605 77.632 28.8815C77.5111 29.0024 77.3901 29.0629 77.2087 29.0629C77.0272 29.0629 76.9062 29.0024 76.7853 28.8815C76.6643 28.7605 76.6038 28.6093 76.6038 28.4581C76.6038 28.3069 76.6643 28.1557 76.7853 28.0347C76.9062 27.9137 77.0272 27.8532 77.2087 27.8532ZM76.755 29.3654H77.6623V33.0247H76.755V29.3654Z" fill="white"/>
<path d="M90.3637 38.4379H0V53.1658H90.3637V38.4379Z" fill="white"/>
<path d="M27.8643 56.2362V56.7334C27.759 56.6608 27.5594 56.5555 27.3526 56.5555C27.026 56.5555 27.0006 56.7769 27.0006 56.8313C27.0006 56.9475 27.0695 57.0418 27.2256 57.1289C27.5667 57.3213 27.6356 57.3576 27.7445 57.4664C27.8316 57.5499 27.9405 57.7205 27.9405 57.9455C27.9405 58.3773 27.5703 58.6749 27.0586 58.6749C26.8772 58.6749 26.7102 58.6422 26.4235 58.5443V57.9854C26.5868 58.116 26.801 58.2176 27.0078 58.2176C27.2836 58.2176 27.3671 58.0434 27.3671 57.9382C27.3671 57.8656 27.3489 57.7749 27.1639 57.6733C26.7901 57.4664 26.7393 57.4374 26.6195 57.314C26.478 57.1688 26.4235 57.0164 26.4235 56.8531C26.4235 56.4176 26.8046 56.1019 27.2546 56.1019C27.4651 56.1019 27.6756 56.1418 27.8643 56.2362ZM28.4141 56.1309H28.9948V58.6459H28.4141V56.1309ZM30.9157 56.2362V56.7334C30.8104 56.6608 30.6108 56.5555 30.404 56.5555C30.0774 56.5555 30.0519 56.7769 30.0519 56.8313C30.0519 56.9475 30.1209 57.0418 30.277 57.1289C30.6181 57.3213 30.687 57.3576 30.7959 57.4664C30.883 57.5499 30.9919 57.7205 30.9919 57.9455C30.9919 58.3773 30.6217 58.6749 30.11 58.6749C29.9286 58.6749 29.7616 58.6422 29.4749 58.5443V57.9854C29.6382 58.116 29.8524 58.2176 30.0592 58.2176C30.335 58.2176 30.4185 58.0434 30.4185 57.9382C30.4185 57.8656 30.4003 57.7749 30.2153 57.6733C29.8415 57.4664 29.7907 57.4374 29.6709 57.314C29.5294 57.1688 29.4749 57.0164 29.4749 56.8531C29.4749 56.4176 29.856 56.1019 30.306 56.1019C30.5165 56.1019 30.727 56.1418 30.9157 56.2362ZM31.1244 56.1309H33.4543V56.5628H32.5797V58.6459H31.999V56.5628H31.1244V56.1309ZM33.8072 56.1309H35.3967V56.5628H34.3878V57.1289H35.3568V57.5608H34.3878V58.214H35.4149V58.6459H33.8072V56.1309ZM35.93 56.1309H36.4454L37.2147 57.1035L37.9877 56.1309H38.5067V58.6459H37.926V57.0745L37.2619 57.9128H37.1748L36.5107 57.0745V58.6459H35.93V56.1309ZM39.8409 56.1309H40.4796L41.5538 58.6459H40.9405L40.7337 58.1414H39.6594L39.4744 58.6459H38.8683L39.8409 56.1309ZM39.8082 57.7422H40.5667L40.1675 56.7696L39.8082 57.7422ZM42.9188 56.1309H43.7281C44.3959 56.1309 44.639 56.2797 44.835 56.483C44.9656 56.6172 45.187 56.9003 45.187 57.3975C45.187 58.018 44.8313 58.3628 44.4975 58.508C44.316 58.5878 44.0511 58.6459 43.7281 58.6459H42.9188V56.1309ZM43.4995 56.5773V58.2068C43.8043 58.2068 44.0076 58.1959 44.1672 58.1197C44.5084 57.9564 44.5882 57.608 44.5882 57.3902C44.5882 57.0854 44.443 56.8096 44.1999 56.6753C44.0402 56.5882 43.8479 56.5773 43.4995 56.5773ZM45.6583 56.1309H47.2479V56.5628H46.239V57.1289H47.208V57.5608H46.239V58.214H47.266V58.6459H45.6583V56.1309ZM50.8237 56.2434V56.7442C50.5951 56.6354 50.3447 56.5773 50.0906 56.5773C49.5789 56.5773 49.2088 56.893 49.2088 57.383C49.2088 57.7822 49.4628 58.185 50.1233 58.185C50.1995 58.185 50.2576 58.1814 50.312 58.1741V57.7676H50.0543V57.3358H50.8927V58.5878C50.6858 58.6277 50.3918 58.6749 50.0543 58.6749C48.9692 58.6749 48.6027 57.9963 48.6027 57.4011C48.6027 56.7225 49.0817 56.1019 50.0543 56.1019C50.3301 56.1019 50.566 56.1418 50.8237 56.2434ZM51.4812 56.1309H53.0707V56.5628H52.0618V57.1289H53.0308V57.5608H52.0618V58.214H53.0888V58.6459H51.4812V56.1309ZM54.8306 56.2362V56.7334C54.7254 56.6608 54.5258 56.5555 54.3189 56.5555C53.9923 56.5555 53.9669 56.7769 53.9669 56.8313C53.9669 56.9475 54.0359 57.0418 54.1919 57.1289C54.5331 57.3213 54.602 57.3576 54.7109 57.4664C54.798 57.5499 54.9069 57.7205 54.9069 57.9455C54.9069 58.3773 54.5367 58.6749 54.025 58.6749C53.8435 58.6749 53.6766 58.6422 53.3899 58.5443V57.9854C53.5532 58.116 53.7673 58.2176 53.9742 58.2176C54.25 58.2176 54.3335 58.0434 54.3335 57.9382C54.3335 57.8656 54.3153 57.7749 54.1302 57.6733C53.7564 57.4664 53.7056 57.4374 53.5859 57.314C53.4443 57.1688 53.3899 57.0164 53.3899 56.8531C53.3899 56.4176 53.771 56.1019 54.221 56.1019C54.4314 56.1019 54.6419 56.1418 54.8306 56.2362ZM55.0394 56.1309H57.3692V56.5628H56.4946V58.6459H55.914V56.5628H55.0394V56.1309ZM58.2237 56.1309H58.8624L59.9366 58.6459H59.3233L59.1164 58.1414H58.0422L57.8571 58.6459H57.2511L58.2237 56.1309ZM58.191 57.7422H58.9495L58.5503 56.7696L58.191 57.7422ZM58.1293 55.9132H57.8898C57.8971 55.8261 57.9188 55.6918 57.9805 55.5793C58.0422 55.4632 58.1475 55.3725 58.3217 55.3725C58.4342 55.3725 58.5067 55.4087 58.6519 55.4813C58.7934 55.5539 58.8406 55.5684 58.8951 55.5684C59.0184 55.5684 59.0366 55.4523 59.0511 55.3725H59.3015C59.2834 55.6555 59.1709 55.9204 58.8769 55.9204C58.7644 55.9204 58.612 55.8442 58.5612 55.8188C58.4196 55.7426 58.3688 55.7172 58.2926 55.7172C58.162 55.7172 58.1402 55.8515 58.1293 55.9132ZM61.3316 56.1019C62.2679 56.1019 62.6816 56.8023 62.6816 57.383C62.6816 57.9745 62.2643 58.6749 61.3606 58.6749C60.4751 58.6749 60.0215 58.0108 60.0215 57.3866C60.0215 56.7987 60.4534 56.1019 61.3316 56.1019ZM61.3643 56.5773C60.8308 56.5773 60.6203 57.0201 60.6203 57.3975C60.6203 57.8039 60.8743 58.1922 61.3497 58.1922C61.778 58.1922 62.0828 57.8656 62.0828 57.3793C62.0828 56.8967 61.778 56.5773 61.3643 56.5773Z" fill="white"/>
<path d="M34.7803 60.7372V61.2489C34.5952 61.1509 34.392 61.0529 34.1017 61.0529C33.5065 61.0529 33.2307 61.4593 33.2307 61.8658C33.2307 62.3267 33.5864 62.6606 34.0944 62.6606C34.3739 62.6606 34.5771 62.5771 34.871 62.4138V62.9364C34.5807 63.0743 34.392 63.1505 34.0255 63.1505C32.9694 63.1505 32.6247 62.4319 32.6247 61.8658C32.6247 61.1255 33.2053 60.5775 34.0364 60.5775C34.3739 60.5775 34.5952 60.6573 34.7803 60.7372ZM35.2373 60.6065H36.8268V61.0384H35.8179V61.6045H36.7869V62.0364H35.8179V62.6896H36.845V63.1215H35.2373V60.6065ZM37.3638 60.6065H38.2965C38.409 60.6065 38.6194 60.6065 38.8045 60.7154C39.0549 60.8642 39.1457 61.1327 39.1457 61.3251C39.1457 61.4956 39.0803 61.6589 38.9715 61.7751C38.8844 61.8658 38.7936 61.9057 38.7356 61.9348C38.9315 62.0872 38.9969 62.1997 39.1239 62.4682C39.3344 62.9146 39.3561 62.9618 39.4396 63.1215H38.7936L38.5396 62.588C38.3364 62.1598 38.2711 62.0727 37.9444 62.0763V63.1215H37.3638V60.6065ZM37.9444 61.0275V61.6553H38.0787C38.2638 61.6553 38.5469 61.6553 38.5469 61.3432C38.5469 61.0239 38.2348 61.0275 38.1477 61.0275H37.9444ZM39.2562 60.6065H41.5861V61.0384H40.7115V63.1215H40.1308V61.0384H39.2562V60.6065ZM41.9789 60.6065H42.5596V63.1215H41.9789V60.6065ZM43.2538 60.6065H44.7527V61.0384H43.8345V61.6335H44.7527V62.0654H43.8345V63.1215H43.2538V60.6065ZM45.1969 60.6065H45.7776V63.1215H45.1969V60.6065ZM48.446 60.7372V61.2489C48.2609 61.1509 48.0577 61.0529 47.7674 61.0529C47.1722 61.0529 46.8964 61.4593 46.8964 61.8658C46.8964 62.3267 47.2521 62.6606 47.7601 62.6606C48.0396 62.6606 48.2428 62.5771 48.5367 62.4138V62.9364C48.2464 63.0743 48.0577 63.1505 47.6912 63.1505C46.6351 63.1505 46.2904 62.4319 46.2904 61.8658C46.2904 61.1255 46.871 60.5775 47.7021 60.5775C48.0396 60.5775 48.2609 60.6573 48.446 60.7372ZM49.5853 60.6065H50.224L51.2982 63.1215H50.6849L50.478 62.617H49.4038L49.2187 63.1215H48.6127L49.5853 60.6065ZM49.5526 62.2178H50.3111L49.9119 61.2452L49.5526 62.2178ZM51.6602 60.6065H52.4695C53.1373 60.6065 53.3804 60.7553 53.5764 60.9585C53.707 61.0928 53.9284 61.3759 53.9284 61.8731C53.9284 62.4936 53.5728 62.8384 53.2389 62.9836C53.0574 63.0634 52.7925 63.1215 52.4695 63.1215H51.6602V60.6065ZM52.2409 61.0529V62.6823C52.5457 62.6823 52.749 62.6715 52.9086 62.5952C53.2498 62.4319 53.3296 62.0835 53.3296 61.8658C53.3296 61.561 53.1844 61.2852 52.9413 61.1509C52.7816 61.0638 52.5893 61.0529 52.2409 61.0529ZM55.5284 60.5775C56.4647 60.5775 56.8784 61.2779 56.8784 61.8585C56.8784 62.4501 56.4611 63.1505 55.5574 63.1505C54.6719 63.1505 54.2183 62.4864 54.2183 61.8622C54.2183 61.2743 54.6502 60.5775 55.5284 60.5775ZM55.5611 61.0529C55.0276 61.0529 54.8171 61.4956 54.8171 61.8731C54.8171 62.2795 55.0711 62.6678 55.5465 62.6678C55.9748 62.6678 56.2796 62.3412 56.2796 61.8549C56.2796 61.3723 55.9748 61.0529 55.5611 61.0529Z" fill="white"/>
<path d="M28.8594 42.4729V47.9299H27.5V42.4729H28.8594ZM33.8203 42.8245V43.8909C33.0964 43.5653 32.5195 43.4026 32.0898 43.4026C31.8451 43.4026 31.6497 43.4443 31.5039 43.5276C31.3607 43.6083 31.2891 43.7164 31.2891 43.8518C31.2891 43.956 31.3411 44.0549 31.4453 44.1487C31.5495 44.2424 31.8034 44.3635 32.207 44.512C32.6107 44.6604 32.9336 44.7984 33.1758 44.926C33.418 45.0536 33.6263 45.2333 33.8008 45.4651C33.9779 45.6969 34.0664 45.9898 34.0664 46.344C34.0664 46.8492 33.8737 47.2515 33.4883 47.551C33.1055 47.8505 32.6003 48.0002 31.9727 48.0002C31.2956 48.0002 30.6393 47.8245 30.0039 47.4729V46.2971C30.3685 46.5419 30.6914 46.7203 30.9727 46.8323C31.2539 46.9443 31.5521 47.0002 31.8672 47.0002C32.401 47.0002 32.668 46.8323 32.668 46.4963C32.668 46.3818 32.6146 46.2737 32.5078 46.1721C32.401 46.0706 32.1432 45.9469 31.7344 45.801C31.3281 45.6552 31.0052 45.5198 30.7656 45.3948C30.5286 45.2698 30.3229 45.0914 30.1484 44.8596C29.9766 44.6278 29.8906 44.331 29.8906 43.969C29.8906 43.5002 30.0794 43.1226 30.457 42.8362C30.8346 42.5471 31.3398 42.4026 31.9727 42.4026C32.556 42.4026 33.1719 42.5432 33.8203 42.8245ZM37.8477 42.4026C38.7773 42.4026 39.5299 42.6838 40.1055 43.2463C40.681 43.8062 40.9688 44.4586 40.9688 45.2034C40.9688 45.9586 40.6771 46.6135 40.0938 47.1682C39.5104 47.7229 38.7617 48.0002 37.8477 48.0002C36.9232 48.0002 36.1706 47.7242 35.5898 47.1721C35.0091 46.62 34.7188 45.9638 34.7188 45.2034C34.7188 44.456 35.0065 43.8023 35.582 43.2424C36.1602 42.6825 36.9154 42.4026 37.8477 42.4026ZM37.8477 46.8674C38.3633 46.8674 38.7786 46.7151 39.0938 46.4104C39.4089 46.1031 39.5664 45.7008 39.5664 45.2034C39.5664 44.7034 39.4089 44.301 39.0938 43.9963C38.7786 43.6917 38.3633 43.5393 37.8477 43.5393C37.3294 43.5393 36.9115 43.6917 36.5938 43.9963C36.2786 44.301 36.1211 44.7034 36.1211 45.2034C36.1211 45.7008 36.2786 46.1031 36.5938 46.4104C36.9115 46.7151 37.3294 46.8674 37.8477 46.8674ZM44.5703 48.0002L45.8281 45.9534C45.7031 45.9872 45.5794 46.0042 45.457 46.0042C45.0508 46.0042 44.7005 45.8375 44.4062 45.5042C44.1146 45.1682 43.9688 44.7633 43.9688 44.2893C43.9688 43.7555 44.1432 43.3075 44.4922 42.9456C44.8411 42.5836 45.2721 42.4026 45.7852 42.4026C46.3008 42.4026 46.7292 42.5836 47.0703 42.9456C47.4141 43.3075 47.5859 43.7607 47.5859 44.3049C47.5859 44.9508 47.3464 45.663 46.8672 46.4417L45.9062 48.0002H44.5703ZM45.7617 45.0745C45.9362 45.0745 46.0807 44.9976 46.1953 44.844C46.3125 44.6903 46.3711 44.495 46.3711 44.2581C46.3711 44.0002 46.3164 43.7971 46.207 43.6487C46.0977 43.5002 45.9492 43.426 45.7617 43.426C45.582 43.426 45.4323 43.5042 45.3125 43.6604C45.1953 43.814 45.1367 44.0107 45.1367 44.2502C45.1367 44.495 45.194 44.6943 45.3086 44.8479C45.4258 44.9989 45.5768 45.0745 45.7617 45.0745ZM50.1992 42.4026C50.7773 42.4026 51.2279 42.6513 51.5508 43.1487C51.8763 43.6461 52.0391 44.3219 52.0391 45.176C52.0391 46.064 51.8815 46.7568 51.5664 47.2542C51.2513 47.7515 50.8008 48.0002 50.2148 48.0002C49.6211 48.0002 49.1589 47.7528 48.8281 47.2581C48.5 46.7633 48.3359 46.0784 48.3359 45.2034C48.3359 44.318 48.5026 43.6305 48.8359 43.1409C49.1719 42.6487 49.6263 42.4026 50.1992 42.4026ZM50.1992 46.9768C50.418 46.9768 50.5768 46.8453 50.6758 46.5823C50.7747 46.3167 50.8242 45.8193 50.8242 45.0901C50.8242 44.4833 50.7747 44.0549 50.6758 43.8049C50.5794 43.5523 50.418 43.426 50.1914 43.426C49.9701 43.426 49.8073 43.5497 49.7031 43.7971C49.6016 44.0419 49.5508 44.5289 49.5508 45.2581C49.5508 45.87 49.6016 46.3101 49.7031 46.5784C49.8073 46.844 49.9727 46.9768 50.1992 46.9768ZM54.6133 42.4026C55.1914 42.4026 55.6419 42.6513 55.9648 43.1487C56.2904 43.6461 56.4531 44.3219 56.4531 45.176C56.4531 46.064 56.2956 46.7568 55.9805 47.2542C55.6654 47.7515 55.2148 48.0002 54.6289 48.0002C54.0352 48.0002 53.5729 47.7528 53.2422 47.2581C52.9141 46.7633 52.75 46.0784 52.75 45.2034C52.75 44.318 52.9167 43.6305 53.25 43.1409C53.5859 42.6487 54.0404 42.4026 54.6133 42.4026ZM54.6133 46.9768C54.832 46.9768 54.9909 46.8453 55.0898 46.5823C55.1888 46.3167 55.2383 45.8193 55.2383 45.0901C55.2383 44.4833 55.1888 44.0549 55.0898 43.8049C54.9935 43.5523 54.832 43.426 54.6055 43.426C54.3841 43.426 54.2214 43.5497 54.1172 43.7971C54.0156 44.0419 53.9648 44.5289 53.9648 45.2581C53.9648 45.87 54.0156 46.3101 54.1172 46.5784C54.2214 46.844 54.3867 46.9768 54.6133 46.9768ZM59.6055 42.4729V47.9299H58.3984V42.4729H59.6055Z" fill="#312A74"/>
</svg>
