<svg width="133" height="63" viewBox="0 0 133 63" fill="none" xmlns="http://www.w3.org/2000/svg">
<g clip-path="url(#clip0_2604_8105)">
<path d="M127.891 0.436523H4.80144C2.63185 0.436523 0.873047 2.19533 0.873047 4.36492V58.4895C0.873047 60.6591 2.63185 62.4179 4.80144 62.4179H127.891C130.061 62.4179 131.82 60.6591 131.82 58.4895V4.36492C131.82 2.19533 130.061 0.436523 127.891 0.436523Z" fill="white" stroke="#61CE70" stroke-width="0.872977"/>
<path d="M23.352 49.7598C33.5973 49.7598 41.9028 41.4543 41.9028 31.2091C41.9028 20.9638 33.5973 12.6583 23.352 12.6583C13.1067 12.6583 4.80127 20.9638 4.80127 31.2091C4.80127 41.4543 13.1067 49.7598 23.352 49.7598Z" fill="#ADC73E"/>
<path d="M32.9056 28.7971L23.352 38.4435C22.0534 39.7421 19.8273 39.7421 18.5288 38.4435L16.1172 36.0319L28.0824 24.0665C29.381 22.7684 31.6071 22.7684 32.9056 24.0665C34.2969 25.365 34.2969 27.4986 32.9056 28.7971Z" fill="white"/>
<path opacity="0.5" d="M25.7641 36.0321L30.4018 31.3944L25.5786 26.5712L20.9409 31.2089L25.7641 36.0321Z" fill="url(#paint0_linear_2604_8105)"/>
<path d="M28.1754 33.6205L23.3522 38.4437C22.0537 39.7422 19.8276 39.7422 18.529 38.4437L13.7058 33.6205C12.4073 32.3219 12.4073 30.0959 13.7058 28.7973C14.4479 28.0553 15.2827 27.7772 16.1174 27.7772C16.9522 27.7772 17.787 28.0553 18.529 28.7973L20.9406 31.2089L23.3522 33.6205C24.6508 34.919 26.8769 34.919 28.1754 33.6205Z" fill="white"/>
<path fill-rule="evenodd" clip-rule="evenodd" d="M49.9868 36.3197C50.0484 35.8557 49.9999 35.5031 49.8401 35.2722C49.6791 35.0404 49.4124 34.923 49.0405 34.923H48.9165L48.5538 37.7161C48.9934 37.706 49.3264 37.5921 49.5529 37.3669C49.7825 37.1416 49.9292 36.7972 49.9868 36.3197ZM52.5547 37.8557C52.1714 38.3354 51.6389 38.7243 50.9584 39.0137L52.5547 44.2014H49.1645L48.305 39.6715L47.7192 44.2014H44.522L46.0335 32.4939H49.7105C50.9562 32.4939 51.8934 32.8169 52.5285 33.4647C53.1592 34.1111 53.4049 34.9906 53.2631 36.1024C53.1727 36.7846 52.9362 37.3717 52.5547 37.8557ZM57.5913 39.0609C57.6507 38.5991 57.6227 38.2477 57.5101 38.0133C57.3975 37.7815 57.1937 37.6667 56.9086 37.6667C56.6834 37.6667 56.4861 37.7815 56.315 38.0089C56.1483 38.2355 55.9999 38.5855 55.8711 39.0609H57.5913ZM59.5442 36.7815C60.0531 37.4616 60.2177 38.4821 60.0431 39.8483C60.0204 40.008 60.0068 40.1307 59.9911 40.2163C59.9798 40.2926 59.9632 40.3677 59.9418 40.4419H55.6935L55.6786 40.5545C55.6 41.1582 55.611 41.5903 55.71 41.854C55.8117 42.1163 56.0121 42.2503 56.315 42.2503C56.5402 42.2503 56.7297 42.1717 56.8894 42.022C57.0492 41.8723 57.1801 41.6414 57.2801 41.328H59.7244C59.4878 42.2935 59.026 43.0491 58.339 43.603C57.6542 44.1551 56.8253 44.431 55.8681 44.431C54.7362 44.431 53.9126 44.0591 53.398 43.3158C52.8799 42.5681 52.7122 41.507 52.8899 40.1307C53.0702 38.7457 53.5154 37.6711 54.2325 36.9099C54.9453 36.1438 55.8611 35.7632 56.9693 35.7632C58.1766 35.7632 59.0326 36.1024 59.5442 36.7815ZM64.6685 44.0718C64.4455 44.1944 64.2045 44.2843 63.9544 44.3419C63.679 44.4039 63.397 44.434 63.1142 44.431C62.078 44.431 61.3146 44.0482 60.8143 43.2743C60.3189 42.5026 60.1557 41.4441 60.3281 40.0971C60.5001 38.7793 60.944 37.7252 61.6594 36.9378C62.3743 36.1495 63.246 35.7632 64.2643 35.7632C64.5459 35.7632 64.8082 35.7916 65.0413 35.8409C65.2779 35.8994 65.4996 35.9762 65.7004 36.091L65.3748 38.6004C65.1923 38.476 64.9745 38.414 64.7541 38.4223C64.4525 38.4223 64.1875 38.5711 63.9715 38.8693C63.7541 39.1678 63.6109 39.5777 63.5433 40.0971C63.476 40.6174 63.5097 41.0128 63.6423 41.2752C63.7733 41.541 64.0064 41.6763 64.3364 41.6763C64.4285 41.6763 64.5323 41.6602 64.6437 41.63C64.7541 41.6017 64.8724 41.5624 64.9985 41.5096L64.6698 44.0718H64.6685ZM65.3691 44.2014L67.019 31.4271H69.9247L68.2783 44.2014H65.3691ZM74.057 40.0971C74.1325 39.5192 74.129 39.0788 74.0434 38.7793C73.9601 38.4742 73.799 38.3232 73.565 38.3232C73.3341 38.3232 73.1382 38.4742 72.9801 38.7728C72.8226 39.0722 72.7021 39.5135 72.6288 40.0971C72.5537 40.6816 72.5546 41.1185 72.6344 41.4135C72.7135 41.7064 72.8723 41.854 73.1063 41.854C73.3464 41.854 73.5436 41.7042 73.7047 41.4013C73.8688 41.0971 73.9862 40.6637 74.057 40.0971ZM74.6519 35.9906H77.5585L76.5 44.2014H73.5943L73.7104 43.2979C73.3712 43.692 73.0378 43.977 72.7056 44.1608C72.3778 44.3406 72.0299 44.431 71.6707 44.431C70.8719 44.431 70.2953 44.0525 69.9417 43.2913C69.5869 42.5323 69.4978 41.4668 69.6716 40.0971C69.8514 38.7174 70.2132 37.6519 70.7571 36.8985C71.301 36.1395 71.9793 35.7632 72.7898 35.7632C73.156 35.7632 73.4769 35.8522 73.7619 36.0312C74.0404 36.2102 74.3014 36.493 74.5367 36.8815L74.6519 35.9906ZM77.366 44.2014L78.4258 35.9906H81.2189L81.0635 37.2093C81.3956 36.7396 81.7619 36.3917 82.1582 36.1617C82.5667 35.9369 83.0268 35.8221 83.493 35.8287C83.9526 35.8287 84.3175 35.9413 84.5912 36.1709C84.8614 36.3974 85.0346 36.744 85.1115 37.2093C85.3974 36.7396 85.7308 36.3917 86.1093 36.1617C86.5082 35.9343 86.9609 35.8191 87.4201 35.8287C88.0338 35.8287 88.4755 36.0133 88.7505 36.3882C89.0241 36.7623 89.1154 37.3119 89.0215 38.0281L88.2267 44.2001H85.3153L85.9325 39.4214C85.9674 39.1669 85.9434 38.9753 85.8727 38.8527C85.8007 38.7287 85.6697 38.6702 85.4899 38.6702C85.4074 38.6689 85.3262 38.6877 85.2524 38.7248C85.1791 38.7619 85.1154 38.816 85.0674 38.8828C84.9569 39.0238 84.8827 39.2211 84.8487 39.4699L84.2398 44.2023H81.3485L81.9635 39.4223C81.9984 39.1678 81.9779 38.9766 81.9072 38.8535C81.8326 38.73 81.7021 38.6711 81.5209 38.6711C81.4367 38.6698 81.3533 38.6881 81.2774 38.7248C81.2018 38.7619 81.1359 38.816 81.0849 38.8828C80.9722 39.0238 80.898 39.2211 80.8666 39.4699L80.2581 44.2023H77.3651L77.366 44.2014ZM93.994 39.0609C94.0538 38.5991 94.0267 38.2477 93.9106 38.0133C93.798 37.7815 93.5999 37.6667 93.3126 37.6667C93.0874 37.6667 92.8906 37.7815 92.7216 38.0089C92.5527 38.2355 92.4026 38.5855 92.2734 39.0609H93.994ZM95.9495 36.7815C96.4562 37.4616 96.623 38.4821 96.4471 39.8483C96.427 40.008 96.4113 40.1307 96.3977 40.2163C96.3864 40.2966 96.365 40.3721 96.3458 40.4419H92.0975L92.0831 40.5545C92.0041 41.1582 92.0154 41.5903 92.1145 41.854C92.2158 42.1163 92.4161 42.2503 92.7225 42.2503C92.9477 42.2503 93.1337 42.1717 93.2926 42.022C93.4501 41.8723 93.5841 41.6414 93.6845 41.328H96.1306C95.8932 42.2935 95.4279 43.0491 94.7421 43.603C94.056 44.1551 93.2328 44.431 92.2699 44.431C91.1389 44.431 90.3157 44.0591 89.8011 43.3158C89.283 42.5681 89.1162 41.507 89.2943 40.1307C89.4746 38.7457 89.9181 37.6711 90.6378 36.9099C91.3476 36.1438 92.2642 35.7632 93.3746 35.7632C94.5798 35.7632 95.4379 36.1024 95.9495 36.7815Z" fill="#A4C929"/>
<path fill-rule="evenodd" clip-rule="evenodd" d="M100.737 40.1152H102.008L101.924 35.7756L100.737 40.1152ZM104.15 32.4936L105.146 44.2011H102.029L102.008 42.4792H100.119L99.6514 44.2011H96.5327L100.549 32.4936H104.15ZM111.132 38.2784C111.29 37.0484 111.323 36.2151 111.221 35.7703C111.124 35.3264 110.886 35.1056 110.494 35.1056C110.103 35.1056 109.8 35.3273 109.584 35.7791C109.37 36.2273 109.187 37.0597 109.028 38.2793C108.87 39.4914 108.841 40.3225 108.941 40.7694C109.042 41.2177 109.284 41.4443 109.678 41.4443C110.066 41.4443 110.365 41.2234 110.576 40.7808C110.788 40.3417 110.975 39.5071 111.134 38.2784H111.132ZM113.808 33.8555C114.421 34.9153 114.602 36.4168 114.351 38.357C114.205 39.4744 113.954 40.4451 113.597 41.2653C113.269 42.0475 112.788 42.7559 112.181 43.3487L113.401 44.8401L110.681 46.0911L109.663 44.4141C109.628 44.4141 109.573 44.4185 109.495 44.4255C109.439 44.429 109.383 44.4307 109.326 44.4312C107.95 44.4312 106.953 43.903 106.341 42.8432C105.722 41.7891 105.537 40.2919 105.786 38.357C106.037 36.4225 106.605 34.9223 107.496 33.8611C108.382 32.797 109.506 32.264 110.864 32.264C112.223 32.264 113.203 32.797 113.808 33.8555ZM114.759 40.0152L115.731 32.4936H118.93L117.918 40.326C117.873 40.6704 117.9 40.9227 118.001 41.085C118.1 41.2461 118.272 41.3282 118.523 41.3282C118.777 41.3282 118.978 41.2461 119.118 41.085C119.261 40.9218 119.35 40.6704 119.395 40.326L120.405 32.4936H123.617L122.647 40.0152C122.453 41.5412 121.989 42.6616 121.262 43.3692C120.533 44.0798 119.492 44.4312 118.122 44.4312C116.763 44.4312 115.813 44.0798 115.274 43.3692C114.736 42.6616 114.564 41.5412 114.759 40.0152ZM123.187 44.2011L124.693 32.4936H127.891L126.382 44.2011H123.187Z" fill="#02793E"/>
<path d="M50.9253 17.1531H52.0562L48.7991 26.1893H47.7607L44.522 17.1531H45.6346L47.7114 22.9998C47.9502 23.6716 48.1396 24.3246 48.2797 24.9592C48.4281 24.2919 48.6219 23.6262 48.8607 22.9627L50.9253 17.1531ZM56.0121 26.3128C55.0108 26.3128 54.2194 26.0081 53.6385 25.3984C53.0619 24.7881 52.7734 23.9414 52.7734 22.858C52.7734 21.7659 53.0409 20.8986 53.5769 20.2556C54.1164 19.6131 54.8397 19.2914 55.7463 19.2914C56.5952 19.2914 57.2666 19.5717 57.7611 20.1321C58.2556 20.6882 58.5027 21.4241 58.5027 22.3386V22.9876H53.8362C53.8572 23.7829 54.0566 24.3866 54.4359 24.7986C54.8192 25.2107 55.3569 25.4167 56.0492 25.4167C56.7786 25.4167 57.4996 25.2644 58.2124 24.9592V25.8741C57.8497 26.0308 57.5058 26.1417 57.1801 26.2076C56.8589 26.2779 56.4695 26.3128 56.0121 26.3128ZM55.734 20.1509C55.1897 20.1509 54.755 20.3277 54.4298 20.6821C54.1081 21.0365 53.9187 21.5271 53.8611 22.1531H57.4027C57.4027 21.5062 57.2583 21.0121 56.9702 20.6699C56.6817 20.3237 56.2696 20.1509 55.734 20.1509ZM63.3486 19.2914C63.6493 19.2914 63.9191 19.3163 64.1583 19.3656L64.016 20.3176C63.7358 20.2556 63.4887 20.2247 63.2744 20.2247C62.7262 20.2247 62.2565 20.4473 61.865 20.8925C61.4778 21.3373 61.284 21.8916 61.284 22.5551V26.1893H60.2583V19.415H61.105L61.2225 20.6699H61.2718C61.5232 20.229 61.8261 19.889 62.1805 19.6502C62.5345 19.411 62.9243 19.2914 63.3486 19.2914ZM66.4512 26.1893H65.4254V19.415H66.4512V26.1893ZM65.3385 17.5795C65.3385 17.3447 65.3966 17.1736 65.5118 17.0667C65.6271 16.9554 65.7715 16.8995 65.9444 16.8995C66.1094 16.8995 66.2512 16.9554 66.3708 17.0667C66.4904 17.1775 66.5502 17.3486 66.5502 17.5795C66.5502 17.8104 66.4904 17.9833 66.3708 18.0985C66.2512 18.2098 66.1094 18.2657 65.9444 18.2657C65.7715 18.2657 65.6271 18.2098 65.5118 18.0985C65.3966 17.9833 65.3385 17.8104 65.3385 17.5795ZM71.6803 20.2124H69.9557V26.1893H68.9295V20.2124H67.7183V19.7489L68.9295 19.3783V19.0012C68.9295 17.3364 69.6572 16.504 71.1115 16.504C71.4699 16.504 71.8902 16.576 72.3725 16.7205L72.1067 17.5424C71.7113 17.4145 71.373 17.3508 71.0932 17.3508C70.7056 17.3508 70.4193 17.4805 70.2338 17.7402C70.0483 17.9955 69.9557 18.4076 69.9557 18.9763V19.415H71.6803V20.2124ZM73.9422 26.1893H72.9164V19.415H73.9422V26.1893ZM72.83 17.5795C72.83 17.3447 72.8876 17.1736 73.0028 17.0667C73.1181 16.9554 73.2625 16.8995 73.4354 16.8995C73.6004 16.8995 73.7423 16.9554 73.8618 17.0667C73.9814 17.1775 74.0412 17.3486 74.0412 17.5795C74.0412 17.8104 73.9814 17.9833 73.8618 18.0985C73.7423 18.2098 73.6004 18.2657 73.4354 18.2657C73.2625 18.2657 73.1181 18.2098 73.0028 18.0985C72.8876 17.9833 72.83 17.8104 72.83 17.5795ZM78.8252 26.3128C77.8444 26.3128 77.084 26.0121 76.5445 25.4106C76.0089 24.8047 75.7409 23.9496 75.7409 22.8453C75.7409 21.7122 76.0129 20.8366 76.5567 20.2185C77.105 19.6005 77.8836 19.2914 78.8932 19.2914C79.2184 19.2914 79.5441 19.3268 79.8697 19.3966C80.1953 19.4665 80.4506 19.549 80.6362 19.6437L80.321 20.5154C80.094 20.4246 79.847 20.3504 79.579 20.2927C79.3114 20.2312 79.0744 20.2002 78.8684 20.2002C77.4921 20.2002 76.8038 21.078 76.8038 22.8331C76.8038 23.6655 76.971 24.3041 77.3044 24.7493C77.6427 25.1941 78.1412 25.4167 78.8003 25.4167C79.3651 25.4167 79.9439 25.2949 80.5371 25.0522V25.9605C80.084 26.1954 79.5131 26.3128 78.8252 26.3128ZM86.3162 26.1893L86.1123 25.2251H86.0626C85.7247 25.6493 85.3869 25.9378 85.049 26.0902C84.7151 26.2386 84.297 26.3128 83.7946 26.3128C83.1228 26.3128 82.5955 26.1399 82.2123 25.7938C81.833 25.4477 81.6436 24.9553 81.6436 24.3163C81.6436 22.9483 82.7374 22.2316 84.9255 22.1657L86.0752 22.1286V21.7083C86.0752 21.1766 85.9596 20.7851 85.7291 20.5337C85.5026 20.2783 85.1377 20.1509 84.6348 20.1509C84.0704 20.1509 83.4319 20.3237 82.7191 20.6699L82.4039 19.8851C82.7374 19.7035 83.1023 19.5616 83.4978 19.4586C83.8976 19.3556 84.297 19.3041 84.6968 19.3041C85.5043 19.3041 86.1019 19.4831 86.489 19.8418C86.8806 20.2002 87.0765 20.7751 87.0765 21.566V26.1893H86.3162ZM83.9984 25.466C84.637 25.466 85.1377 25.291 85.5004 24.9409C85.867 24.5904 86.0503 24.1002 86.0503 23.4699V22.858L85.0246 22.9012C84.2084 22.93 83.6191 23.0579 83.2568 23.2844C82.898 23.5066 82.7191 23.8549 82.7191 24.329C82.7191 24.6995 82.8304 24.9819 83.0525 25.1757C83.2795 25.3691 83.5947 25.466 83.9984 25.466ZM93.8072 25.2805H93.7517C93.2777 25.9688 92.5689 26.3128 91.6256 26.3128C90.7395 26.3128 90.0495 26.0099 89.5549 25.4045C89.0647 24.7986 88.8194 23.9374 88.8194 22.8209C88.8194 21.7039 89.0665 20.8366 89.561 20.2185C90.0556 19.6005 90.7435 19.2914 91.6256 19.2914C92.5444 19.2914 93.2489 19.6254 93.7391 20.2927H93.8194L93.7762 19.8048L93.7517 19.3285V16.5721H94.7775V26.1893H93.9434L93.8072 25.2805ZM91.7553 25.4538C92.4558 25.4538 92.9626 25.2643 93.2755 24.885C93.5929 24.5018 93.7517 23.8859 93.7517 23.0369V22.8209C93.7517 21.8606 93.5907 21.1766 93.2694 20.769C92.9521 20.3569 92.4432 20.1509 91.743 20.1509C91.1411 20.1509 90.6797 20.3857 90.3585 20.8554C90.0412 21.3211 89.8823 21.9802 89.8823 22.8331C89.8823 23.6982 90.0412 24.3517 90.3585 24.7925C90.6758 25.2334 91.1411 25.4538 91.7553 25.4538ZM101.125 26.1893L100.921 25.2251H100.872C100.534 25.6493 100.196 25.9378 99.8582 26.0902C99.5243 26.2386 99.1062 26.3128 98.6033 26.3128C97.932 26.3128 97.4043 26.1399 97.021 25.7938C96.6422 25.4477 96.4527 24.9553 96.4527 24.3163C96.4527 22.9483 97.5466 22.2316 99.7347 22.1657L100.884 22.1286V21.7083C100.884 21.1766 100.769 20.7851 100.538 20.5337C100.311 20.2783 99.9468 20.1509 99.444 20.1509C98.8796 20.1509 98.241 20.3237 97.5282 20.6699L97.2127 19.8851C97.5466 19.7035 97.911 19.5616 98.3069 19.4586C98.7063 19.3556 99.1061 19.3041 99.506 19.3041C100.313 19.3041 100.911 19.4831 101.298 19.8418C101.69 20.2002 101.885 20.7751 101.885 21.566V26.1893H101.125ZM98.8076 25.466C99.4462 25.466 99.9468 25.291 100.31 24.9409C100.676 24.5904 100.86 24.1002 100.86 23.4699V22.858L99.8333 22.9012C99.0175 22.93 98.4283 23.0579 98.0656 23.2844C97.7072 23.5066 97.5282 23.8549 97.5282 24.329C97.5282 24.6995 97.6391 24.9819 97.8617 25.1757C98.0883 25.3691 98.4038 25.466 98.8076 25.466ZM110.446 26.3128C110.005 26.3128 109.601 26.2325 109.234 26.0719C108.872 25.9069 108.567 25.6559 108.32 25.3176H108.245C108.295 25.7135 108.32 26.0884 108.32 26.4429V29.2303H107.294V19.415H108.128L108.27 20.3421H108.32C108.583 19.9715 108.89 19.7035 109.241 19.5389C109.591 19.3739 109.993 19.2914 110.446 19.2914C111.344 19.2914 112.036 19.5987 112.522 20.2124C113.013 20.8266 113.258 21.6878 113.258 22.796C113.258 23.9086 113.009 24.7737 112.51 25.3918C112.016 26.0059 111.327 26.3128 110.446 26.3128ZM110.297 20.1631C109.605 20.1631 109.104 20.3547 108.795 20.738C108.486 21.1212 108.328 21.731 108.32 22.5673V22.796C108.32 23.748 108.478 24.4298 108.795 24.8418C109.113 25.2499 109.622 25.4538 110.322 25.4538C110.907 25.4538 111.364 25.2168 111.694 24.7432C112.028 24.2692 112.195 23.6162 112.195 22.7838C112.195 21.9392 112.028 21.2919 111.694 20.8427C111.364 20.3896 110.899 20.1631 110.297 20.1631ZM120.904 22.796C120.904 23.9003 120.625 24.7637 120.069 25.3857C119.513 26.0038 118.745 26.3128 117.764 26.3128C117.158 26.3128 116.62 26.1709 116.151 25.8863C115.681 25.6022 115.318 25.1941 115.063 24.6624C114.808 24.1312 114.68 23.5088 114.68 22.796C114.68 21.6917 114.955 20.8327 115.508 20.2185C116.06 19.6005 116.826 19.2914 117.807 19.2914C118.755 19.2914 119.507 19.6066 120.063 20.2373C120.623 20.8676 120.904 21.7205 120.904 22.796ZM115.742 22.796C115.742 23.6611 115.916 24.3207 116.262 24.7737C116.608 25.2272 117.117 25.4538 117.788 25.4538C118.46 25.4538 118.969 25.229 119.315 24.7798C119.665 24.3268 119.841 23.6655 119.841 22.796C119.841 21.9348 119.665 21.2818 119.315 20.8366C118.969 20.3875 118.456 20.1631 117.776 20.1631C117.104 20.1631 116.598 20.3835 116.256 20.8244C115.914 21.2652 115.742 21.9226 115.742 22.796ZM125.799 19.2914C126.099 19.2914 126.37 19.3163 126.608 19.3656L126.466 20.3176C126.186 20.2556 125.939 20.2247 125.725 20.2247C125.177 20.2247 124.707 20.4473 124.316 20.8925C123.928 21.3373 123.735 21.8916 123.735 22.5551V26.1893H122.708V19.415H123.555L123.673 20.6699H123.722C123.973 20.229 124.276 19.889 124.631 19.6502C124.985 19.411 125.374 19.2914 125.799 19.2914Z" fill="#54595F"/>
</g>
<defs>
<linearGradient id="paint0_linear_2604_8105" x1="17.4625" y1="48.802" x2="25.9646" y2="30.6087" gradientUnits="userSpaceOnUse">
<stop/>
<stop offset="1" stop-opacity="0"/>
</linearGradient>
<clipPath id="clip0_2604_8105">
<rect width="132.692" height="62.8078" fill="white"/>
</clipPath>
</defs>
</svg>
