<svg width="91" height="84" viewBox="0 0 91 84" fill="none" xmlns="http://www.w3.org/2000/svg">
<path d="M82.0172 56.0789C80.0219 60.281 77.3313 64.0901 74.0059 67.3853C70.2572 71.134 65.9039 74.0664 61.0367 76.1222C56.0183 78.2383 50.6674 79.3267 45.1653 79.3267C39.6632 79.3267 34.3123 78.2383 29.2939 76.1222C24.4267 74.0664 20.0734 71.134 16.3247 67.3853C12.9993 64.0599 10.3087 60.2508 8.31343 56.0789H4.08105C10.8831 72.0409 26.7242 83.2265 45.1653 83.2265C63.6063 83.2265 79.4475 72.0409 86.2495 56.0789H82.0172Z" fill="#312A74"/>
<path d="M78.6317 56.0789C76.8783 59.4345 74.611 62.5181 71.8901 65.2389C68.4136 68.7155 64.3928 71.4363 59.8884 73.3409C55.2327 75.3059 50.3051 76.3035 45.196 76.3035C40.0869 76.3035 35.1592 75.3059 30.5036 73.3409C25.9992 71.4363 21.9784 68.7155 18.5018 65.2389C15.781 62.5181 13.5137 59.4345 11.7602 56.0789H10.0068C16.4461 68.9876 29.7781 77.8453 45.196 77.8453C60.6139 77.8453 73.9459 68.9876 80.3851 56.0789H78.6317Z" fill="#312A74"/>
<path d="M18.441 2.78108C8.31349 10.3691 1.51147 22.1593 0.634766 35.5517H4.50436C4.8369 31.1077 5.86477 26.7847 7.58795 22.6732C9.64367 17.806 12.5761 13.4527 16.3248 9.70404C17.5945 8.43432 18.9247 7.2553 20.3455 6.16698L18.441 2.75085V2.78108Z" fill="#312A74"/>
<path d="M71.9202 2.78125L70.0156 6.19738C71.4365 7.2857 72.7667 8.46472 74.0364 9.73443C77.7851 13.4831 80.7175 17.8364 82.7732 22.7036C84.4964 26.8151 85.5545 31.1381 85.8568 35.5821H89.7264C88.8497 22.1897 82.0476 10.3995 71.9202 2.81148V2.78125Z" fill="#312A74"/>
<path d="M21.102 7.49731C12.5768 14.118 6.86308 24.1547 6.0166 35.5519H7.58863C7.89094 31.5311 8.85834 27.6011 10.4304 23.8826C12.3349 19.3782 15.0557 15.3574 18.5323 11.8808C19.5904 10.8227 20.7392 9.82512 21.888 8.88795L21.1322 7.52754L21.102 7.49731Z" fill="#312A74"/>
<path d="M69.2597 7.4974L68.5039 8.8578C69.6829 9.79497 70.8015 10.7926 71.8596 11.8507C75.3362 15.3273 78.057 19.348 79.9615 23.8525C81.5336 27.5709 82.501 31.501 82.8033 35.5217H84.3753C83.4986 24.1246 77.7849 14.0878 69.2899 7.46716L69.2597 7.4974Z" fill="#312A74"/>
<path d="M45.0448 24.3361L58.5582 0H53.1166L51.0609 4.20214H33.7988L36.2778 8.58567H48.8842L46.9796 12.425H38.7265L45.0448 24.3361Z" fill="#312A74"/>
<path d="M12.5762 28.0848H15.0249V28.9918H13.5133V29.8987H15.0249V30.8056H13.5133V33.0125H12.5762V28.0848ZM15.7505 29.3545H16.6876V31.1079C16.6876 31.4405 16.6876 31.6823 16.7481 31.8335C16.8085 31.9544 16.869 32.0753 16.9899 32.1358C17.0806 32.1963 17.2318 32.2567 17.3829 32.2567C17.5341 32.2567 17.655 32.2265 17.7759 32.1358C17.8969 32.0753 17.9573 31.9544 18.0178 31.8033C18.048 31.7126 18.0782 31.4707 18.0782 31.1382V29.3545H18.9852V30.8963C18.9852 31.5312 18.9247 31.9544 18.834 32.1963C18.7131 32.4684 18.5317 32.7102 18.2899 32.8614C18.048 33.0125 17.7457 33.1032 17.3829 33.1032C17.0202 33.1032 16.6574 33.0125 16.4155 32.8311C16.1737 32.6497 15.9923 32.4079 15.9016 32.0753C15.8411 31.8637 15.7807 31.4405 15.7807 30.8661V29.3545H15.7505ZM19.8921 29.3545H20.7991V29.7173C21.0107 29.5359 21.1921 29.415 21.3735 29.3545C21.5548 29.2941 21.706 29.2638 21.8874 29.2638C22.2502 29.2638 22.5525 29.3848 22.8246 29.6569C23.0362 29.8685 23.1571 30.201 23.1571 30.594V33.0125H22.2502V31.4103C22.2502 30.987 22.2502 30.6847 22.1897 30.5336C22.1595 30.3824 22.0688 30.2917 21.9781 30.201C21.8874 30.1405 21.7665 30.0801 21.6153 30.0801C21.4642 30.0801 21.2828 30.1406 21.1316 30.2615C21.0107 30.3824 20.92 30.5638 20.8595 30.7754C20.8595 30.8963 20.8293 31.1382 20.8293 31.5312V32.9823H19.9224V29.3243L19.8921 29.3545ZM26.7244 27.9639H27.6313V33.0125H26.7244V32.6195C26.543 32.8009 26.3616 32.9218 26.1802 32.9823C25.9988 33.0427 25.8175 33.1032 25.6058 33.1032C25.1221 33.1032 24.7291 32.9218 24.3664 32.5591C24.0338 32.1963 23.8524 31.7428 23.8524 31.1986C23.8524 30.6545 24.0036 30.1708 24.3664 29.808C24.6989 29.4452 25.0919 29.2638 25.5756 29.2638C26.0593 29.2638 25.9988 29.2941 26.1802 29.3848C26.3616 29.4755 26.543 29.5964 26.7244 29.7475V27.9337V27.9639ZM25.757 30.1103C25.4849 30.1103 25.2431 30.201 25.0617 30.4126C24.8803 30.6242 24.7896 30.8661 24.7896 31.1684C24.7896 31.4707 24.8803 31.7428 25.0617 31.9544C25.2431 32.166 25.4849 32.2567 25.757 32.2567C26.0291 32.2567 26.2709 32.166 26.4825 31.9544C26.6639 31.7428 26.7546 31.501 26.7546 31.1684C26.7546 30.8359 26.6639 30.594 26.4825 30.4126C26.3011 30.201 26.0593 30.1103 25.757 30.1103ZM31.2591 29.3545H32.166V33.0125H31.2591V32.6195C31.0777 32.8009 30.8963 32.9218 30.7149 32.9823C30.5335 33.0427 30.3521 33.1032 30.1405 33.1032C29.6568 33.1032 29.2638 32.9218 28.901 32.5591C28.5685 32.1963 28.3871 31.7428 28.3871 31.1986C28.3871 30.6545 28.5383 30.1708 28.901 29.808C29.2336 29.4452 29.6266 29.2638 30.1103 29.2638C30.594 29.2638 30.5335 29.2941 30.7149 29.3848C30.8963 29.4755 31.0777 29.5964 31.2591 29.7475V29.3545ZM30.2917 30.1103C30.0196 30.1103 29.7777 30.201 29.5963 30.4126C29.415 30.6242 29.3243 30.8661 29.3243 31.1684C29.3243 31.4707 29.415 31.7428 29.5963 31.9544C29.7777 32.166 30.0196 32.2567 30.2917 32.2567C30.5638 32.2567 30.8056 32.166 31.0172 31.9544C31.1986 31.7428 31.2893 31.501 31.2893 31.1684C31.2893 30.8359 31.1986 30.594 31.0172 30.4126C30.8358 30.201 30.594 30.1103 30.2917 30.1103ZM36.6705 30.1103L35.9147 30.5336C35.7635 30.3824 35.6426 30.2917 35.4914 30.2312C35.3403 30.1708 35.1891 30.1406 35.0077 30.1406C34.6752 30.1406 34.3729 30.2312 34.1613 30.4429C33.9496 30.6545 33.859 30.8963 33.859 31.2289C33.859 31.5614 33.9496 31.8033 34.1613 31.9846C34.3729 32.166 34.645 32.287 34.9775 32.287C35.3101 32.287 35.7031 32.1358 35.9449 31.8637L36.6705 32.3474C36.2774 32.8614 35.7333 33.1032 35.0077 33.1032C34.2822 33.1032 33.8589 32.9218 33.4962 32.5288C33.1334 32.1358 32.952 31.7126 32.952 31.1986C32.952 30.6847 33.0427 30.5336 33.2241 30.2312C33.4055 29.9289 33.6473 29.6871 33.9496 29.5359C34.2822 29.3545 34.6147 29.2941 35.0077 29.2941C35.4007 29.2941 35.7031 29.3545 35.9751 29.5057C36.2775 29.6569 36.4891 29.8685 36.6705 30.1103ZM34.5543 32.9521H35.1287V33.1032C35.2496 33.1334 35.3705 33.1939 35.431 33.2846C35.5217 33.3753 35.5519 33.4962 35.5519 33.6171C35.5519 33.7985 35.4914 33.9497 35.31 34.0706C35.1589 34.1915 34.9473 34.252 34.6752 34.252C34.4031 34.252 34.2217 34.1915 33.9194 34.1008L34.0403 33.6776C34.1915 33.7381 34.3729 33.7683 34.524 33.7683C34.6752 33.7683 34.7357 33.7683 34.7659 33.7078C34.8264 33.6776 34.8566 33.6171 34.8566 33.5264C34.8566 33.4358 34.8566 33.4358 34.7961 33.3753C34.7659 33.3451 34.6752 33.3148 34.5845 33.3148H34.4031L34.524 32.9218L34.5543 32.9521ZM40.2075 29.3545H41.1144V33.0125H40.2075V32.6195C40.0261 32.8009 39.8447 32.9218 39.6634 32.9823C39.482 33.0427 39.3006 33.1032 39.089 33.1032C38.6053 33.1032 38.2123 32.9218 37.8495 32.5591C37.5169 32.1963 37.3355 31.7428 37.3355 31.1986C37.3355 30.6545 37.5169 30.1708 37.8495 29.808C38.182 29.4452 38.575 29.2638 39.0587 29.2638C39.5424 29.2638 39.482 29.2941 39.6634 29.3848C39.8447 29.4755 40.0261 29.5964 40.2075 29.7475V29.3545ZM39.2401 30.1103C38.968 30.1103 38.7262 30.201 38.5448 30.4126C38.3634 30.6242 38.2727 30.8661 38.2727 31.1684C38.2727 31.4707 38.3634 31.7428 38.5448 31.9544C38.7262 32.166 38.968 32.2567 39.2401 32.2567C39.5122 32.2567 39.754 32.166 39.9657 31.9544C40.1471 31.7428 40.2377 31.501 40.2377 31.1684C40.2377 30.8359 40.1471 30.594 39.9657 30.4126C39.7843 30.201 39.5424 30.1103 39.2401 30.1103ZM38.2727 28.6894L37.9099 28.1453C38.182 27.9337 38.4843 27.8127 38.7866 27.8127C39.089 27.8127 39.089 27.843 39.361 27.9337C39.5424 27.9941 39.6936 27.9941 39.7843 27.9941C39.9657 27.9941 40.1773 27.9337 40.3587 27.8127L40.7214 28.3267C40.4494 28.5685 40.1773 28.6894 39.9052 28.6894C39.6331 28.6894 39.6029 28.6895 39.3913 28.5988C39.2401 28.5383 39.1192 28.5383 39.089 28.5081C39.0285 28.5081 38.968 28.5081 38.8773 28.5081C38.6657 28.5081 38.4843 28.5685 38.2727 28.6894ZM43.7446 29.2638C44.0771 29.2638 44.4096 29.3545 44.712 29.5359C45.0143 29.7173 45.2561 29.9289 45.4073 30.2312C45.5887 30.5336 45.6491 30.8359 45.6491 31.1986C45.6491 31.5614 45.5584 31.8637 45.4073 32.166C45.2259 32.4684 45.0143 32.7102 44.712 32.8614C44.4096 33.0427 44.0771 33.1032 43.7446 33.1032C43.2306 33.1032 42.7772 32.9218 42.4144 32.5591C42.0516 32.1963 41.8702 31.7428 41.8702 31.1986C41.8702 30.6545 42.0818 30.1405 42.5051 29.7778C42.8679 29.4452 43.2911 29.2941 43.7748 29.2941M43.7748 30.1406C43.5027 30.1406 43.2609 30.2312 43.0795 30.4429C42.8981 30.6545 42.8074 30.8963 42.8074 31.1986C42.8074 31.501 42.8981 31.773 43.0795 31.9544C43.2609 32.166 43.5027 32.2567 43.7748 32.2567C44.0469 32.2567 44.2887 32.166 44.5003 31.9544C44.6817 31.7428 44.7724 31.501 44.7724 31.1986C44.7724 30.8963 44.6817 30.6243 44.5003 30.4429C44.319 30.2615 44.0771 30.1406 43.7748 30.1406ZM48.0979 28.0848H49.0653L50.3047 31.5916L51.5745 28.0848H52.5418L50.7582 33.0125H49.8513L48.0979 28.0848ZM55.8673 29.3545H56.7742V33.0125H55.8673V32.6195C55.6859 32.8009 55.5045 32.9218 55.3231 32.9823C55.1417 33.0427 54.9604 33.1032 54.7487 33.1032C54.265 33.1032 53.872 32.9218 53.5093 32.5591C53.1767 32.1963 52.9953 31.7428 52.9953 31.1986C52.9953 30.6545 53.1465 30.1708 53.5093 29.808C53.8418 29.4452 54.2348 29.2638 54.7185 29.2638C55.2022 29.2638 55.1417 29.2941 55.3231 29.3848C55.5045 29.4755 55.6859 29.5964 55.8673 29.7475V29.3545ZM54.9301 30.1103C54.658 30.1103 54.4162 30.201 54.2348 30.4126C54.0534 30.6242 53.9627 30.8661 53.9627 31.1684C53.9627 31.4707 54.0534 31.7428 54.2348 31.9544C54.4162 32.166 54.658 32.2567 54.9301 32.2567C55.2022 32.2567 55.444 32.166 55.6557 31.9544C55.8371 31.7428 55.9277 31.501 55.9277 31.1684C55.9277 30.8359 55.8371 30.594 55.6557 30.4126C55.4743 30.201 55.2324 30.1103 54.9301 30.1103ZM57.7114 29.3545H58.6183V29.7173C58.8299 29.5359 59.0113 29.415 59.1927 29.3545C59.3741 29.2941 59.5253 29.2638 59.7066 29.2638C60.0694 29.2638 60.3717 29.3848 60.6438 29.6569C60.8554 29.8685 60.9764 30.201 60.9764 30.594V33.0125H60.0694V31.4103C60.0694 30.987 60.0694 30.6847 60.009 30.5336C59.9787 30.3824 59.888 30.2917 59.7973 30.201C59.7066 30.1405 59.5857 30.0801 59.4346 30.0801C59.2834 30.0801 59.102 30.1406 58.9509 30.2615C58.8299 30.3824 58.7393 30.5638 58.6788 30.7754C58.6788 30.8963 58.6486 31.1382 58.6486 31.5312V32.9823H57.7416V29.3243L57.7114 29.3545ZM61.7019 29.3545H64.5134L62.8809 32.2265H64.4227V33.0125H61.4601L63.1228 30.1406H61.7321V29.3545H61.7019ZM66.7203 29.2638C67.0528 29.2638 67.3854 29.3545 67.6877 29.5359C67.99 29.7173 68.2319 29.9289 68.383 30.2312C68.5644 30.5336 68.6249 30.8359 68.6249 31.1986C68.6249 31.5614 68.5342 31.8637 68.383 32.166C68.2016 32.4684 67.99 32.7102 67.6877 32.8614C67.3854 33.0427 67.0528 33.1032 66.7203 33.1032C66.2064 33.1032 65.7529 32.9218 65.3901 32.5591C65.0273 32.1963 64.846 31.7428 64.846 31.1986C64.846 30.6545 65.0576 30.1405 65.4808 29.7778C65.8436 29.4452 66.2668 29.2941 66.7505 29.2941M66.7505 30.1406C66.4784 30.1406 66.2366 30.2312 66.0552 30.4429C65.8738 30.6545 65.7831 30.8963 65.7831 31.1986C65.7831 31.501 65.8738 31.773 66.0552 31.9544C66.2366 32.166 66.4784 32.2567 66.7505 32.2567C67.0226 32.2567 67.2645 32.166 67.4761 31.9544C67.6575 31.7428 67.7482 31.501 67.7482 31.1986C67.7482 30.8963 67.6575 30.6243 67.4761 30.4429C67.2947 30.2615 67.0528 30.1406 66.7505 30.1406ZM69.3202 27.9639H70.2271V33.0125H69.3202V27.9639ZM71.4061 27.8732C71.5573 27.8732 71.7085 27.9337 71.8294 28.0546C71.9503 28.1755 72.0108 28.3267 72.0108 28.4778C72.0108 28.629 71.9503 28.7801 71.8294 28.9011C71.7085 29.022 71.5875 29.0825 71.4061 29.0825C71.2248 29.0825 71.1038 29.022 70.9829 28.9011C70.862 28.7801 70.8015 28.629 70.8015 28.4778C70.8015 28.3267 70.862 28.1755 70.9829 28.0546C71.1038 27.9337 71.2248 27.8732 71.4061 27.8732ZM70.9527 29.3545H71.8596V33.0125H70.9527V29.3545ZM72.7061 29.3545H73.613V29.7173C73.8246 29.5359 74.006 29.415 74.1874 29.3545C74.3688 29.2941 74.5199 29.2638 74.7013 29.2638C75.0641 29.2638 75.3664 29.3848 75.6385 29.6569C75.8501 29.8685 75.971 30.201 75.971 30.594V33.0125H75.0641V31.4103C75.0641 30.987 75.0641 30.6847 75.0036 30.5336C74.9734 30.3824 74.8827 30.2917 74.792 30.201C74.7013 30.1405 74.5804 30.0801 74.4293 30.0801C74.2781 30.0801 74.0967 30.1406 73.9455 30.2615C73.8246 30.3824 73.7339 30.5638 73.6735 30.7754C73.6735 30.8963 73.6432 31.1382 73.6432 31.5312V32.9823H72.7363V29.3243L72.7061 29.3545ZM77.1803 27.8732C77.3315 27.8732 77.4826 27.9337 77.6035 28.0546C77.7245 28.1755 77.7849 28.3267 77.7849 28.4778C77.7849 28.629 77.7245 28.7801 77.6035 28.9011C77.4826 29.022 77.3617 29.0825 77.1803 29.0825C76.9989 29.0825 76.878 29.022 76.7571 28.9011C76.6361 28.7801 76.5757 28.629 76.5757 28.4778C76.5757 28.3267 76.6361 28.1755 76.7571 28.0546C76.878 27.9337 76.9989 27.8732 77.1803 27.8732ZM76.7268 29.3545H77.6338V33.0125H76.7268V29.3545Z" fill="#312A74"/>
<path d="M90.3309 38.454H0V53.1766H90.3309V38.454Z" fill="#312A74"/>
<path d="M27.8847 56.2167V56.7137C27.7795 56.6411 27.58 56.5359 27.3732 56.5359C27.0467 56.5359 27.0213 56.7572 27.0213 56.8116C27.0213 56.9277 27.0902 57.022 27.2462 57.1091C27.5872 57.3014 27.6562 57.3376 27.765 57.4465C27.8521 57.5299 27.9609 57.7004 27.9609 57.9253C27.9609 58.357 27.5909 58.6545 27.0793 58.6545C26.898 58.6545 26.7311 58.6219 26.4445 58.5239V57.9652C26.6077 58.0958 26.8218 58.1974 27.0286 58.1974C27.3043 58.1974 27.3877 58.0233 27.3877 57.9181C27.3877 57.8455 27.3696 57.7548 27.1846 57.6533C26.8109 57.4465 26.7601 57.4174 26.6404 57.2941C26.4989 57.149 26.4445 56.9966 26.4445 56.8334C26.4445 56.3981 26.8254 56.0824 27.2752 56.0824C27.4857 56.0824 27.6961 56.1223 27.8847 56.2167ZM28.4344 56.1115H29.0148V58.6255H28.4344V56.1115ZM30.935 56.2167V56.7137C30.8298 56.6411 30.6303 56.5359 30.4235 56.5359C30.097 56.5359 30.0716 56.7572 30.0716 56.8116C30.0716 56.9277 30.1405 57.022 30.2965 57.1091C30.6375 57.3014 30.7064 57.3376 30.8153 57.4465C30.9023 57.5299 31.0112 57.7004 31.0112 57.9253C31.0112 58.357 30.6411 58.6545 30.1296 58.6545C29.9482 58.6545 29.7814 58.6219 29.4948 58.5239V57.9652C29.658 58.0958 29.8721 58.1974 30.0788 58.1974C30.3546 58.1974 30.438 58.0233 30.438 57.9181C30.438 57.8455 30.4199 57.7548 30.2348 57.6533C29.8612 57.4465 29.8104 57.4174 29.6907 57.2941C29.5492 57.149 29.4948 56.9966 29.4948 56.8334C29.4948 56.3981 29.8757 56.0824 30.3255 56.0824C30.5359 56.0824 30.7463 56.1223 30.935 56.2167ZM31.1436 56.1115H33.4727V56.5432H32.5984V58.6255H32.0179V56.5432H31.1436V56.1115ZM33.8255 56.1115H35.4144V56.5432H34.4059V57.1091H35.3745V57.5408H34.4059V58.1938H35.4325V58.6255H33.8255V56.1115ZM35.9475 56.1115H36.4627L37.2318 57.0837L38.0045 56.1115H38.5232V58.6255H37.9428V57.0547L37.2789 57.8927H37.1919L36.528 57.0547V58.6255H35.9475V56.1115ZM39.857 56.1115H40.4955L41.5693 58.6255H40.9562L40.7494 58.1212H39.6756L39.4906 58.6255H38.8847L39.857 56.1115ZM39.8243 57.7222H40.5825L40.1835 56.7499L39.8243 57.7222ZM42.9338 56.1115H43.7428C44.4103 56.1115 44.6533 56.2602 44.8492 56.4634C44.9798 56.5976 45.2011 56.8805 45.2011 57.3775C45.2011 57.9979 44.8456 58.3425 44.5119 58.4876C44.3305 58.5674 44.0657 58.6255 43.7428 58.6255H42.9338V56.1115ZM43.5142 56.5577V58.1865C43.819 58.1865 44.0221 58.1756 44.1817 58.0995C44.5227 57.9362 44.6026 57.588 44.6026 57.3703C44.6026 57.0656 44.4574 56.7898 44.2144 56.6556C44.0548 56.5686 43.8625 56.5577 43.5142 56.5577ZM45.6723 56.1115H47.2613V56.5432H46.2528V57.1091H47.2214V57.5408H46.2528V58.1938H47.2794V58.6255H45.6723V56.1115ZM50.8358 56.2239V56.7245C50.6072 56.6157 50.3569 56.5577 50.103 56.5577C49.5915 56.5577 49.2214 56.8733 49.2214 57.363C49.2214 57.7621 49.4754 58.1648 50.1356 58.1648C50.2118 58.1648 50.2699 58.1611 50.3243 58.1539V57.7476H50.0667V57.3159H50.9047V58.5674C50.6979 58.6073 50.4041 58.6545 50.0667 58.6545C48.982 58.6545 48.6156 57.9761 48.6156 57.3812C48.6156 56.7028 49.0945 56.0824 50.0667 56.0824C50.3424 56.0824 50.5782 56.1223 50.8358 56.2239ZM51.493 56.1115H53.082V56.5432H52.0734V57.1091H53.0421V57.5408H52.0734V58.1938H53.1001V58.6255H51.493V56.1115ZM54.8413 56.2167V56.7137C54.7361 56.6411 54.5365 56.5359 54.3298 56.5359C54.0033 56.5359 53.9779 56.7572 53.9779 56.8116C53.9779 56.9277 54.0468 57.022 54.2028 57.1091C54.5438 57.3014 54.6127 57.3376 54.7216 57.4465C54.8086 57.5299 54.9175 57.7004 54.9175 57.9253C54.9175 58.357 54.5474 58.6545 54.0359 58.6545C53.8545 58.6545 53.6877 58.6219 53.4011 58.5239V57.9652C53.5643 58.0958 53.7783 58.1974 53.9851 58.1974C54.2608 58.1974 54.3443 58.0233 54.3443 57.9181C54.3443 57.8455 54.3261 57.7548 54.1411 57.6533C53.7675 57.4465 53.7167 57.4174 53.597 57.2941C53.4555 57.149 53.4011 56.9966 53.4011 56.8334C53.4011 56.3981 53.782 56.0824 54.2318 56.0824C54.4422 56.0824 54.6526 56.1223 54.8413 56.2167ZM55.0499 56.1115H57.3789V56.5432H56.5047V58.6255H55.9242V56.5432H55.0499V56.1115ZM58.2331 56.1115H58.8716L59.9454 58.6255H59.3323L59.1255 58.1212H58.0517L57.8667 58.6255H57.2608L58.2331 56.1115ZM58.2004 57.7222H58.9586L58.5596 56.7499L58.2004 57.7222ZM58.1388 55.8938H57.8993C57.9066 55.8067 57.9284 55.6725 57.99 55.56C58.0517 55.444 58.1569 55.3533 58.331 55.3533C58.4435 55.3533 58.516 55.3895 58.6612 55.4621C58.8026 55.5346 58.8498 55.5492 58.9042 55.5492C59.0276 55.5492 59.0457 55.4331 59.0602 55.3533H59.3105C59.2924 55.6362 59.1799 55.901 58.8861 55.901C58.7736 55.901 58.6213 55.8249 58.5705 55.7995C58.429 55.7233 58.3782 55.6979 58.302 55.6979C58.1714 55.6979 58.1496 55.8321 58.1388 55.8938ZM61.3399 56.0824C62.2758 56.0824 62.6894 56.7826 62.6894 57.363C62.6894 57.9544 62.2722 58.6545 61.3689 58.6545C60.4837 58.6545 60.0303 57.9906 60.0303 57.3667C60.0303 56.779 60.462 56.0824 61.3399 56.0824ZM61.3725 56.5577C60.8392 56.5577 60.6288 57.0003 60.6288 57.3775C60.6288 57.7839 60.8828 58.172 61.358 58.172C61.7861 58.172 62.0908 57.8455 62.0908 57.3594C62.0908 56.8769 61.7861 56.5577 61.3725 56.5577Z" fill="#312A74"/>
<path d="M34.799 60.7163V61.2278C34.614 61.1299 34.4108 61.0319 34.1206 61.0319C33.5257 61.0319 33.25 61.4382 33.25 61.8445C33.25 62.3053 33.6055 62.639 34.1134 62.639C34.3927 62.639 34.5959 62.5556 34.8897 62.3923V62.9147C34.5995 63.0526 34.4108 63.1288 34.0444 63.1288C32.9888 63.1288 32.6441 62.4105 32.6441 61.8445C32.6441 61.1045 33.2246 60.5567 34.0553 60.5567C34.3927 60.5567 34.614 60.6365 34.799 60.7163ZM35.2558 60.5857H36.8448V61.0174H35.8363V61.5833H36.8049V62.015H35.8363V62.668H36.8629V63.0997H35.2558V60.5857ZM37.3815 60.5857H38.3139C38.4263 60.5857 38.6367 60.5857 38.8218 60.6945C39.0721 60.8433 39.1628 61.1117 39.1628 61.304C39.1628 61.4745 39.0975 61.6377 38.9886 61.7538C38.9016 61.8445 38.8109 61.8844 38.7528 61.9135C38.9487 62.0658 39.014 62.1783 39.141 62.4467C39.3514 62.8929 39.3732 62.9401 39.4566 63.0997H38.8109L38.5569 62.5665C38.3538 62.1384 38.2885 62.0513 37.962 62.0549V63.0997H37.3815V60.5857ZM37.962 61.0065V61.6341H38.0962C38.2812 61.6341 38.5642 61.6341 38.5642 61.3221C38.5642 61.0029 38.2522 61.0065 38.1651 61.0065H37.962ZM39.2733 60.5857H41.6023V61.0174H40.728V63.0997H40.1476V61.0174H39.2733V60.5857ZM41.995 60.5857H42.5755V63.0997H41.995V60.5857ZM43.2695 60.5857H44.7677V61.0174H43.8499V61.6124H44.7677V62.0441H43.8499V63.0997H43.2695V60.5857ZM45.2118 60.5857H45.7923V63.0997H45.2118V60.5857ZM48.4598 60.7163V61.2278C48.2747 61.1299 48.0716 61.0319 47.7814 61.0319C47.1864 61.0319 46.9107 61.4382 46.9107 61.8445C46.9107 62.3053 47.2662 62.639 47.7741 62.639C48.0534 62.639 48.2566 62.5556 48.5504 62.3923V62.9147C48.2602 63.0526 48.0716 63.1288 47.7052 63.1288C46.6495 63.1288 46.3049 62.4105 46.3049 61.8445C46.3049 61.1045 46.8853 60.5567 47.7161 60.5567C48.0534 60.5567 48.2747 60.6365 48.4598 60.7163ZM49.5986 60.5857H50.2371L51.3109 63.0997H50.6978L50.491 62.5955H49.4172L49.2322 63.0997H48.6263L49.5986 60.5857ZM49.5659 62.1964H50.3241L49.9251 61.2242L49.5659 62.1964ZM51.6728 60.5857H52.4818C53.1493 60.5857 53.3924 60.7344 53.5883 60.9376C53.7189 61.0718 53.9401 61.3548 53.9401 61.8518C53.9401 62.4721 53.5846 62.8168 53.2509 62.9619C53.0695 63.0417 52.8047 63.0997 52.4818 63.0997H51.6728V60.5857ZM52.2532 61.0319V62.6608C52.558 62.6608 52.7611 62.6499 52.9207 62.5737C53.2618 62.4105 53.3416 62.0622 53.3416 61.8445C53.3416 61.5398 53.1965 61.2641 52.9534 61.1299C52.7938 61.0428 52.6015 61.0319 52.2532 61.0319ZM55.5396 60.5567C56.4755 60.5567 56.8891 61.2568 56.8891 61.8373C56.8891 62.4286 56.4719 63.1288 55.5686 63.1288C54.6834 63.1288 54.2299 62.4649 54.2299 61.8409C54.2299 61.2532 54.6616 60.5567 55.5396 60.5567ZM55.5722 61.0319C55.0389 61.0319 54.8285 61.4745 54.8285 61.8518C54.8285 62.2581 55.0825 62.6463 55.5577 62.6463C55.9858 62.6463 56.2905 62.3198 56.2905 61.8336C56.2905 61.3512 55.9858 61.0319 55.5722 61.0319Z" fill="#312A74"/>
<path d="M26.1455 43.9072V48H25.126V43.9072H26.1455ZM29.8662 44.1709V44.9707C29.3232 44.7266 28.8906 44.6045 28.5684 44.6045C28.3848 44.6045 28.2383 44.6357 28.1289 44.6982C28.0215 44.7588 27.9678 44.8398 27.9678 44.9414C27.9678 45.0195 28.0068 45.0938 28.085 45.1641C28.1631 45.2344 28.3535 45.3252 28.6562 45.4365C28.959 45.5479 29.2012 45.6514 29.3828 45.7471C29.5645 45.8428 29.7207 45.9775 29.8516 46.1514C29.9844 46.3252 30.0508 46.5449 30.0508 46.8105C30.0508 47.1895 29.9062 47.4912 29.6172 47.7158C29.3301 47.9404 28.9512 48.0527 28.4805 48.0527C27.9727 48.0527 27.4805 47.9209 27.0039 47.6572V46.7754C27.2773 46.959 27.5195 47.0928 27.7305 47.1768C27.9414 47.2607 28.165 47.3027 28.4014 47.3027C28.8018 47.3027 29.002 47.1768 29.002 46.9248C29.002 46.8389 28.9619 46.7578 28.8818 46.6816C28.8018 46.6055 28.6084 46.5127 28.3018 46.4033C27.9971 46.2939 27.7549 46.1924 27.5752 46.0986C27.3975 46.0049 27.2432 45.8711 27.1123 45.6973C26.9834 45.5234 26.9189 45.3008 26.9189 45.0293C26.9189 44.6777 27.0605 44.3945 27.3438 44.1797C27.627 43.9629 28.0059 43.8545 28.4805 43.8545C28.918 43.8545 29.3799 43.96 29.8662 44.1709ZM32.8867 43.8545C33.584 43.8545 34.1484 44.0654 34.5801 44.4873C35.0117 44.9072 35.2275 45.3965 35.2275 45.9551C35.2275 46.5215 35.0088 47.0127 34.5713 47.4287C34.1338 47.8447 33.5723 48.0527 32.8867 48.0527C32.1934 48.0527 31.6289 47.8457 31.1934 47.4316C30.7578 47.0176 30.54 46.5254 30.54 45.9551C30.54 45.3945 30.7559 44.9043 31.1875 44.4844C31.6211 44.0645 32.1875 43.8545 32.8867 43.8545ZM32.8867 47.2031C33.2734 47.2031 33.585 47.0889 33.8213 46.8604C34.0576 46.6299 34.1758 46.3281 34.1758 45.9551C34.1758 45.5801 34.0576 45.2783 33.8213 45.0498C33.585 44.8213 33.2734 44.707 32.8867 44.707C32.498 44.707 32.1846 44.8213 31.9463 45.0498C31.71 45.2783 31.5918 45.5801 31.5918 45.9551C31.5918 46.3281 31.71 46.6299 31.9463 46.8604C32.1846 47.0889 32.498 47.2031 32.8867 47.2031ZM35.5088 48.0527L36.5225 43.8545H37.1406L36.1152 48.0527H35.5088ZM38.708 43.9072V48H37.6885V43.9072H38.708ZM42.6807 47.25V48H39.6631V43.9072H42.6396V44.6572H40.6826V45.5156H42.5488V46.2656H40.6826V47.25H42.6807ZM47.2744 46.752V47.6455C46.7627 47.917 46.2266 48.0527 45.666 48.0527C44.9395 48.0527 44.3604 47.8525 43.9287 47.4521C43.499 47.0498 43.2842 46.5547 43.2842 45.9668C43.2842 45.3789 43.5107 44.8799 43.9639 44.4697C44.4189 44.0596 45.0127 43.8545 45.7451 43.8545C46.3291 43.8545 46.8232 43.9746 47.2275 44.2148V45.126C46.7314 44.8467 46.2617 44.707 45.8184 44.707C45.3828 44.707 45.0264 44.8242 44.749 45.0586C44.4736 45.291 44.3359 45.5879 44.3359 45.9492C44.3359 46.3125 44.4717 46.6123 44.7432 46.8486C45.0166 47.085 45.3662 47.2031 45.792 47.2031C46.0029 47.2031 46.2061 47.1758 46.4014 47.1211C46.5967 47.0645 46.8877 46.9414 47.2744 46.752ZM52.3311 47.165V48H49.627V47.8857C49.875 47.583 50.1582 47.2002 50.4766 46.7373C50.7969 46.2725 50.999 45.9424 51.083 45.7471C51.167 45.5518 51.209 45.3623 51.209 45.1787C51.209 45.0186 51.1553 44.8809 51.0479 44.7656C50.9424 44.6504 50.8145 44.5928 50.6641 44.5928C50.3652 44.5928 50.0371 44.7627 49.6797 45.1025V44.2441C50.0801 43.9844 50.4619 43.8545 50.8252 43.8545C51.2275 43.8545 51.5439 43.958 51.7744 44.165C52.0068 44.3721 52.123 44.6562 52.123 45.0176C52.123 45.5117 51.7529 46.2275 51.0127 47.165H52.3311ZM53.4092 47.7422L54.5078 44.7246H52.9961V43.9072H55.7031V43.957L54.2266 48.0527L53.4092 47.7422ZM57.584 43.8545C58.0176 43.8545 58.3555 44.041 58.5977 44.4141C58.8418 44.7871 58.9639 45.2939 58.9639 45.9346C58.9639 46.6006 58.8457 47.1201 58.6094 47.4932C58.373 47.8662 58.0352 48.0527 57.5957 48.0527C57.1504 48.0527 56.8037 47.8672 56.5557 47.4961C56.3096 47.125 56.1865 46.6113 56.1865 45.9551C56.1865 45.291 56.3115 44.7754 56.5615 44.4082C56.8135 44.0391 57.1543 43.8545 57.584 43.8545ZM57.584 47.2852C57.748 47.2852 57.8672 47.1865 57.9414 46.9893C58.0156 46.79 58.0527 46.417 58.0527 45.8701C58.0527 45.415 58.0156 45.0938 57.9414 44.9062C57.8691 44.7168 57.748 44.6221 57.5781 44.6221C57.4121 44.6221 57.29 44.7148 57.2119 44.9004C57.1357 45.084 57.0977 45.4492 57.0977 45.9961C57.0977 46.4551 57.1357 46.7852 57.2119 46.9863C57.29 47.1855 57.4141 47.2852 57.584 47.2852ZM60.8945 43.8545C61.3281 43.8545 61.666 44.041 61.9082 44.4141C62.1523 44.7871 62.2744 45.2939 62.2744 45.9346C62.2744 46.6006 62.1562 47.1201 61.9199 47.4932C61.6836 47.8662 61.3457 48.0527 60.9062 48.0527C60.4609 48.0527 60.1143 47.8672 59.8662 47.4961C59.6201 47.125 59.4971 46.6113 59.4971 45.9551C59.4971 45.291 59.6221 44.7754 59.8721 44.4082C60.124 44.0391 60.4648 43.8545 60.8945 43.8545ZM60.8945 47.2852C61.0586 47.2852 61.1777 47.1865 61.252 46.9893C61.3262 46.79 61.3633 46.417 61.3633 45.8701C61.3633 45.415 61.3262 45.0938 61.252 44.9062C61.1797 44.7168 61.0586 44.6221 60.8887 44.6221C60.7227 44.6221 60.6006 44.7148 60.5225 44.9004C60.4463 45.084 60.4082 45.4492 60.4082 45.9961C60.4082 46.4551 60.4463 46.7852 60.5225 46.9863C60.6006 47.1855 60.7246 47.2852 60.8945 47.2852ZM64.6387 43.9072V48H63.7334V43.9072H64.6387Z" fill="white"/>
</svg>
