<svg width="207" height="44" viewBox="0 0 207 44" fill="none" xmlns="http://www.w3.org/2000/svg">
<g clip-path="url(#clip0_12_9)">
<path d="M70.6584 32.6382C69.4123 32.5606 68.2027 32.3096 67.0205 31.8805C65.8383 31.456 64.8022 30.8762 63.9167 30.1459C63.0266 29.4155 62.3602 28.5528 61.922 27.5576L66.1031 25.7637C66.3085 26.1882 66.6645 26.6082 67.1757 27.0144C67.6869 27.4253 68.2895 27.7585 68.9833 28.0187C69.6771 28.2789 70.3983 28.4067 71.156 28.4067C71.9137 28.4067 72.5847 28.3017 73.2237 28.0871C73.8627 27.8726 74.3831 27.5485 74.7939 27.1057C75.2047 26.6629 75.4101 26.138 75.4101 25.5217C75.4101 24.8279 75.1773 24.2892 74.7117 23.9058C74.2461 23.5224 73.6664 23.2256 72.9772 23.0202C72.2834 22.8148 71.5896 22.6185 70.9004 22.4314C69.3576 22.0845 67.9426 21.6097 66.6599 21.0026C65.3773 20.3955 64.3594 19.6195 63.6017 18.6654C62.844 17.7114 62.4697 16.5428 62.4697 15.1597C62.4697 13.6487 62.8805 12.3386 63.6976 11.2294C64.5146 10.1201 65.5918 9.26652 66.9201 8.66853C68.2484 8.07055 69.6725 7.76927 71.1833 7.76927C73.0731 7.76927 74.803 8.17097 76.3778 8.97438C77.9525 9.77778 79.1575 10.8779 79.9928 12.2793L76.0948 14.5936C75.8574 14.1189 75.5059 13.6944 75.0312 13.3201C74.5611 12.9412 74.0225 12.6399 73.4245 12.4117C72.8266 12.1834 72.2058 12.0556 71.5576 12.0237C70.7543 11.9917 70.0103 12.083 69.3256 12.293C68.6409 12.5075 68.0932 12.8408 67.6824 13.2972C67.2716 13.7537 67.0662 14.338 67.0662 15.0455C67.0662 15.7531 67.3081 16.2552 67.7965 16.593C68.2849 16.9308 68.9011 17.2047 69.6497 17.4101C70.3983 17.6155 71.1651 17.8438 71.9502 18.0948C73.3515 18.5376 74.6661 19.0763 75.8939 19.7108C77.1218 20.3453 78.1123 21.1304 78.87 22.0616C79.6277 22.9928 79.9883 24.1249 79.9563 25.4624C79.9563 26.9414 79.509 28.2424 78.6235 29.3607C77.7334 30.4791 76.5786 31.3281 75.1636 31.9124C73.7486 32.4967 72.2423 32.7387 70.6539 32.6428L70.6584 32.6382Z" fill="#015258"/>
<path d="M93.5311 32.8071C91.3584 32.8071 89.3774 32.2502 87.5927 31.1319C85.8034 30.0135 84.3793 28.5162 83.3204 26.631C82.2568 24.7503 81.7273 22.6687 81.7273 20.3818C81.7273 18.6517 82.0332 17.0312 82.6494 15.5294C83.2656 14.0276 84.11 12.7038 85.1872 11.5626C86.2645 10.4214 87.5197 9.52671 88.9529 8.88308C90.3862 8.23944 91.9107 7.91534 93.5357 7.91534C95.3478 7.91534 97.0093 8.28966 98.5201 9.03828C100.031 9.78691 101.323 10.8185 102.395 12.1332C103.468 13.4479 104.253 14.9588 104.755 16.666C105.257 18.3733 105.408 20.1901 105.203 22.1118H86.9948C87.2002 23.1983 87.5973 24.1797 88.1861 25.0516C88.7749 25.9234 89.5326 26.6127 90.4547 27.1194C91.3767 27.6215 92.4037 27.8817 93.5357 27.9C94.7316 27.9 95.8225 27.6033 96.8084 27.0007C97.7944 26.4027 98.5977 25.5765 99.2276 24.522L104.212 25.6815C103.267 27.7767 101.843 29.4885 99.9397 30.8169C98.0363 32.1498 95.9001 32.8117 93.5403 32.8117L93.5311 32.8071ZM86.8213 18.3505H100.236C100.077 17.2184 99.6795 16.1913 99.0451 15.2692C98.406 14.3471 97.6118 13.6168 96.6578 13.0736C95.7038 12.5303 94.6631 12.2565 93.5311 12.2565C92.3991 12.2565 91.3767 12.5258 90.4273 13.0599C89.4733 13.5939 88.6882 14.3243 88.0674 15.2464C87.4467 16.1685 87.0313 17.2047 86.8259 18.3505H86.8213Z" fill="#015258"/>
<path d="M124.191 25.4852L128.582 27.8726C127.509 29.3699 126.154 30.5658 124.51 31.4605C122.867 32.3598 121.082 32.8071 119.161 32.8071C116.988 32.8071 115.007 32.2502 113.222 31.1319C111.433 30.0135 110.009 28.5162 108.95 26.631C107.886 24.7503 107.357 22.6687 107.357 20.3818C107.357 18.6517 107.663 17.0312 108.279 15.5294C108.895 14.0276 109.74 12.7038 110.817 11.5626C111.894 10.4214 113.149 9.52671 114.583 8.88308C116.016 8.23944 117.54 7.91534 119.165 7.91534C121.087 7.91534 122.867 8.36269 124.515 9.26196C126.158 10.1612 127.518 11.3618 128.586 12.8773L124.195 15.2647C123.534 14.4795 122.762 13.877 121.881 13.457C121 13.0416 120.092 12.8316 119.165 12.8316C117.874 12.8316 116.705 13.1831 115.66 13.8815C114.615 14.5845 113.788 15.502 113.181 16.6432C112.574 17.7844 112.273 19.0306 112.273 20.3863C112.273 21.7421 112.579 22.9655 113.195 24.1067C113.811 25.2479 114.637 26.1654 115.687 26.8592C116.732 27.5531 117.896 27.9 119.17 27.9C120.147 27.9 121.073 27.6809 121.954 27.2381C122.835 26.7953 123.584 26.2156 124.2 25.4898L124.191 25.4852Z" fill="#015258"/>
<path d="M144.412 13.4844H139.45L139.427 32.1909H134.516L134.539 13.4844H130.782V8.57267H134.539L134.516 1.15489H139.427L139.45 8.57267H144.412V13.4844Z" fill="#015258"/>
<path d="M149.601 5.14908C148.844 5.14908 148.214 4.90715 147.712 4.41872C147.21 3.93028 146.954 3.3186 146.954 2.57454C146.954 1.83048 147.205 1.24162 147.712 0.744061C148.214 0.246499 148.839 0 149.579 0C150.318 0 150.916 0.246499 151.423 0.744061C151.925 1.24162 152.18 1.84874 152.18 2.57454C152.18 3.30034 151.934 3.93028 151.436 4.41872C150.939 4.90715 150.332 5.14908 149.606 5.14908H149.601ZM147.1 8.57267H152.011V32.1909H147.1V8.57267Z" fill="#015258"/>
<path d="M174.884 8.57267H179.796V32.8026C179.796 34.4231 179.453 35.9203 178.769 37.2898C178.084 38.6592 177.157 39.846 175.993 40.8457C174.829 41.8454 173.492 42.6214 171.99 43.1738C170.489 43.7261 168.918 44 167.28 44C165.641 44 164.034 43.6485 162.51 42.9501C160.981 42.2471 159.639 41.3022 158.484 40.1062C157.325 38.9103 156.466 37.5545 155.896 36.0436L160.406 34.0122C160.721 34.9891 161.227 35.8564 161.93 36.6096C162.629 37.3674 163.45 37.9653 164.386 38.4036C165.322 38.8464 166.289 39.0655 167.28 39.0655C168.27 39.0655 169.197 38.9103 170.101 38.6044C171.004 38.2986 171.817 37.8695 172.533 37.3172C173.25 36.7648 173.821 36.1029 174.245 35.3315C174.67 34.56 174.884 33.7155 174.884 32.8026V28.8129C174.113 30.0089 173.122 30.9721 171.908 31.707C170.694 32.4374 169.288 32.8071 167.681 32.8071C166.075 32.8071 164.436 32.483 162.957 31.8394C161.478 31.1958 160.177 30.3011 159.059 29.1599C157.941 28.0187 157.069 26.6994 156.439 25.2022C155.809 23.7049 155.494 22.1027 155.494 20.3863C155.494 18.67 155.809 17.0586 156.439 15.5568C157.069 14.055 157.941 12.7312 159.059 11.59C160.177 10.4488 161.474 9.5541 162.957 8.91047C164.436 8.26683 166.011 7.94273 167.681 7.94273C169.352 7.94273 170.694 8.30791 171.908 9.04285C173.122 9.77321 174.113 10.7455 174.884 11.9597V8.5818V8.57267ZM167.732 28.0598C169.101 28.0598 170.297 27.7083 171.319 27.0099C172.342 26.3114 173.136 25.3757 173.707 24.2116C174.273 23.0476 174.556 21.7695 174.556 20.3863C174.556 19.0032 174.268 17.684 173.693 16.5245C173.118 15.3651 172.319 14.4384 171.297 13.74C170.274 13.0416 169.083 12.6901 167.732 12.6901C166.381 12.6901 165.203 13.037 164.107 13.7309C163.012 14.4247 162.145 15.3514 161.497 16.5154C160.853 17.6794 160.529 18.9713 160.529 20.3909C160.529 21.8106 160.857 23.0978 161.51 24.2664C162.163 25.4304 163.039 26.3571 164.13 27.0418C165.226 27.7265 166.426 28.0689 167.732 28.0689V28.0598Z" fill="#015258"/>
<path d="M195.192 32.8071C193.019 32.8071 191.038 32.2502 189.253 31.1319C187.464 30.0135 186.04 28.5162 184.981 26.631C183.917 24.7503 183.388 22.6687 183.388 20.3818C183.388 18.6517 183.694 17.0312 184.31 15.5294C184.926 14.0276 185.771 12.7038 186.848 11.5626C187.925 10.4214 189.18 9.52671 190.613 8.88308C192.047 8.23944 193.571 7.91534 195.196 7.91534C197.369 7.91534 199.35 8.47681 201.135 9.59062C202.919 10.709 204.348 12.2108 205.407 14.1006C206.466 15.9905 207 18.0857 207 20.3818C207 22.0981 206.694 23.705 206.078 25.1976C205.462 26.6949 204.617 28.0141 203.54 29.1553C202.463 30.2965 201.212 31.1912 199.784 31.8348C198.359 32.4785 196.826 32.8026 195.192 32.8026V32.8071ZM195.192 27.8909C196.497 27.8909 197.67 27.5439 198.711 26.8501C199.752 26.1562 200.573 25.2387 201.18 24.0975C201.787 22.9563 202.089 21.7147 202.089 20.3772C202.089 19.0397 201.778 17.7479 201.157 16.5976C200.537 15.4472 199.706 14.5297 198.665 13.845C197.625 13.1603 196.47 12.8179 195.192 12.8179C193.914 12.8179 192.731 13.1649 191.686 13.8587C190.641 14.5525 189.815 15.4746 189.208 16.6204C188.601 17.7707 188.299 19.0215 188.299 20.3772C188.299 21.733 188.614 23.0476 189.244 24.1797C189.874 25.3118 190.714 26.2156 191.759 26.882C192.804 27.5531 193.95 27.8863 195.196 27.8863L195.192 27.8909Z" fill="#015258"/>
<path d="M49.219 32.2H36.6849C36.6849 25.54 31.2668 20.1262 24.6118 20.1262V7.59124C38.182 7.59124 49.2235 18.6335 49.2235 32.2046L49.219 32.2Z" fill="#06DFC7"/>
<path d="M0 8.04772H12.5341C12.5341 14.7077 17.9522 20.1216 24.6072 20.1216V32.6565C11.0415 32.6611 0 21.6188 0 8.04772Z" fill="#06DFC7"/>
</g>
<defs>
<clipPath id="clip0_12_9">
<rect width="207" height="44" fill="white"/>
</clipPath>
</defs>
</svg>

