<?xml version="1.0" encoding="UTF-16"?>
<!DOCTYPE svg PUBLIC "-//W3C//DTD SVG 1.1//EN" "http://www.w3.org/Graphics/SVG/1.1/DTD/svg11.dtd">
<!-- Creator: CorelDRAW -->
<svg xmlns="http://www.w3.org/2000/svg" xml:space="preserve" width="297mm" height="166.565mm" version="1.1" style="shape-rendering:geometricPrecision; text-rendering:geometricPrecision; image-rendering:optimizeQuality; fill-rule:evenodd; clip-rule:evenodd"
viewBox="0 0 29700 16656.5"
 xmlns:xlink="http://www.w3.org/1999/xlink"
 xmlns:xodm="http://www.corel.com/coreldraw/odm/2003">
 <defs>
  <style type="text/css">
   <![CDATA[
    .fil0 {fill:#FEFEFE}
    .fil1 {fill:#32BCA9}
    .fil4 {fill:#32BCA9}
    .fil2 {fill:#606062;fill-rule:nonzero}
    .fil3 {fill:#32BCA9;fill-rule:nonzero}
   ]]>
  </style>
 </defs>
 <g id="Camada_x0020_1">
  <metadata id="CorelCorpID_0Corel-Layer"/>
  <g id="_1966257017712">
   <g>
    <rect class="fil0" x="-0.53" y="7.11" width="29700" height="16656.55" rx="1525.75" ry="1525.75"/>
    <path class="fil1" d="M2291.95 7276.46l1022.32 -1022.32 740.72 0c47.14,0 91.28,7.57 129.4,22.39 33.51,13.05 63.14,31.65 86.47,55.51 0,4.12 1319.09,1324.24 1459.18,1464.32 130.87,130.86 303.98,196.23 477.36,196.22 172.82,-0.05 345.59,-65.47 476.57,-196.22 487.71,-487.7 977.34,-973.52 1461.93,-1464.32 23.32,-23.86 52.96,-42.46 86.47,-55.51 38.12,-14.82 82.26,-22.39 129.39,-22.39l738.88 0 1022.32 1022.32c519.7,519.7 519.7,1370.13 0,1889.84l-1022.32 1022.31 -738.88 0c-47.13,0 -91.27,-7.56 -129.39,-22.39 -33.51,-13.04 -63.15,-31.65 -86.47,-55.51 -484.59,-490.8 -974.22,-976.61 -1461.93,-1464.32 -130.98,-130.75 -303.75,-196.17 -476.57,-196.21 -173.38,-0.02 -346.49,65.36 -477.36,196.21 -140.09,140.09 -1459.18,1460.21 -1459.18,1464.32 -23.33,23.86 -52.96,42.47 -86.47,55.51 -38.12,14.83 -82.26,22.39 -129.4,22.39l-740.72 0 -1022.32 -1022.31c-519.7,-519.71 -519.7,-1370.14 0,-1889.84zm1479.91 -1479.91l1490.67 -1490.67c519.72,-519.72 1370.13,-519.72 1889.85,0l1490.67 1490.67 -281.29 0c-200.09,0 -401.23,72.65 -542.54,216.85 -2.44,-2.35 -1334.44,1336.88 -1457.44,1459.88 -42.63,42.3 -98.58,63.5 -154.38,63.5 -55.43,0 -111.19,-21.3 -153.84,-63.94 -135.33,-135.32 -1455.77,-1459.67 -1456.03,-1459.44 -141.3,-144.2 -342.44,-216.85 -542.54,-216.85l-283.13 0zm4871.19 4849.66l-1490.67 1490.66c-519.72,519.71 -1370.13,519.71 -1889.85,0l-1490.67 -1490.66 283.13 0c200.1,0 401.24,-72.65 542.54,-216.86 0.26,0.23 1320.7,-1324.11 1456.03,-1459.44 42.65,-42.63 98.41,-63.94 153.84,-63.94 55.8,0 111.75,21.2 154.38,63.5 123,123 1455,1462.23 1457.44,1459.88 141.31,144.21 342.45,216.86 542.54,216.86l281.29 0z"/>
    <g>
     <path class="fil2" d="M24279.9 7796.36c-130.98,130.75 -303.75,196.17 -476.57,196.22 -172.82,-0.05 -345.59,-65.47 -476.57,-196.22 -487.7,-487.7 -977.33,-973.52 -1461.92,-1464.32 -23.33,-23.86 -52.96,-42.46 -86.48,-55.51 -38.11,-14.82 -82.26,-22.39 -129.39,-22.39l-1140.86 0c-126.36,0 -228.8,-102.44 -228.8,-228.8 0,-126.35 102.44,-228.79 228.8,-228.79l1140.86 0c200.09,0 401.24,72.65 542.54,216.85 2.44,-2.35 1334.44,1336.88 1457.45,1459.88 42.63,42.3 98.58,63.5 154.37,63.5 55.8,0 111.75,-21.2 154.38,-63.5 123,-123 1455,-1462.23 1457.44,-1459.88 141.31,-144.2 342.45,-216.85 542.54,-216.85l1140.87 0c126.35,0 228.79,102.44 228.79,228.79 0,126.36 -102.44,228.8 -228.79,228.8l-1140.87 0c-47.13,0 -91.27,7.57 -129.39,22.39 -33.51,13.05 -63.15,31.65 -86.47,55.51 -484.59,490.8 -974.22,976.62 -1461.93,1464.32zm-6547.34 -1542.22c-126.36,0 -228.8,-102.44 -228.8,-228.8 0,-126.35 102.44,-228.79 228.8,-228.79 459.96,0 877.98,188.04 1180.87,490.94 302.92,302.91 490.96,720.95 490.96,1180.88l0 2949.04c0,126.36 -102.44,228.8 -228.8,228.8 -126.36,0 -228.8,-102.44 -228.8,-228.8l0 -2949.04c0,-333.65 -136.7,-637.18 -356.88,-857.36 -220.16,-220.17 -523.7,-356.87 -857.35,-356.87zm-4320.17 4392.07c-126.36,0 -228.8,-102.44 -228.8,-228.8 0,-126.36 102.44,-228.8 228.8,-228.8l2184.59 0c333.68,0 637.22,-136.68 857.38,-356.85 220.16,-220.16 356.85,-523.7 356.85,-857.38l0 -1506.01c0,-333.68 -136.69,-637.21 -356.85,-857.38 -220.16,-220.16 -523.7,-356.85 -857.38,-356.85l-2184.59 0c-333.67,0 -637.19,136.67 -857.37,356.87 -220.17,220.16 -356.87,523.7 -356.87,857.36l0 5057.5c0,126.36 -102.44,228.8 -228.79,228.8 -126.36,0 -228.8,-102.44 -228.8,-228.8l0 -5057.5c0,-459.96 188.04,-877.99 490.94,-1180.88 302.9,-302.92 720.96,-490.94 1180.89,-490.94l2184.59 0c459.97,0 878,188.02 1180.9,490.92 302.9,302.9 490.92,720.93 490.92,1180.9l0 1506.01c0,459.96 -188.02,878.01 -490.92,1180.9 -302.9,302.9 -720.93,490.93 -1180.9,490.93l-2184.59 0zm13686.17 0c126.35,0 228.79,-102.44 228.79,-228.8 0,-126.36 -102.44,-228.8 -228.79,-228.8l-1140.87 0c-47.13,0 -91.27,-7.56 -129.39,-22.39 -33.51,-13.04 -63.15,-31.65 -86.47,-55.51 -484.59,-490.8 -974.22,-976.61 -1461.93,-1464.32 -130.98,-130.75 -303.75,-196.17 -476.57,-196.21 -172.82,0.04 -345.59,65.46 -476.57,196.21 -487.7,487.71 -977.33,973.52 -1461.92,1464.32 -23.33,23.86 -52.96,42.47 -86.48,55.51 -38.11,14.83 -82.26,22.39 -129.39,22.39l-1140.86 0c-126.36,0 -228.8,102.44 -228.8,228.8 0,126.36 102.44,228.8 228.8,228.8l1140.86 0c200.09,0 401.24,-72.65 542.54,-216.86 2.44,2.35 1334.44,-1336.88 1457.45,-1459.88 42.63,-42.3 98.58,-63.5 154.37,-63.5 55.8,0 111.75,21.2 154.38,63.5 123,123 1455,1462.23 1457.44,1459.88 141.31,144.21 342.45,216.86 542.54,216.86l1140.87 0z"/>
     <path class="fil2" d="M13414.93 11516.54c58.44,0 107,9.17 145.73,27.52 38.73,18.35 67.6,43.32 86.64,74.91 19.02,31.58 28.54,68.1 28.54,109.54 0,44.18 -10.04,83.41 -29.9,117.73 -19.87,34.3 -49.94,61.13 -90.21,80.5 -40.25,19.36 -89.17,29.05 -146.91,29.05l-84.6 0 0 221.15 -140.63 0 0 -660.4 231.34 0zm5066.15 312.87c28.54,7.48 52.49,19.19 71.86,35.16 19.36,15.97 33.63,34.15 42.8,54.53 9.18,20.38 13.76,41.78 13.76,64.2 0,61.84 -21.74,109.57 -65.22,143.2 -43.49,33.63 -105.65,50.44 -186.5,50.44l-258.87 0 0 -660.4 241.54 0c52.32,0 96.64,7.31 132.99,21.9 36.35,14.62 63.7,34.99 82.05,61.15 18.35,26.16 27.51,56.91 27.51,92.24 0,29.21 -8.49,56.22 -25.47,81.02 -16.99,24.81 -42.46,43.66 -76.45,56.56zm-241.53 -198.73l0 153.89 81.36 0c75.59,0 113.3,-26.83 113.3,-80.51 0,-23.78 -8.5,-41.96 -25.31,-54.53 -16.82,-12.57 -41.27,-18.85 -73.55,-18.85l-95.8 0zm103.78 430.08c42.3,0 72.36,-7.64 90.38,-22.93 17.99,-15.28 26.99,-35.84 26.99,-61.67 0,-25.13 -9.33,-45.18 -28.02,-60.12 -18.68,-14.95 -47.05,-22.43 -85.09,-22.43l-108.04 0 0 167.15 103.78 0zm900.08 -544.22l0 8.15 -244.6 377.08 0 275.17 -140.65 0 0 -271.09 -238.47 -381.16 0 -8.15 163.05 0 148.8 254.79 154.91 -254.79 156.96 0zm-5848.52 323.06c42.3,0 74.91,-7.97 97.83,-23.94 22.93,-15.97 34.32,-43.66 34.32,-83.06 0,-33.3 -10.2,-58.27 -30.75,-74.91 -20.38,-16.65 -48.91,-24.97 -85.78,-24.97l-86.29 0 0 206.88 70.67 0zm670.24 351.6c-70.65,0 -130.61,-14.59 -179.87,-43.82 -49.26,-29.21 -86.47,-69.8 -111.6,-121.78 -25.14,-51.98 -37.71,-112.28 -37.71,-180.9 0,-76.1 15.28,-139.78 45.87,-191.09 30.56,-51.3 71.17,-89.34 121.78,-114.14 50.62,-24.81 106.85,-37.21 168.67,-37.21 70.67,0 130.63,14.62 179.88,43.84 49.25,29.21 86.29,69.8 111.09,121.78 24.8,51.97 37.2,112.28 37.2,180.91 0,76.08 -15.13,139.78 -45.36,191.07 -30.23,51.3 -70.65,89.36 -121.28,114.16 -50.61,24.78 -106.83,37.18 -168.67,37.18zm0 -118.21c40.09,0 74.24,-9 102.43,-27.01 28.2,-18 49.26,-43.82 63.19,-77.46 13.93,-33.63 20.9,-73.2 20.9,-118.73 0,-72.01 -15.3,-128.23 -45.87,-168.65 -30.58,-40.44 -75.08,-60.65 -133.51,-60.65 -61.15,0 -107.69,19.88 -139.63,59.63 -31.92,39.73 -47.89,94.26 -47.89,163.56 0,72.02 15.28,128.24 45.86,168.67 30.57,40.43 75.41,60.64 134.52,60.64zm1284.14 -556.45l0 8.15 -169.18 652.25 -179.37 0 -81.53 -361.79c-9.52,-40.08 -18,-88.66 -25.48,-145.74 -7.47,57.08 -15.97,105.66 -25.48,145.74l-79.49 361.79 -179.38 0 -170.19 -652.25 0 -8.15 147.77 0 84.6 357.72c4.76,19.02 9.85,44.16 15.28,75.41 5.43,31.25 10.19,62.17 14.26,92.74 10.88,-69.98 21.07,-126.02 30.58,-168.15l83.58 -357.72 164.08 0 81.52 350.58c12.24,55.03 23.11,113.8 32.61,176.31 4.09,-28.54 9,-58.77 14.79,-90.69 5.78,-31.94 11.37,-60.48 16.82,-85.62l78.46 -350.58 145.75 0zm229.3 542.17l305.75 0 0 118.23 -446.39 0 0 -660.4 441.29 0 0 117.21 -300.65 0 0 148.79 259.88 0 -16.47 116.18 -243.41 0 0 159.99zm946.79 110.07l0 8.16 -161.71 0 -165.94 -240.51 -55.55 0 0 240.51 -140.64 0 0 -660.4 221.16 0c58.42,0 107.17,9 146.25,27 39.06,18.01 68.1,42.46 87.12,73.38 19.04,30.92 28.54,66.08 28.54,105.49 0,46.19 -11.54,86.11 -34.65,119.74 -23.1,33.63 -57.07,58.6 -101.91,74.91l177.33 251.72zm-383.2 -341.41l63.53 0c41.61,0 73.72,-7.81 96.31,-23.43 22.59,-15.63 33.8,-41.44 33.8,-77.45 0,-31.26 -10.02,-54.7 -30.23,-70.32 -20.05,-15.64 -48.25,-23.45 -84.25,-23.45l-79.16 0 0 194.65zm612.5 231.34l305.76 0 0 118.23 -446.39 0 0 -660.4 441.29 0 0 117.21 -300.66 0 0 148.79 259.89 0 -16.47 116.18 -243.42 0 0 159.99zm643.09 -542.17c114.14,0 202.81,24.97 266.01,74.91 63.17,49.94 94.76,135.04 94.76,255.29 0,73.38 -16.64,134.87 -49.94,184.46 -33.28,49.6 -77.62,86.29 -132.99,110.07 -55.37,23.77 -116.35,35.67 -182.93,35.67l-215.04 0 0 -660.4 220.13 0zm-32.61 536.07c58.09,0 104.46,-5.61 139.28,-16.82 34.82,-11.21 60.98,-31.76 78.65,-61.65 17.83,-29.9 26.66,-72.37 26.66,-127.4 0,-50.96 -7.98,-91.38 -23.95,-121.28 -15.95,-29.89 -39.57,-51.46 -70.65,-64.72 -31.26,-13.24 -70.67,-19.87 -118.23,-19.87l-78.64 0 0 411.74 46.88 0z"/>
    </g>
    <path class="fil3" d="M23403.52 12191.2c-110.74,0 -191.77,-30.73 -243.06,-92.22 -51.3,-61.5 -76.96,-143.86 -76.96,-247.14 0,-83.58 14.28,-151.35 42.8,-203.33 28.54,-51.97 66.42,-89.34 113.64,-112.09 47.22,-22.76 100.4,-34.16 159.5,-34.16 41.45,0 79.49,4.93 114.14,14.78 34.66,9.86 69.31,24.97 103.95,45.37l-54.34 107c-48.42,-31.26 -101.07,-46.88 -157.8,-46.88 -115.34,0 -173.09,73.72 -173.09,221.15 0,73.38 16.14,129.1 48.25,167.14 32.09,38.06 77.45,57.08 136.22,57.08 30.07,0 56.22,-3.91 78.81,-11.73 22.59,-7.81 46.21,-18.86 70.66,-33.12l56.39 101.91c-36.69,21.75 -72.53,38.22 -107.52,49.44 -34.99,11.21 -72.18,16.8 -111.59,16.8zm-3464.06 -361.79c28.53,7.48 52.48,19.19 71.85,35.16 19.36,15.97 33.64,34.15 42.8,54.53 9.19,20.38 13.76,41.78 13.76,64.2 0,61.84 -21.73,109.57 -65.22,143.2 -43.49,33.63 -105.64,50.44 -186.5,50.44l-258.86 0 0 -660.4 241.53 0c52.32,0 96.65,7.31 132.99,21.9 36.35,14.62 63.7,34.99 82.05,61.15 18.35,26.16 27.52,56.91 27.52,92.24 0,29.21 -8.5,56.22 -25.48,81.02 -16.99,24.81 -42.46,43.66 -76.44,56.56zm-241.54 -198.73l0 153.89 81.36 0c75.6,0 113.3,-26.83 113.3,-80.51 0,-23.78 -8.49,-41.96 -25.3,-54.53 -16.83,-12.57 -41.28,-18.85 -73.55,-18.85l-95.81 0zm103.78 430.08c42.3,0 72.36,-7.64 90.38,-22.93 18,-15.28 27,-35.84 27,-61.67 0,-25.13 -9.34,-45.18 -28.02,-60.12 -18.69,-14.95 -47.06,-22.43 -85.1,-22.43l-108.04 0 0 167.15 103.78 0zm719.7 -544.22l237.46 652.24 0 8.16 -153.89 0 -53.01 -157.96 -244.58 0 -51.99 157.96 -151.84 0 0 -8.16 237.46 -652.24 180.39 0zm-175.29 386.26l167.12 0 -84.57 -251.74 -82.55 251.74zm1084.34 -386.26l0 660.4 -156.94 0 -207.56 -307.78c-17.83,-27.18 -32.78,-50.79 -45.01,-70.83 -12.24,-20.05 -24.29,-42.64 -35.85,-67.77l0 446.38 -140.63 0 0 -660.4 154.91 0 226.08 338.35c2.72,4.08 8.83,13.42 18.34,28.03 9.51,14.61 18.18,28.37 26.16,41.28 7.81,12.9 14.44,25.47 19.87,37.7l0 -445.36 140.63 0zm430.08 674.66c-110.73,0 -191.76,-30.73 -243.06,-92.22 -51.29,-61.5 -76.95,-143.86 -76.95,-247.14 0,-83.58 14.28,-151.35 42.8,-203.33 28.54,-51.97 66.41,-89.34 113.64,-112.09 47.22,-22.76 100.4,-34.16 159.5,-34.16 41.44,0 79.49,4.93 114.14,14.78 34.66,9.86 69.31,24.97 103.95,45.37l-54.35 107c-48.41,-31.26 -101.06,-46.88 -157.79,-46.88 -115.34,0 -173.09,73.72 -173.09,221.15 0,73.38 16.13,129.1 48.24,167.14 32.1,38.06 77.46,57.08 136.23,57.08 30.06,0 56.22,-3.91 78.81,-11.73 22.59,-7.81 46.2,-18.86 70.65,-33.12l56.4 101.91c-36.69,21.75 -72.53,38.22 -107.52,49.44 -34.99,11.21 -72.18,16.8 -111.6,16.8zm582.95 0c-70.65,0 -130.61,-14.59 -179.87,-43.82 -49.26,-29.21 -86.47,-69.8 -111.6,-121.78 -25.14,-51.98 -37.71,-112.28 -37.71,-180.9 0,-76.1 15.28,-139.78 45.87,-191.09 30.56,-51.3 71.17,-89.34 121.78,-114.14 50.62,-24.81 106.85,-37.21 168.67,-37.21 70.67,0 130.63,14.62 179.88,43.84 49.25,29.21 86.29,69.8 111.09,121.78 24.8,51.97 37.2,112.28 37.2,180.91 0,76.08 -15.13,139.78 -45.36,191.07 -30.23,51.3 -70.65,89.36 -121.28,114.16 -50.61,24.78 -106.83,37.18 -168.67,37.18zm0 -118.21c40.09,0 74.24,-9 102.43,-27.01 28.2,-18 49.26,-43.82 63.19,-77.46 13.93,-33.63 20.9,-73.2 20.9,-118.73 0,-72.01 -15.3,-128.23 -45.87,-168.65 -30.58,-40.44 -75.08,-60.65 -133.51,-60.65 -61.15,0 -107.69,19.88 -139.63,59.63 -31.92,39.73 -47.89,94.26 -47.89,163.56 0,72.02 15.28,128.24 45.86,168.67 30.57,40.43 75.41,60.64 134.52,60.64zm1404.38 -14.28l305.75 0 0 118.23 -446.39 0 0 -660.4 441.29 0 0 117.21 -300.65 0 0 148.79 259.88 0 -16.47 116.18 -243.41 0 0 159.99zm1008.95 -542.17l0 660.4 -156.94 0 -207.57 -307.78c-17.83,-27.18 -32.77,-50.79 -45.01,-70.83 -12.23,-20.05 -24.28,-42.64 -35.84,-67.77l0 446.38 -140.64 0 0 -660.4 154.91 0 226.09 338.35c2.71,4.08 8.83,13.42 18.33,28.03 9.52,14.61 18.18,28.37 26.16,41.28 7.81,12.9 14.45,25.47 19.88,37.7l0 -445.36 140.63 0zm647.16 0l0 123.31 -209.94 0 0 537.09 -140.65 0 0 -537.09 -210.95 0 0 -123.31 561.54 0zm609.44 652.24l0 8.16 -161.71 0 -165.94 -240.51 -55.55 0 0 240.51 -140.64 0 0 -660.4 221.16 0c58.42,0 107.17,9 146.25,27 39.06,18.01 68.1,42.46 87.12,73.38 19.04,30.92 28.54,66.08 28.54,105.49 0,46.19 -11.54,86.11 -34.65,119.74 -23.1,33.63 -57.07,58.6 -101.91,74.91l177.33 251.72zm-383.2 -341.41l63.53 0c41.61,0 73.72,-7.81 96.31,-23.43 22.59,-15.63 33.8,-41.44 33.8,-77.45 0,-31.26 -10.02,-54.7 -30.23,-70.32 -20.05,-15.64 -48.25,-23.45 -84.25,-23.45l-79.16 0 0 194.65zm829.59 -310.83l237.46 652.24 0 8.16 -153.89 0 -53 -157.96 -244.59 0 -51.98 157.96 -151.85 0 0 -8.16 237.46 -652.24 180.39 0zm-175.29 386.26l167.13 0 -84.58 -251.74 -82.55 251.74zm638.99 149.81l303.7 0 0 124.33 -444.34 0 0 -660.4 140.64 0 0 536.07z"/>
    <path class="fil4" d="M18553.78 4313.33c151.77,-151.77 199.37,-199.38 351.16,-351.16 61.44,-61.44 161.97,-61.44 223.41,0 151.77,151.77 199.39,199.39 351.16,351.16 61.44,61.44 61.44,161.97 0,223.41 -151.78,151.78 -199.39,199.39 -351.16,351.16 -61.44,61.44 -161.97,61.44 -223.41,0 -151.77,-151.77 -199.39,-199.39 -351.16,-351.16 -61.44,-61.44 -61.44,-161.97 0,-223.41z"/>
   </g>
  </g>
 </g>
</svg>
